<svg width="267" height="267" viewBox="0 0 267 267" fill="none" xmlns="http://www.w3.org/2000/svg">
<g clip-path="url(#clip0_11_32)">
<path d="M89.1607 63.3086C91.478 61.9707 94.333 61.9685 96.652 63.3035L228.466 139.197C230.79 140.534 232.222 143.01 232.224 145.691C232.225 148.372 230.796 150.85 228.474 152.191L96.478 228.399C94.1564 229.739 91.2953 229.738 88.9744 228.396C86.6538 227.054 85.2257 224.576 85.2289 221.895L85.4106 69.7937L85.4161 69.5436C85.5051 66.9646 86.9157 64.6048 89.1607 63.3086Z" fill="#DDF247" stroke="#E9E9E9" stroke-width="14.9983" stroke-linejoin="round"/>
<path d="M101.071 119.325L133.951 100.42L101.944 160.377L162.681 123.919L108.954 192.919L189.431 144.349" stroke="black" stroke-width="7.49915" stroke-linejoin="bevel"/>
</g>
<defs>
<clipPath id="clip0_11_32">
<rect width="194.978" height="194.978" fill="white" transform="translate(0 97.489) rotate(-30)"/>
</clipPath>
</defs>
</svg>
