<svg width="601" height="203" viewBox="0 0 601 203" fill="none" xmlns="http://www.w3.org/2000/svg">
<path d="M4.98008 39.3V34.26H14.5801V5.04005H4.98008V4.69685e-05H30.1801V5.04005H20.5801V34.26H30.1801V39.3H4.98008ZM38.1766 39.3V9.96005H42.8566L43.3366 13.8H43.4566C44.1766 12.48 45.0366 11.4 46.0366 10.56C47.0366 9.68005 48.3766 9.24005 50.0566 9.24005C51.4566 9.24005 52.6166 9.66005 53.5366 10.5C54.4566 11.34 55.0966 12.6 55.4566 14.28C56.2566 12.76 57.1566 11.54 58.1566 10.62C59.1966 9.70005 60.5566 9.24005 62.2366 9.24005C64.3166 9.24005 65.9166 10.04 67.0366 11.64C68.1966 13.24 68.7766 15.5 68.7766 18.42V39.3H62.9566V18.84C62.9566 15.84 62.0566 14.34 60.2566 14.34C59.3766 14.34 58.6366 14.68 58.0366 15.36C57.4366 16.04 56.7766 17.06 56.0566 18.42V39.3H50.8966V18.84C50.8966 17.36 50.6766 16.24 50.2366 15.48C49.8366 14.72 49.1766 14.34 48.2566 14.34C47.3766 14.34 46.5966 14.68 45.9166 15.36C45.2766 16.04 44.6366 17.06 43.9966 18.42V39.3H38.1766ZM75.8132 51.3V9.96005H80.6732L81.1532 13.56H81.3332C82.6532 12.32 84.1732 11.3 85.8932 10.5C87.6132 9.66005 89.3532 9.24005 91.1132 9.24005C93.7132 9.24005 95.8932 9.86005 97.6532 11.1C99.4532 12.34 100.813 14.08 101.733 16.32C102.693 18.56 103.173 21.18 103.173 24.18C103.173 27.54 102.553 30.4 101.313 32.76C100.073 35.12 98.4532 36.92 96.4532 38.16C94.4532 39.4 92.2932 40.02 89.9732 40.02C88.6532 40.02 87.2332 39.7 85.7132 39.06C84.2332 38.42 82.8732 37.54 81.6332 36.42H81.4532L81.7532 41.7V51.3H75.8132ZM88.8332 35.1C90.3932 35.1 91.7932 34.68 93.0332 33.84C94.2732 33 95.2532 31.78 95.9732 30.18C96.6932 28.54 97.0532 26.56 97.0532 24.24C97.0532 22.2 96.7732 20.44 96.2132 18.96C95.6932 17.44 94.8932 16.28 93.8132 15.48C92.7332 14.64 91.2932 14.22 89.4932 14.22C88.2932 14.22 87.0332 14.54 85.7132 15.18C84.3932 15.78 83.0732 16.78 81.7532 18.18V32.04C82.9932 33.12 84.2532 33.9 85.5332 34.38C86.8132 34.86 87.9132 35.1 88.8332 35.1ZM114.29 39.3V9.96005H119.21L119.69 16.8H119.87C121.39 14.4 123.25 12.54 125.45 11.22C127.65 9.90005 130.05 9.24005 132.65 9.24005C133.77 9.24005 134.79 9.34005 135.71 9.54005C136.63 9.74005 137.53 10.04 138.41 10.44L137.09 15.54C136.09 15.18 135.23 14.94 134.51 14.82C133.79 14.66 132.87 14.58 131.75 14.58C129.63 14.58 127.59 15.18 125.63 16.38C123.67 17.58 121.87 19.66 120.23 22.62V39.3H114.29ZM159.486 40.02C156.926 40.02 154.526 39.42 152.286 38.22C150.086 37.02 148.286 35.28 146.886 33C145.526 30.68 144.846 27.9 144.846 24.66C144.846 21.42 145.526 18.66 146.886 16.38C148.286 14.06 150.086 12.3 152.286 11.1C154.526 9.86005 156.926 9.24005 159.486 9.24005C162.046 9.24005 164.426 9.86005 166.626 11.1C168.866 12.3 170.666 14.06 172.026 16.38C173.426 18.66 174.126 21.42 174.126 24.66C174.126 27.9 173.426 30.68 172.026 33C170.666 35.28 168.866 37.02 166.626 38.22C164.426 39.42 162.046 40.02 159.486 40.02ZM159.486 35.16C161.206 35.16 162.706 34.72 163.986 33.84C165.266 32.96 166.246 31.74 166.926 30.18C167.646 28.62 168.006 26.78 168.006 24.66C168.006 22.58 167.646 20.76 166.926 19.2C166.246 17.6 165.266 16.36 163.986 15.48C162.706 14.6 161.206 14.16 159.486 14.16C157.766 14.16 156.266 14.6 154.986 15.48C153.706 16.36 152.706 17.6 151.986 19.2C151.306 20.76 150.966 22.58 150.966 24.66C150.966 26.78 151.306 28.62 151.986 30.18C152.706 31.74 153.706 32.96 154.986 33.84C156.266 34.72 157.766 35.16 159.486 35.16ZM191.723 39.3L179.723 9.96005H185.723L191.903 25.92C192.463 27.36 193.003 28.82 193.523 30.3C194.043 31.74 194.543 33.18 195.023 34.62H195.263C195.783 33.18 196.283 31.74 196.763 30.3C197.243 28.82 197.763 27.36 198.323 25.92L204.503 9.96005H210.203L198.443 39.3H191.723ZM232.239 40.02C229.279 40.02 226.579 39.42 224.139 38.22C221.739 37.02 219.839 35.26 218.439 32.94C217.039 30.62 216.339 27.84 216.339 24.6C216.339 21.4 217.039 18.66 218.439 16.38C219.879 14.1 221.739 12.34 224.019 11.1C226.299 9.86005 228.739 9.24005 231.339 9.24005C234.219 9.24005 236.659 9.84005 238.659 11.04C240.659 12.2 242.179 13.82 243.219 15.9C244.299 17.94 244.839 20.34 244.839 23.1C244.839 23.7 244.819 24.3 244.779 24.9C244.739 25.46 244.679 25.94 244.599 26.34H220.479V21.96H240.879L239.559 23.4C239.559 20.24 238.839 17.88 237.399 16.32C235.959 14.72 233.999 13.92 231.519 13.92C229.799 13.92 228.219 14.34 226.779 15.18C225.379 15.98 224.259 17.18 223.419 18.78C222.579 20.34 222.159 22.28 222.159 24.6C222.159 27 222.619 29 223.539 30.6C224.499 32.16 225.779 33.34 227.379 34.14C229.019 34.94 230.899 35.34 233.019 35.34C234.659 35.34 236.159 35.12 237.519 34.68C238.879 34.2 240.219 33.56 241.539 32.76L243.639 36.54C242.159 37.54 240.459 38.38 238.539 39.06C236.619 39.7 234.519 40.02 232.239 40.02ZM291.433 51.6C290.713 51.6 289.993 51.54 289.273 51.42C288.553 51.3 287.933 51.16 287.413 51L288.613 46.38C288.973 46.5 289.373 46.6 289.813 46.68C290.253 46.76 290.693 46.8 291.133 46.8C293.093 46.8 294.673 46.26 295.873 45.18C297.073 44.1 298.013 42.76 298.693 41.16L299.473 39.12L286.093 9.96005H292.033L298.633 25.26C299.153 26.58 299.693 27.98 300.253 29.46C300.853 30.9 301.453 32.36 302.053 33.84H302.293C302.773 32.44 303.273 31 303.793 29.52C304.313 28 304.813 26.58 305.293 25.26L311.113 9.96005H316.753L304.213 41.16C303.453 43.24 302.513 45.06 301.393 46.62C300.273 48.18 298.893 49.4 297.253 50.28C295.653 51.16 293.713 51.6 291.433 51.6ZM336.869 40.02C334.309 40.02 331.909 39.42 329.669 38.22C327.469 37.02 325.669 35.28 324.269 33C322.909 30.68 322.229 27.9 322.229 24.66C322.229 21.42 322.909 18.66 324.269 16.38C325.669 14.06 327.469 12.3 329.669 11.1C331.909 9.86005 334.309 9.24005 336.869 9.24005C339.429 9.24005 341.809 9.86005 344.009 11.1C346.249 12.3 348.049 14.06 349.409 16.38C350.809 18.66 351.509 21.42 351.509 24.66C351.509 27.9 350.809 30.68 349.409 33C348.049 35.28 346.249 37.02 344.009 38.22C341.809 39.42 339.429 40.02 336.869 40.02ZM336.869 35.16C338.589 35.16 340.089 34.72 341.369 33.84C342.649 32.96 343.629 31.74 344.309 30.18C345.029 28.62 345.389 26.78 345.389 24.66C345.389 22.58 345.029 20.76 344.309 19.2C343.629 17.6 342.649 16.36 341.369 15.48C340.089 14.6 338.589 14.16 336.869 14.16C335.149 14.16 333.649 14.6 332.369 15.48C331.089 16.36 330.089 17.6 329.369 19.2C328.689 20.76 328.349 22.58 328.349 24.66C328.349 26.78 328.689 28.62 329.369 30.18C330.089 31.74 331.089 32.96 332.369 33.84C333.649 34.72 335.149 35.16 336.869 35.16ZM368.746 40.02C365.306 40.02 362.766 39 361.126 36.96C359.526 34.92 358.726 31.98 358.726 28.14V9.96005H364.666V27.36C364.666 29.96 365.126 31.88 366.046 33.12C367.006 34.32 368.586 34.92 370.786 34.92C372.346 34.92 373.746 34.54 374.986 33.78C376.226 33.02 377.566 31.78 379.006 30.06V9.96005H384.946V39.3H380.086L379.606 34.44H379.366C377.926 36.08 376.346 37.42 374.626 38.46C372.946 39.5 370.986 40.02 368.746 40.02ZM398.102 39.3V9.96005H403.022L403.502 16.8H403.682C405.202 14.4 407.062 12.54 409.262 11.22C411.462 9.90005 413.862 9.24005 416.462 9.24005C417.582 9.24005 418.602 9.34005 419.522 9.54005C420.442 9.74005 421.342 10.04 422.222 10.44L420.902 15.54C419.902 15.18 419.042 14.94 418.322 14.82C417.602 14.66 416.682 14.58 415.562 14.58C413.442 14.58 411.402 15.18 409.442 16.38C407.482 17.58 405.682 19.66 404.042 22.62V39.3H398.102ZM17.9401 115.02C15.1801 115.02 12.5401 114.56 10.0201 113.64C7.50008 112.72 5.36008 111.66 3.60008 110.46L6.24008 106.62C7.96008 107.82 9.82008 108.76 11.8201 109.44C13.8601 110.12 16.1601 110.46 18.7201 110.46C20.9601 110.46 22.6201 110.06 23.7001 109.26C24.8201 108.46 25.3801 107.52 25.3801 106.44C25.3801 105.92 25.2601 105.44 25.0201 105C24.8201 104.56 24.4201 104.16 23.8201 103.8C23.2601 103.4 22.4001 103.02 21.2401 102.66C20.1201 102.3 18.6401 101.92 16.8001 101.52C12.9201 100.72 10.0401 99.62 8.16008 98.22C6.32008 96.82 5.40008 95.02 5.40008 92.82C5.40008 90.34 6.46008 88.3 8.58008 86.7C10.7401 85.06 13.8601 84.24 17.9401 84.24C20.2601 84.24 22.4601 84.64 24.5401 85.44C26.6601 86.2 28.4601 87.08 29.9401 88.08L27.1801 91.8C25.7801 90.88 24.2401 90.16 22.5601 89.64C20.9201 89.08 19.2001 88.8 17.4001 88.8C15.9201 88.8 14.7401 88.98 13.8601 89.34C12.9801 89.66 12.3401 90.1 11.9401 90.66C11.5401 91.22 11.3401 91.84 11.3401 92.52C11.3401 93.64 11.9601 94.52 13.2001 95.16C14.4801 95.76 16.5401 96.36 19.3801 96.96C22.5801 97.64 25.0401 98.4 26.7601 99.24C28.5201 100.08 29.7201 101.06 30.3601 102.18C31.0401 103.26 31.3801 104.56 31.3801 106.08C31.3801 107.72 30.8601 109.22 29.8201 110.58C28.7801 111.94 27.2601 113.02 25.2601 113.82C23.3001 114.62 20.8601 115.02 17.9401 115.02ZM40.9366 114.3V71.76H46.8766V99.48H47.1166L61.5766 84.96H68.2366L46.8766 106.5V114.3H40.9366ZM63.1366 114.3L52.3966 99.3L55.9366 95.52L69.6766 114.3H63.1366ZM88.8932 114.3V89.76H75.7532V84.96H94.8332V114.3H88.8932ZM91.3532 79.26C90.0732 79.26 89.0132 78.88 88.1732 78.12C87.3332 77.32 86.9132 76.28 86.9132 75C86.9132 73.72 87.3332 72.7 88.1732 71.94C89.0132 71.14 90.0732 70.74 91.3532 70.74C92.6332 70.74 93.6932 71.14 94.5332 71.94C95.3732 72.7 95.7932 73.72 95.7932 75C95.7932 76.28 95.3732 77.32 94.5332 78.12C93.6932 78.88 92.6332 79.26 91.3532 79.26ZM130.19 115.02C126.95 115.02 124.47 114.08 122.75 112.2C121.03 110.28 120.17 107.56 120.17 104.04V76.56H110.39V71.76H126.11V104.4C126.11 106.44 126.63 107.92 127.67 108.84C128.71 109.72 130.01 110.16 131.57 110.16C132.37 110.16 133.19 110.06 134.03 109.86C134.91 109.66 135.87 109.34 136.91 108.9L138.35 113.34C136.95 113.82 135.65 114.22 134.45 114.54C133.29 114.86 131.87 115.02 130.19 115.02ZM165.666 115.02C162.426 115.02 159.946 114.08 158.226 112.2C156.506 110.28 155.646 107.56 155.646 104.04V76.56H145.866V71.76H161.586V104.4C161.586 106.44 162.106 107.92 163.146 108.84C164.186 109.72 165.486 110.16 167.046 110.16C167.846 110.16 168.666 110.06 169.506 109.86C170.386 109.66 171.346 109.34 172.386 108.9L173.826 113.34C172.426 113.82 171.126 114.22 169.926 114.54C168.766 114.86 167.346 115.02 165.666 115.02ZM195.323 115.02C192.563 115.02 189.923 114.56 187.403 113.64C184.883 112.72 182.743 111.66 180.983 110.46L183.623 106.62C185.343 107.82 187.203 108.76 189.203 109.44C191.243 110.12 193.543 110.46 196.103 110.46C198.343 110.46 200.003 110.06 201.083 109.26C202.203 108.46 202.763 107.52 202.763 106.44C202.763 105.92 202.643 105.44 202.403 105C202.203 104.56 201.803 104.16 201.203 103.8C200.643 103.4 199.783 103.02 198.623 102.66C197.503 102.3 196.023 101.92 194.183 101.52C190.303 100.72 187.423 99.62 185.543 98.22C183.703 96.82 182.783 95.02 182.783 92.82C182.783 90.34 183.843 88.3 185.963 86.7C188.123 85.06 191.243 84.24 195.323 84.24C197.643 84.24 199.843 84.64 201.923 85.44C204.043 86.2 205.843 87.08 207.323 88.08L204.563 91.8C203.163 90.88 201.623 90.16 199.943 89.64C198.303 89.08 196.583 88.8 194.783 88.8C193.303 88.8 192.123 88.98 191.243 89.34C190.363 89.66 189.723 90.1 189.323 90.66C188.923 91.22 188.723 91.84 188.723 92.52C188.723 93.64 189.343 94.52 190.583 95.16C191.863 95.76 193.923 96.36 196.763 96.96C199.963 97.64 202.423 98.4 204.143 99.24C205.903 100.08 207.103 101.06 207.743 102.18C208.423 103.26 208.763 104.56 208.763 106.08C208.763 107.72 208.243 109.22 207.203 110.58C206.163 111.94 204.643 113.02 202.643 113.82C200.683 114.62 198.243 115.02 195.323 115.02ZM267.416 115.02C265.976 115.02 264.476 114.68 262.916 114C261.356 113.28 259.916 112.3 258.596 111.06H258.416L257.876 114.3H253.196V71.76H259.136V83.04L258.896 88.44H259.076C260.356 87.16 261.816 86.14 263.456 85.38C265.136 84.62 266.796 84.24 268.436 84.24C271.036 84.24 273.236 84.86 275.036 86.1C276.836 87.34 278.196 89.08 279.116 91.32C280.076 93.52 280.556 96.14 280.556 99.18C280.556 102.5 279.936 105.36 278.696 107.76C277.456 110.12 275.836 111.92 273.836 113.16C271.876 114.4 269.736 115.02 267.416 115.02ZM266.276 110.1C267.836 110.1 269.216 109.68 270.416 108.84C271.656 108 272.636 106.78 273.356 105.18C274.076 103.54 274.436 101.56 274.436 99.24C274.436 97.2 274.156 95.44 273.596 93.96C273.076 92.44 272.276 91.28 271.196 90.48C270.116 89.64 268.676 89.22 266.876 89.22C265.676 89.22 264.416 89.54 263.096 90.18C261.776 90.78 260.456 91.78 259.136 93.18V107.04C260.376 108.12 261.636 108.9 262.916 109.38C264.196 109.86 265.316 110.1 266.276 110.1ZM291.433 126.6C290.713 126.6 289.993 126.54 289.273 126.42C288.553 126.3 287.933 126.16 287.413 126L288.613 121.38C288.973 121.5 289.373 121.6 289.813 121.68C290.253 121.76 290.693 121.8 291.133 121.8C293.093 121.8 294.673 121.26 295.873 120.18C297.073 119.1 298.013 117.76 298.693 116.16L299.473 114.12L286.093 84.96H292.033L298.633 100.26C299.153 101.58 299.693 102.98 300.253 104.46C300.853 105.9 301.453 107.36 302.053 108.84H302.293C302.773 107.44 303.273 106 303.793 104.52C304.313 103 304.813 101.58 305.293 100.26L311.113 84.96H316.753L304.213 116.16C303.453 118.24 302.513 120.06 301.393 121.62C300.273 123.18 298.893 124.4 297.253 125.28C295.653 126.16 293.713 126.6 291.433 126.6ZM443.659 115.02C440.899 115.02 438.259 114.56 435.739 113.64C433.219 112.72 431.079 111.66 429.319 110.46L431.959 106.62C433.679 107.82 435.539 108.76 437.539 109.44C439.579 110.12 441.879 110.46 444.439 110.46C446.679 110.46 448.339 110.06 449.419 109.26C450.539 108.46 451.099 107.52 451.099 106.44C451.099 105.92 450.979 105.44 450.739 105C450.539 104.56 450.139 104.16 449.539 103.8C448.979 103.4 448.119 103.02 446.959 102.66C445.839 102.3 444.359 101.92 442.519 101.52C438.639 100.72 435.759 99.62 433.879 98.22C432.039 96.82 431.119 95.02 431.119 92.82C431.119 90.34 432.179 88.3 434.299 86.7C436.459 85.06 439.579 84.24 443.659 84.24C445.979 84.24 448.179 84.64 450.259 85.44C452.379 86.2 454.179 87.08 455.659 88.08L452.899 91.8C451.499 90.88 449.959 90.16 448.279 89.64C446.639 89.08 444.919 88.8 443.119 88.8C441.639 88.8 440.459 88.98 439.579 89.34C438.699 89.66 438.059 90.1 437.659 90.66C437.259 91.22 437.059 91.84 437.059 92.52C437.059 93.64 437.679 94.52 438.919 95.16C440.199 95.76 442.259 96.36 445.099 96.96C448.299 97.64 450.759 98.4 452.479 99.24C454.239 100.08 455.439 101.06 456.079 102.18C456.759 103.26 457.099 104.56 457.099 106.08C457.099 107.72 456.579 109.22 455.539 110.58C454.499 111.94 452.979 113.02 450.979 113.82C449.019 114.62 446.579 115.02 443.659 115.02ZM484.355 115.02C481.395 115.02 479.055 114.5 477.335 113.46C475.655 112.42 474.455 110.98 473.735 109.14C473.015 107.3 472.655 105.16 472.655 102.72V89.76H464.615V85.32L472.895 84.96L473.675 75.72H478.595V84.96H492.455V89.76H478.595V102.72C478.595 104.36 478.815 105.76 479.255 106.92C479.695 108.04 480.435 108.88 481.475 109.44C482.515 109.96 483.915 110.22 485.675 110.22C486.995 110.22 488.195 110.12 489.275 109.92C490.355 109.68 491.395 109.38 492.395 109.02L493.595 113.34C492.275 113.78 490.855 114.16 489.335 114.48C487.855 114.84 486.195 115.02 484.355 115.02ZM510.652 115.02C507.212 115.02 504.672 114 503.032 111.96C501.432 109.92 500.632 106.98 500.632 103.14V84.96H506.572V102.36C506.572 104.96 507.032 106.88 507.952 108.12C508.912 109.32 510.492 109.92 512.692 109.92C514.252 109.92 515.652 109.54 516.892 108.78C518.132 108.02 519.472 106.78 520.912 105.06V84.96H526.852V114.3H521.992L521.512 109.44H521.272C519.832 111.08 518.252 112.42 516.532 113.46C514.852 114.5 512.892 115.02 510.652 115.02ZM547.749 115.02C543.949 115.02 540.889 113.68 538.569 111C536.249 108.28 535.089 104.5 535.089 99.66C535.089 96.5 535.709 93.78 536.949 91.5C538.229 89.18 539.869 87.4 541.869 86.16C543.869 84.88 545.989 84.24 548.229 84.24C549.949 84.24 551.489 84.56 552.849 85.2C554.209 85.84 555.469 86.74 556.629 87.9H556.809L556.509 82.68V71.76H562.449V114.3H557.589L557.109 110.7H556.929C555.769 111.86 554.389 112.88 552.789 113.76C551.189 114.6 549.509 115.02 547.749 115.02ZM549.129 110.1C550.449 110.1 551.709 109.78 552.909 109.14C554.149 108.46 555.349 107.46 556.509 106.14V92.22C555.349 91.14 554.189 90.38 553.029 89.94C551.869 89.46 550.709 89.22 549.549 89.22C548.029 89.22 546.629 89.64 545.349 90.48C544.109 91.32 543.109 92.52 542.349 94.08C541.589 95.64 541.209 97.48 541.209 99.6C541.209 102.96 541.909 105.56 543.309 107.4C544.709 109.2 546.649 110.1 549.129 110.1ZM575.245 126.6C574.525 126.6 573.805 126.54 573.085 126.42C572.365 126.3 571.745 126.16 571.225 126L572.425 121.38C572.785 121.5 573.185 121.6 573.625 121.68C574.065 121.76 574.505 121.8 574.945 121.8C576.905 121.8 578.485 121.26 579.685 120.18C580.885 119.1 581.825 117.76 582.505 116.16L583.285 114.12L569.905 84.96H575.845L582.445 100.26C582.965 101.58 583.505 102.98 584.065 104.46C584.665 105.9 585.265 107.36 585.865 108.84H586.105C586.585 107.44 587.085 106 587.605 104.52C588.125 103 588.625 101.58 589.105 100.26L594.925 84.96H600.565L588.025 116.16C587.265 118.24 586.325 120.06 585.205 121.62C584.085 123.18 582.705 124.4 581.065 125.28C579.465 126.16 577.525 126.6 575.245 126.6ZM6.00008 189.3L7.8138e-05 159.96H5.88008L8.88008 176.1C9.16008 177.46 9.40008 178.82 9.60008 180.18C9.80008 181.54 9.98008 182.92 10.1401 184.32H10.3801C10.5801 182.92 10.8201 181.54 11.1001 180.18C11.3801 178.82 11.6601 177.46 11.9401 176.1L15.1201 162.36H20.4001L23.5201 176.1C23.8001 177.46 24.1001 178.82 24.4201 180.18C24.7801 181.54 25.0401 182.92 25.2001 184.32H25.4401C25.6801 182.92 25.8801 181.54 26.0401 180.18C26.2001 178.82 26.4001 177.46 26.6401 176.1L29.6401 159.96H35.1601L29.3401 189.3H21.9601L19.0801 176.46C18.8401 175.38 18.6001 174.12 18.3601 172.68C18.1601 171.24 17.9401 169.62 17.7001 167.82H17.4601C17.2601 169.5 17.0401 171.06 16.8001 172.5C16.6001 173.9 16.3801 175.22 16.1401 176.46L13.3201 189.3H6.00008ZM53.4166 189.3V164.76H40.2766V159.96H59.3566V189.3H53.4166ZM55.8766 154.26C54.5966 154.26 53.5366 153.88 52.6966 153.12C51.8566 152.32 51.4366 151.28 51.4366 150C51.4366 148.72 51.8566 147.7 52.6966 146.94C53.5366 146.14 54.5966 145.74 55.8766 145.74C57.1566 145.74 58.2166 146.14 59.0566 146.94C59.8966 147.7 60.3166 148.72 60.3166 150C60.3166 151.28 59.8966 152.32 59.0566 153.12C58.2166 153.88 57.1566 154.26 55.8766 154.26ZM94.1132 190.02C91.1532 190.02 88.8132 189.5 87.0932 188.46C85.4132 187.42 84.2132 185.98 83.4932 184.14C82.7732 182.3 82.4132 180.16 82.4132 177.72V164.76H74.3732V160.32L82.6532 159.96L83.4332 150.72H88.3532V159.96H102.213V164.76H88.3532V177.72C88.3532 179.36 88.5732 180.76 89.0132 181.92C89.4532 183.04 90.1932 183.88 91.2332 184.44C92.2732 184.96 93.6732 185.22 95.4332 185.22C96.7532 185.22 97.9532 185.12 99.0332 184.92C100.113 184.68 101.153 184.38 102.153 184.02L103.353 188.34C102.033 188.78 100.613 189.16 99.0932 189.48C97.6132 189.84 95.9532 190.02 94.1132 190.02ZM111.29 189.3V146.76H117.23V158.04L116.87 164.64H117.05C118.45 163.16 120.01 161.9 121.73 160.86C123.45 159.78 125.43 159.24 127.67 159.24C131.11 159.24 133.63 160.28 135.23 162.36C136.83 164.4 137.63 167.32 137.63 171.12V189.3H131.69V171.9C131.69 169.34 131.21 167.46 130.25 166.26C129.33 165.02 127.77 164.4 125.57 164.4C124.01 164.4 122.61 164.8 121.37 165.6C120.13 166.36 118.75 167.52 117.23 169.08V189.3H111.29ZM197.663 190.02C194.623 190.02 191.883 189.42 189.443 188.22C187.003 187.02 185.063 185.28 183.623 183C182.223 180.68 181.523 177.9 181.523 174.66C181.523 171.42 182.283 168.66 183.803 166.38C185.323 164.06 187.323 162.3 189.803 161.1C192.323 159.86 195.063 159.24 198.023 159.24C200.423 159.24 202.523 159.66 204.323 160.5C206.123 161.3 207.623 162.28 208.823 163.44L205.943 167.22C204.743 166.26 203.523 165.52 202.283 165C201.083 164.44 199.763 164.16 198.323 164.16C196.243 164.16 194.383 164.6 192.743 165.48C191.143 166.36 189.883 167.6 188.963 169.2C188.083 170.76 187.643 172.58 187.643 174.66C187.643 176.78 188.083 178.62 188.963 180.18C189.843 181.74 191.063 182.96 192.623 183.84C194.223 184.72 196.063 185.16 198.143 185.16C199.903 185.16 201.503 184.82 202.943 184.14C204.383 183.46 205.683 182.64 206.843 181.68L209.423 185.52C207.783 186.96 205.943 188.08 203.903 188.88C201.903 189.64 199.823 190.02 197.663 190.02ZM230.439 190.02C227.879 190.02 225.479 189.42 223.239 188.22C221.039 187.02 219.239 185.28 217.839 183C216.479 180.68 215.799 177.9 215.799 174.66C215.799 171.42 216.479 168.66 217.839 166.38C219.239 164.06 221.039 162.3 223.239 161.1C225.479 159.86 227.879 159.24 230.439 159.24C232.999 159.24 235.379 159.86 237.579 161.1C239.819 162.3 241.619 164.06 242.979 166.38C244.379 168.66 245.079 171.42 245.079 174.66C245.079 177.9 244.379 180.68 242.979 183C241.619 185.28 239.819 187.02 237.579 188.22C235.379 189.42 232.999 190.02 230.439 190.02ZM230.439 185.16C232.159 185.16 233.659 184.72 234.939 183.84C236.219 182.96 237.199 181.74 237.879 180.18C238.599 178.62 238.959 176.78 238.959 174.66C238.959 172.58 238.599 170.76 237.879 169.2C237.199 167.6 236.219 166.36 234.939 165.48C233.659 164.6 232.159 164.16 230.439 164.16C228.719 164.16 227.219 164.6 225.939 165.48C224.659 166.36 223.659 167.6 222.939 169.2C222.259 170.76 221.919 172.58 221.919 174.66C221.919 176.78 222.259 178.62 222.939 180.18C223.659 181.74 224.659 182.96 225.939 183.84C227.219 184.72 228.719 185.16 230.439 185.16ZM263.936 190.02C260.136 190.02 257.076 188.68 254.756 186C252.436 183.28 251.276 179.5 251.276 174.66C251.276 171.5 251.896 168.78 253.136 166.5C254.416 164.18 256.056 162.4 258.056 161.16C260.056 159.88 262.176 159.24 264.416 159.24C266.136 159.24 267.676 159.56 269.036 160.2C270.396 160.84 271.656 161.74 272.816 162.9H272.996L272.696 157.68V146.76H278.636V189.3H273.776L273.296 185.7H273.116C271.956 186.86 270.576 187.88 268.976 188.76C267.376 189.6 265.696 190.02 263.936 190.02ZM265.316 185.1C266.636 185.1 267.896 184.78 269.096 184.14C270.336 183.46 271.536 182.46 272.696 181.14V167.22C271.536 166.14 270.376 165.38 269.216 164.94C268.056 164.46 266.896 164.22 265.736 164.22C264.216 164.22 262.816 164.64 261.536 165.48C260.296 166.32 259.296 167.52 258.536 169.08C257.776 170.64 257.396 172.48 257.396 174.6C257.396 177.96 258.096 180.56 259.496 182.4C260.896 184.2 262.836 185.1 265.316 185.1ZM301.753 189.3V164.76H288.613V159.96H307.693V189.3H301.753ZM304.213 154.26C302.933 154.26 301.873 153.88 301.033 153.12C300.193 152.32 299.773 151.28 299.773 150C299.773 148.72 300.193 147.7 301.033 146.94C301.873 146.14 302.933 145.74 304.213 145.74C305.493 145.74 306.553 146.14 307.393 146.94C308.233 147.7 308.653 148.72 308.653 150C308.653 151.28 308.233 152.32 307.393 153.12C306.553 153.88 305.493 154.26 304.213 154.26ZM324.149 189.3V159.96H329.009L329.489 164.7H329.729C331.209 163.18 332.809 161.9 334.529 160.86C336.249 159.78 338.249 159.24 340.529 159.24C343.929 159.24 346.429 160.28 348.029 162.36C349.669 164.4 350.489 167.32 350.489 171.12V189.3H344.549V171.9C344.549 169.34 344.069 167.46 343.109 166.26C342.189 165.02 340.629 164.4 338.429 164.4C336.869 164.4 335.469 164.8 334.229 165.6C332.989 166.36 331.609 167.52 330.089 169.08V189.3H324.149ZM371.806 202.56C369.046 202.56 366.646 202.24 364.606 201.6C362.606 201 361.066 200.1 359.986 198.9C358.906 197.74 358.366 196.3 358.366 194.58C358.366 193.38 358.766 192.22 359.566 191.1C360.366 190.02 361.546 189.06 363.106 188.22V187.98C362.346 187.5 361.646 186.88 361.006 186.12C360.406 185.36 360.106 184.36 360.106 183.12C360.106 182.16 360.406 181.2 361.006 180.24C361.646 179.24 362.506 178.36 363.586 177.6V177.36C362.586 176.6 361.726 175.58 361.006 174.3C360.286 173.02 359.926 171.52 359.926 169.8C359.926 167.6 360.466 165.72 361.546 164.16C362.666 162.6 364.106 161.4 365.866 160.56C367.666 159.68 369.626 159.24 371.746 159.24C373.426 159.24 374.906 159.48 376.186 159.96H388.246V164.64H381.106C381.706 165.28 382.206 166.08 382.606 167.04C383.046 167.96 383.266 168.94 383.266 169.98C383.266 172.14 382.746 173.96 381.706 175.44C380.706 176.92 379.326 178.06 377.566 178.86C375.846 179.62 373.906 180 371.746 180C371.026 180 370.246 179.92 369.406 179.76C368.606 179.6 367.806 179.36 367.006 179.04C366.366 179.48 365.866 179.94 365.506 180.42C365.146 180.9 364.966 181.46 364.966 182.1C364.966 183.14 365.466 183.92 366.466 184.44C367.466 184.92 368.906 185.16 370.786 185.16H377.026C380.826 185.16 383.666 185.7 385.546 186.78C387.466 187.86 388.426 189.66 388.426 192.18C388.426 194.06 387.746 195.78 386.386 197.34C385.026 198.94 383.106 200.2 380.626 201.12C378.146 202.08 375.206 202.56 371.806 202.56ZM371.746 176.16C372.866 176.16 373.886 175.92 374.806 175.44C375.726 174.92 376.466 174.18 377.026 173.22C377.586 172.26 377.866 171.12 377.866 169.8C377.866 168.52 377.586 167.42 377.026 166.5C376.466 165.54 375.726 164.8 374.806 164.28C373.886 163.72 372.866 163.44 371.746 163.44C370.626 163.44 369.586 163.72 368.626 164.28C367.706 164.8 366.966 165.54 366.406 166.5C365.846 167.42 365.566 168.52 365.566 169.8C365.566 171.12 365.846 172.26 366.406 173.22C366.966 174.18 367.706 174.92 368.626 175.44C369.586 175.92 370.626 176.16 371.746 176.16ZM372.406 198.42C374.526 198.42 376.346 198.16 377.866 197.64C379.386 197.16 380.546 196.52 381.346 195.72C382.186 194.96 382.606 194.12 382.606 193.2C382.606 191.88 382.086 191 381.046 190.56C380.006 190.16 378.446 189.96 376.366 189.96H371.146C370.226 189.96 369.406 189.92 368.686 189.84C367.966 189.76 367.306 189.64 366.706 189.48C365.466 190.16 364.586 190.86 364.066 191.58C363.586 192.34 363.346 193.1 363.346 193.86C363.346 195.26 364.126 196.36 365.686 197.16C367.246 198 369.486 198.42 372.406 198.42Z" fill="black"/>
</svg>
