<svg width="301" height="343" viewBox="0 0 301 343" fill="none" xmlns="http://www.w3.org/2000/svg">
<rect width="301" height="343" rx="14" fill="white"/>
<path d="M21.128 216V193.832H35.816V198.048H26.16V202.502H34.354V206.684H26.16V211.784H36.156V216H21.128ZM46.2527 216.408C45.1194 216.408 44.1334 216.181 43.2947 215.728C42.4787 215.275 41.8441 214.663 41.3907 213.892C40.9374 213.121 40.7107 212.26 40.7107 211.308C40.7107 209.427 41.5607 207.987 43.2607 206.99C44.9834 205.993 47.8394 205.381 51.8287 205.154C51.7607 204.633 51.5907 204.191 51.3187 203.828C51.0467 203.465 50.6501 203.193 50.1287 203.012C49.6301 202.808 48.9954 202.706 48.2247 202.706C47.6807 202.706 47.1367 202.774 46.5927 202.91C46.0487 203.023 45.4821 203.205 44.8927 203.454C44.3261 203.681 43.7254 203.953 43.0907 204.27L41.3227 201.006C42.0934 200.553 42.8981 200.156 43.7367 199.816C44.5981 199.476 45.4821 199.215 46.3887 199.034C47.3181 198.83 48.2587 198.728 49.2107 198.728C50.7974 198.728 52.1574 199.011 53.2907 199.578C54.4241 200.122 55.2967 200.961 55.9087 202.094C56.5207 203.205 56.8267 204.621 56.8267 206.344V216H52.7467L52.3727 214.096H52.2367C51.3981 214.731 50.4687 215.275 49.4487 215.728C48.4287 216.181 47.3634 216.408 46.2527 216.408ZM47.8507 212.532C48.5987 212.532 49.3014 212.385 49.9587 212.09C50.6161 211.773 51.2394 211.387 51.8287 210.934V208.146C50.1741 208.237 48.8821 208.407 47.9527 208.656C47.0461 208.905 46.4114 209.223 46.0487 209.608C45.6861 209.993 45.5047 210.435 45.5047 210.934C45.5047 211.274 45.5954 211.569 45.7767 211.818C45.9807 212.067 46.2527 212.249 46.5927 212.362C46.9554 212.475 47.3747 212.532 47.8507 212.532ZM69.3374 216.408C67.8414 216.408 66.3568 216.159 64.8834 215.66C63.4101 215.139 62.1408 214.527 61.0754 213.824L63.2174 210.696C64.2374 211.353 65.3141 211.852 66.4474 212.192C67.6034 212.532 68.7934 212.702 70.0174 212.702C70.9468 212.702 71.6268 212.566 72.0574 212.294C72.4881 211.999 72.7034 211.659 72.7034 211.274C72.7034 211.025 72.6354 210.821 72.4994 210.662C72.3861 210.481 72.1708 210.322 71.8534 210.186C71.5588 210.027 71.1394 209.88 70.5954 209.744C70.0741 209.608 69.3941 209.449 68.5554 209.268C66.2661 208.769 64.6228 208.089 63.6254 207.228C62.6281 206.367 62.1294 205.29 62.1294 203.998C62.1294 202.411 62.8208 201.142 64.2034 200.19C65.5861 199.215 67.4788 198.728 69.8814 198.728C71.4001 198.728 72.7714 198.977 73.9954 199.476C75.2421 199.952 76.3074 200.473 77.1914 201.04L74.9474 204.032C74.1088 203.511 73.2134 203.114 72.2614 202.842C71.3094 202.57 70.3688 202.434 69.4394 202.434C68.9181 202.434 68.4874 202.491 68.1474 202.604C67.8074 202.695 67.5468 202.853 67.3654 203.08C67.1841 203.284 67.0934 203.511 67.0934 203.76C67.0934 204.213 67.3881 204.553 67.9774 204.78C68.5668 204.984 69.5754 205.245 71.0034 205.562C72.7261 205.947 74.0748 206.389 75.0494 206.888C76.0241 207.387 76.6928 207.965 77.0554 208.622C77.4408 209.257 77.6334 210.039 77.6334 210.968C77.6334 211.988 77.3161 212.906 76.6814 213.722C76.0694 214.538 75.1401 215.195 73.8934 215.694C72.6694 216.17 71.1508 216.408 69.3374 216.408ZM84.7722 222.596C84.2735 222.596 83.8088 222.562 83.3782 222.494C82.9475 222.426 82.5508 222.347 82.1882 222.256L83.0722 218.448C83.2988 218.516 83.5255 218.561 83.7522 218.584C83.9788 218.629 84.1942 218.652 84.3982 218.652C85.3728 218.652 86.1322 218.437 86.6762 218.006C87.2428 217.598 87.6622 217.077 87.9342 216.442L88.2742 215.558L80.9642 199.136H85.9282L88.7502 206.378C89.0675 207.171 89.3622 207.999 89.6342 208.86C89.9062 209.699 90.1782 210.56 90.4502 211.444H90.5862C90.8128 210.605 91.0622 209.755 91.3342 208.894C91.6062 208.033 91.8668 207.194 92.1162 206.378L94.5982 199.136H99.3242L92.6602 216.17C92.1388 217.575 91.5268 218.754 90.8242 219.706C90.1442 220.658 89.3168 221.372 88.3422 221.848C87.3902 222.347 86.2002 222.596 84.7722 222.596ZM121.49 216L128.392 193.832H134.376L141.278 216H135.974L133.118 204.78C132.846 203.669 132.551 202.491 132.234 201.244C131.916 199.997 131.622 198.796 131.35 197.64H131.214C130.942 198.796 130.658 199.997 130.364 201.244C130.069 202.491 129.774 203.669 129.48 204.78L126.59 216H121.49ZM126.046 210.73V206.82H136.654V210.73H126.046ZM153.482 216.408C151.714 216.408 150.116 216.068 148.688 215.388C147.283 214.685 146.161 213.677 145.322 212.362C144.506 211.025 144.098 209.427 144.098 207.568C144.098 205.709 144.552 204.123 145.458 202.808C146.365 201.471 147.555 200.462 149.028 199.782C150.524 199.079 152.134 198.728 153.856 198.728C155.194 198.728 156.406 198.943 157.494 199.374C158.582 199.782 159.478 200.326 160.18 201.006L157.868 204.1C157.211 203.647 156.576 203.318 155.964 203.114C155.375 202.887 154.763 202.774 154.128 202.774C153.176 202.774 152.326 202.967 151.578 203.352C150.83 203.737 150.252 204.293 149.844 205.018C149.436 205.743 149.232 206.593 149.232 207.568C149.232 208.543 149.425 209.393 149.81 210.118C150.218 210.843 150.774 211.399 151.476 211.784C152.202 212.169 153.029 212.362 153.958 212.362C154.842 212.362 155.647 212.203 156.372 211.886C157.12 211.569 157.8 211.195 158.412 210.764L160.418 213.926C159.421 214.765 158.299 215.388 157.052 215.796C155.828 216.204 154.638 216.408 153.482 216.408ZM174.119 216.408C172.351 216.408 170.753 216.068 169.325 215.388C167.92 214.685 166.798 213.677 165.959 212.362C165.143 211.025 164.735 209.427 164.735 207.568C164.735 205.709 165.188 204.123 166.095 202.808C167.002 201.471 168.192 200.462 169.665 199.782C171.161 199.079 172.77 198.728 174.493 198.728C175.83 198.728 177.043 198.943 178.131 199.374C179.219 199.782 180.114 200.326 180.817 201.006L178.505 204.1C177.848 203.647 177.213 203.318 176.601 203.114C176.012 202.887 175.4 202.774 174.765 202.774C173.813 202.774 172.963 202.967 172.215 203.352C171.467 203.737 170.889 204.293 170.481 205.018C170.073 205.743 169.869 206.593 169.869 207.568C169.869 208.543 170.062 209.393 170.447 210.118C170.855 210.843 171.41 211.399 172.113 211.784C172.838 212.169 173.666 212.362 174.595 212.362C175.479 212.362 176.284 212.203 177.009 211.886C177.757 211.569 178.437 211.195 179.049 210.764L181.055 213.926C180.058 214.765 178.936 215.388 177.689 215.796C176.465 216.204 175.275 216.408 174.119 216.408ZM194.314 216.408C192.568 216.408 190.982 216.068 189.554 215.388C188.148 214.685 187.026 213.677 186.188 212.362C185.372 211.025 184.964 209.427 184.964 207.568C184.964 205.732 185.383 204.157 186.222 202.842C187.06 201.505 188.148 200.485 189.486 199.782C190.823 199.079 192.24 198.728 193.736 198.728C195.481 198.728 196.943 199.091 198.122 199.816C199.3 200.519 200.184 201.482 200.774 202.706C201.386 203.907 201.692 205.279 201.692 206.82C201.692 207.273 201.658 207.715 201.59 208.146C201.544 208.554 201.499 208.86 201.454 209.064H188.67V205.698H198.088L197.306 206.65C197.306 205.29 197.011 204.27 196.422 203.59C195.855 202.887 195.016 202.536 193.906 202.536C193.09 202.536 192.376 202.717 191.764 203.08C191.152 203.443 190.676 203.998 190.336 204.746C189.996 205.494 189.826 206.435 189.826 207.568C189.826 208.724 190.03 209.676 190.438 210.424C190.846 211.149 191.435 211.693 192.206 212.056C192.976 212.419 193.906 212.6 194.994 212.6C195.764 212.6 196.49 212.498 197.17 212.294C197.872 212.09 198.598 211.795 199.346 211.41L201.012 214.436C200.037 215.048 198.96 215.535 197.782 215.898C196.603 216.238 195.447 216.408 194.314 216.408ZM213.794 216.408C212.298 216.408 210.814 216.159 209.34 215.66C207.867 215.139 206.598 214.527 205.532 213.824L207.674 210.696C208.694 211.353 209.771 211.852 210.904 212.192C212.06 212.532 213.25 212.702 214.474 212.702C215.404 212.702 216.084 212.566 216.514 212.294C216.945 211.999 217.16 211.659 217.16 211.274C217.16 211.025 217.092 210.821 216.956 210.662C216.843 210.481 216.628 210.322 216.31 210.186C216.016 210.027 215.596 209.88 215.052 209.744C214.531 209.608 213.851 209.449 213.012 209.268C210.723 208.769 209.08 208.089 208.082 207.228C207.085 206.367 206.586 205.29 206.586 203.998C206.586 202.411 207.278 201.142 208.66 200.19C210.043 199.215 211.936 198.728 214.338 198.728C215.857 198.728 217.228 198.977 218.452 199.476C219.699 199.952 220.764 200.473 221.648 201.04L219.404 204.032C218.566 203.511 217.67 203.114 216.718 202.842C215.766 202.57 214.826 202.434 213.896 202.434C213.375 202.434 212.944 202.491 212.604 202.604C212.264 202.695 212.004 202.853 211.822 203.08C211.641 203.284 211.55 203.511 211.55 203.76C211.55 204.213 211.845 204.553 212.434 204.78C213.024 204.984 214.032 205.245 215.46 205.562C217.183 205.947 218.532 206.389 219.506 206.888C220.481 207.387 221.15 207.965 221.512 208.622C221.898 209.257 222.09 210.039 222.09 210.968C222.09 211.988 221.773 212.906 221.138 213.722C220.526 214.538 219.597 215.195 218.35 215.694C217.126 216.17 215.608 216.408 213.794 216.408ZM234.431 216.408C232.935 216.408 231.451 216.159 229.977 215.66C228.504 215.139 227.235 214.527 226.169 213.824L228.311 210.696C229.331 211.353 230.408 211.852 231.541 212.192C232.697 212.532 233.887 212.702 235.111 212.702C236.041 212.702 236.721 212.566 237.151 212.294C237.582 211.999 237.797 211.659 237.797 211.274C237.797 211.025 237.729 210.821 237.593 210.662C237.48 210.481 237.265 210.322 236.947 210.186C236.653 210.027 236.233 209.88 235.689 209.744C235.168 209.608 234.488 209.449 233.649 209.268C231.36 208.769 229.717 208.089 228.719 207.228C227.722 206.367 227.223 205.29 227.223 203.998C227.223 202.411 227.915 201.142 229.297 200.19C230.68 199.215 232.573 198.728 234.975 198.728C236.494 198.728 237.865 198.977 239.089 199.476C240.336 199.952 241.401 200.473 242.285 201.04L240.041 204.032C239.203 203.511 238.307 203.114 237.355 202.842C236.403 202.57 235.463 202.434 234.533 202.434C234.012 202.434 233.581 202.491 233.241 202.604C232.901 202.695 232.641 202.853 232.459 203.08C232.278 203.284 232.187 203.511 232.187 203.76C232.187 204.213 232.482 204.553 233.071 204.78C233.661 204.984 234.669 205.245 236.097 205.562C237.82 205.947 239.169 206.389 240.143 206.888C241.118 207.387 241.787 207.965 242.149 208.622C242.535 209.257 242.727 210.039 242.727 210.968C242.727 211.988 242.41 212.906 241.775 213.722C241.163 214.538 240.234 215.195 238.987 215.694C237.763 216.17 236.245 216.408 234.431 216.408Z" fill="black"/>
<path d="M26.1875 253.383H27.6875C27.6094 254.102 27.4036 254.745 27.0703 255.312C26.737 255.88 26.2656 256.331 25.6562 256.664C25.0469 256.992 24.2865 257.156 23.375 257.156C22.7083 257.156 22.1016 257.031 21.5547 256.781C21.013 256.531 20.5469 256.177 20.1562 255.719C19.7656 255.255 19.4635 254.701 19.25 254.055C19.0417 253.404 18.9375 252.68 18.9375 251.883V250.75C18.9375 249.953 19.0417 249.232 19.25 248.586C19.4635 247.935 19.7682 247.378 20.1641 246.914C20.5651 246.451 21.0469 246.094 21.6094 245.844C22.1719 245.594 22.8047 245.469 23.5078 245.469C24.3672 245.469 25.0938 245.63 25.6875 245.953C26.2812 246.276 26.7422 246.724 27.0703 247.297C27.4036 247.865 27.6094 248.523 27.6875 249.273H26.1875C26.1146 248.742 25.9792 248.286 25.7812 247.906C25.5833 247.521 25.3021 247.224 24.9375 247.016C24.5729 246.807 24.0964 246.703 23.5078 246.703C23.0026 246.703 22.5573 246.799 22.1719 246.992C21.7917 247.185 21.4714 247.458 21.2109 247.812C20.9557 248.167 20.763 248.591 20.6328 249.086C20.5026 249.581 20.4375 250.13 20.4375 250.734V251.883C20.4375 252.44 20.4948 252.964 20.6094 253.453C20.7292 253.943 20.9089 254.372 21.1484 254.742C21.388 255.112 21.6927 255.404 22.0625 255.617C22.4323 255.826 22.8698 255.93 23.375 255.93C24.0156 255.93 24.526 255.828 24.9062 255.625C25.2865 255.422 25.5729 255.13 25.7656 254.75C25.9635 254.37 26.1042 253.914 26.1875 253.383ZM29.2406 252.867V252.688C29.2406 252.078 29.3292 251.513 29.5063 250.992C29.6833 250.466 29.9385 250.01 30.2719 249.625C30.6052 249.234 31.0089 248.932 31.4828 248.719C31.9568 248.5 32.488 248.391 33.0766 248.391C33.6703 248.391 34.2042 248.5 34.6781 248.719C35.1573 248.932 35.5635 249.234 35.8969 249.625C36.2354 250.01 36.4932 250.466 36.6703 250.992C36.8474 251.513 36.9359 252.078 36.9359 252.688V252.867C36.9359 253.477 36.8474 254.042 36.6703 254.562C36.4932 255.083 36.2354 255.539 35.8969 255.93C35.5635 256.315 35.1599 256.617 34.6859 256.836C34.2172 257.049 33.6859 257.156 33.0922 257.156C32.4984 257.156 31.9646 257.049 31.4906 256.836C31.0167 256.617 30.6104 256.315 30.2719 255.93C29.9385 255.539 29.6833 255.083 29.5063 254.562C29.3292 254.042 29.2406 253.477 29.2406 252.867ZM30.6859 252.688V252.867C30.6859 253.289 30.7354 253.688 30.8344 254.062C30.9333 254.432 31.0818 254.76 31.2797 255.047C31.4828 255.333 31.7354 255.56 32.0375 255.727C32.3396 255.888 32.6911 255.969 33.0922 255.969C33.488 255.969 33.8344 255.888 34.1313 255.727C34.4333 255.56 34.6833 255.333 34.8813 255.047C35.0792 254.76 35.2276 254.432 35.3266 254.062C35.4307 253.688 35.4828 253.289 35.4828 252.867V252.688C35.4828 252.271 35.4307 251.878 35.3266 251.508C35.2276 251.133 35.0766 250.802 34.8734 250.516C34.6755 250.224 34.4255 249.995 34.1234 249.828C33.8266 249.661 33.4776 249.578 33.0766 249.578C32.6807 249.578 32.3318 249.661 32.0297 249.828C31.7328 249.995 31.4828 250.224 31.2797 250.516C31.0818 250.802 30.9333 251.133 30.8344 251.508C30.7354 251.878 30.6859 252.271 30.6859 252.688ZM40.2938 250.352V257H38.8484V248.547H40.2156L40.2938 250.352ZM39.95 252.453L39.3484 252.43C39.3536 251.852 39.4396 251.318 39.6063 250.828C39.7729 250.333 40.0073 249.904 40.3094 249.539C40.6115 249.174 40.9708 248.893 41.3875 248.695C41.8094 248.492 42.2755 248.391 42.7859 248.391C43.2026 248.391 43.5776 248.448 43.9109 248.562C44.2443 248.672 44.5281 248.849 44.7625 249.094C45.0021 249.339 45.1844 249.656 45.3094 250.047C45.4344 250.432 45.4969 250.904 45.4969 251.461V257H44.0438V251.445C44.0438 251.003 43.9786 250.648 43.8484 250.383C43.7182 250.112 43.5281 249.917 43.2781 249.797C43.0281 249.672 42.7208 249.609 42.3563 249.609C41.9969 249.609 41.6688 249.685 41.3719 249.836C41.0802 249.987 40.8276 250.195 40.6141 250.461C40.4057 250.727 40.2417 251.031 40.1219 251.375C40.0073 251.714 39.95 252.073 39.95 252.453ZM49.2375 250.352V257H47.7922V248.547H49.1594L49.2375 250.352ZM48.8937 252.453L48.2922 252.43C48.2974 251.852 48.3833 251.318 48.55 250.828C48.7167 250.333 48.951 249.904 49.2531 249.539C49.5552 249.174 49.9146 248.893 50.3312 248.695C50.7531 248.492 51.2193 248.391 51.7297 248.391C52.1464 248.391 52.5214 248.448 52.8547 248.562C53.188 248.672 53.4719 248.849 53.7062 249.094C53.9458 249.339 54.1281 249.656 54.2531 250.047C54.3781 250.432 54.4406 250.904 54.4406 251.461V257H52.9875V251.445C52.9875 251.003 52.9224 250.648 52.7922 250.383C52.662 250.112 52.4719 249.917 52.2219 249.797C51.9719 249.672 51.6646 249.609 51.3 249.609C50.9406 249.609 50.6125 249.685 50.3156 249.836C50.024 249.987 49.7714 250.195 49.5578 250.461C49.3495 250.727 49.1854 251.031 49.0656 251.375C48.951 251.714 48.8937 252.073 48.8937 252.453ZM60.2438 257.156C59.6552 257.156 59.1214 257.057 58.6422 256.859C58.1682 256.656 57.7594 256.372 57.4156 256.008C57.0771 255.643 56.8167 255.211 56.6344 254.711C56.4521 254.211 56.3609 253.664 56.3609 253.07V252.742C56.3609 252.055 56.4625 251.443 56.6656 250.906C56.8688 250.365 57.1448 249.906 57.4938 249.531C57.8427 249.156 58.2385 248.872 58.6813 248.68C59.124 248.487 59.5823 248.391 60.0563 248.391C60.6604 248.391 61.1813 248.495 61.6188 248.703C62.0615 248.911 62.4234 249.203 62.7047 249.578C62.9859 249.948 63.1943 250.385 63.3297 250.891C63.4651 251.391 63.5328 251.938 63.5328 252.531V253.18H57.2203V252H62.0875V251.891C62.0667 251.516 61.9885 251.151 61.8531 250.797C61.7229 250.443 61.5146 250.151 61.2281 249.922C60.9417 249.693 60.551 249.578 60.0563 249.578C59.7281 249.578 59.426 249.648 59.15 249.789C58.874 249.924 58.637 250.128 58.4391 250.398C58.2411 250.669 58.0875 251 57.9781 251.391C57.8688 251.781 57.8141 252.232 57.8141 252.742V253.07C57.8141 253.471 57.8688 253.849 57.9781 254.203C58.0927 254.552 58.2568 254.859 58.4703 255.125C58.6891 255.391 58.9521 255.599 59.2594 255.75C59.5719 255.901 59.926 255.977 60.3219 255.977C60.8323 255.977 61.2646 255.872 61.6188 255.664C61.9729 255.456 62.2828 255.177 62.5484 254.828L63.4234 255.523C63.2411 255.799 63.0094 256.062 62.7281 256.312C62.4469 256.562 62.1005 256.766 61.6891 256.922C61.2828 257.078 60.801 257.156 60.2438 257.156ZM68.7031 255.969C69.0469 255.969 69.3646 255.898 69.6562 255.758C69.9479 255.617 70.1875 255.424 70.375 255.18C70.5625 254.93 70.6693 254.646 70.6953 254.328H72.0703C72.0443 254.828 71.875 255.294 71.5625 255.727C71.2552 256.154 70.8516 256.5 70.3516 256.766C69.8516 257.026 69.3021 257.156 68.7031 257.156C68.0677 257.156 67.513 257.044 67.0391 256.82C66.5703 256.596 66.1797 256.289 65.8672 255.898C65.5599 255.508 65.3281 255.06 65.1719 254.555C65.0208 254.044 64.9453 253.505 64.9453 252.938V252.609C64.9453 252.042 65.0208 251.505 65.1719 251C65.3281 250.49 65.5599 250.039 65.8672 249.648C66.1797 249.258 66.5703 248.951 67.0391 248.727C67.513 248.503 68.0677 248.391 68.7031 248.391C69.3646 248.391 69.9427 248.526 70.4375 248.797C70.9323 249.062 71.3203 249.427 71.6016 249.891C71.888 250.349 72.0443 250.87 72.0703 251.453H70.6953C70.6693 251.104 70.5703 250.789 70.3984 250.508C70.2318 250.227 70.0026 250.003 69.7109 249.836C69.4245 249.664 69.0885 249.578 68.7031 249.578C68.2604 249.578 67.888 249.667 67.5859 249.844C67.2891 250.016 67.0521 250.25 66.875 250.547C66.7031 250.839 66.5781 251.164 66.5 251.523C66.4271 251.878 66.3906 252.24 66.3906 252.609V252.938C66.3906 253.307 66.4271 253.672 66.5 254.031C66.5729 254.391 66.6953 254.716 66.8672 255.008C67.0443 255.299 67.2812 255.534 67.5781 255.711C67.8802 255.883 68.2552 255.969 68.7031 255.969ZM77.3344 248.547V249.656H72.7641V248.547H77.3344ZM74.3109 246.492H75.7562V254.906C75.7562 255.193 75.8005 255.409 75.8891 255.555C75.9776 255.701 76.0922 255.797 76.2328 255.844C76.3734 255.891 76.5245 255.914 76.6859 255.914C76.8057 255.914 76.9307 255.904 77.0609 255.883C77.1964 255.857 77.2979 255.836 77.3656 255.82L77.3734 257C77.2589 257.036 77.1078 257.07 76.9203 257.102C76.738 257.138 76.5167 257.156 76.2562 257.156C75.9021 257.156 75.5766 257.086 75.2797 256.945C74.9828 256.805 74.7458 256.57 74.5687 256.242C74.3969 255.909 74.3109 255.461 74.3109 254.898V246.492ZM85.5734 256.125L87.925 248.547H89.4719L86.0813 258.305C86.0031 258.513 85.899 258.737 85.7688 258.977C85.6438 259.221 85.4823 259.453 85.2844 259.672C85.0865 259.891 84.8469 260.068 84.5656 260.203C84.2896 260.344 83.9589 260.414 83.5734 260.414C83.4589 260.414 83.313 260.398 83.1359 260.367C82.9589 260.336 82.8339 260.31 82.7609 260.289L82.7531 259.117C82.7948 259.122 82.8599 259.128 82.9484 259.133C83.0422 259.143 83.1073 259.148 83.1438 259.148C83.4719 259.148 83.7505 259.104 83.9797 259.016C84.2089 258.932 84.4016 258.789 84.5578 258.586C84.7193 258.388 84.8573 258.115 84.9719 257.766L85.5734 256.125ZM83.8469 248.547L86.0422 255.109L86.4172 256.633L85.3781 257.164L82.2688 248.547H83.8469ZM90.3688 252.867V252.688C90.3688 252.078 90.4573 251.513 90.6344 250.992C90.8115 250.466 91.0667 250.01 91.4 249.625C91.7333 249.234 92.137 248.932 92.6109 248.719C93.0849 248.5 93.6161 248.391 94.2047 248.391C94.7984 248.391 95.3323 248.5 95.8063 248.719C96.2854 248.932 96.6917 249.234 97.025 249.625C97.3635 250.01 97.6214 250.466 97.7984 250.992C97.9755 251.513 98.0641 252.078 98.0641 252.688V252.867C98.0641 253.477 97.9755 254.042 97.7984 254.562C97.6214 255.083 97.3635 255.539 97.025 255.93C96.6917 256.315 96.288 256.617 95.8141 256.836C95.3453 257.049 94.8141 257.156 94.2203 257.156C93.6266 257.156 93.0927 257.049 92.6188 256.836C92.1448 256.617 91.7385 256.315 91.4 255.93C91.0667 255.539 90.8115 255.083 90.6344 254.562C90.4573 254.042 90.3688 253.477 90.3688 252.867ZM91.8141 252.688V252.867C91.8141 253.289 91.8635 253.688 91.9625 254.062C92.0615 254.432 92.2099 254.76 92.4078 255.047C92.6109 255.333 92.8635 255.56 93.1656 255.727C93.4677 255.888 93.8193 255.969 94.2203 255.969C94.6161 255.969 94.9625 255.888 95.2594 255.727C95.5615 255.56 95.8115 255.333 96.0094 255.047C96.2073 254.76 96.3557 254.432 96.4547 254.062C96.5589 253.688 96.6109 253.289 96.6109 252.867V252.688C96.6109 252.271 96.5589 251.878 96.4547 251.508C96.3557 251.133 96.2047 250.802 96.0016 250.516C95.8036 250.224 95.5536 249.995 95.2516 249.828C94.9547 249.661 94.6057 249.578 94.2047 249.578C93.8089 249.578 93.4599 249.661 93.1578 249.828C92.8609 249.995 92.6109 250.224 92.4078 250.516C92.2099 250.802 92.0615 251.133 91.9625 251.508C91.8635 251.878 91.8141 252.271 91.8141 252.688ZM105.148 255.047V248.547H106.602V257H105.219L105.148 255.047ZM105.422 253.266L106.023 253.25C106.023 253.812 105.964 254.333 105.844 254.812C105.729 255.286 105.542 255.698 105.281 256.047C105.021 256.396 104.68 256.669 104.258 256.867C103.836 257.06 103.323 257.156 102.719 257.156C102.307 257.156 101.93 257.096 101.586 256.977C101.247 256.857 100.956 256.672 100.711 256.422C100.466 256.172 100.276 255.846 100.141 255.445C100.01 255.044 99.9453 254.562 99.9453 254V248.547H101.391V254.016C101.391 254.396 101.432 254.711 101.516 254.961C101.604 255.206 101.721 255.401 101.867 255.547C102.018 255.688 102.185 255.786 102.367 255.844C102.555 255.901 102.747 255.93 102.945 255.93C103.56 255.93 104.047 255.812 104.406 255.578C104.766 255.339 105.023 255.018 105.18 254.617C105.341 254.211 105.422 253.76 105.422 253.266ZM110.35 249.875V257H108.905V248.547H110.311L110.35 249.875ZM112.991 248.5L112.983 249.844C112.863 249.818 112.748 249.802 112.639 249.797C112.535 249.786 112.415 249.781 112.28 249.781C111.946 249.781 111.652 249.833 111.397 249.938C111.142 250.042 110.926 250.188 110.748 250.375C110.571 250.562 110.431 250.786 110.327 251.047C110.228 251.302 110.162 251.583 110.131 251.891L109.725 252.125C109.725 251.615 109.774 251.135 109.873 250.688C109.978 250.24 110.136 249.844 110.35 249.5C110.564 249.151 110.834 248.88 111.162 248.688C111.496 248.49 111.892 248.391 112.35 248.391C112.454 248.391 112.574 248.404 112.709 248.43C112.845 248.451 112.939 248.474 112.991 248.5ZM20.5391 272.227V279H19.0859V270.547H20.4609L20.5391 272.227ZM20.2422 274.453L19.5703 274.43C19.5755 273.852 19.651 273.318 19.7969 272.828C19.9427 272.333 20.1589 271.904 20.4453 271.539C20.7318 271.174 21.0885 270.893 21.5156 270.695C21.9427 270.492 22.4375 270.391 23 270.391C23.3958 270.391 23.7604 270.448 24.0938 270.562C24.4271 270.672 24.7161 270.846 24.9609 271.086C25.2057 271.326 25.3958 271.633 25.5312 272.008C25.6667 272.383 25.7344 272.836 25.7344 273.367V279H24.2891V273.438C24.2891 272.995 24.2135 272.641 24.0625 272.375C23.9167 272.109 23.7083 271.917 23.4375 271.797C23.1667 271.672 22.849 271.609 22.4844 271.609C22.0573 271.609 21.7005 271.685 21.4141 271.836C21.1276 271.987 20.8984 272.195 20.7266 272.461C20.5547 272.727 20.4297 273.031 20.3516 273.375C20.2786 273.714 20.2422 274.073 20.2422 274.453ZM25.7188 273.656L24.75 273.953C24.7552 273.49 24.8307 273.044 24.9766 272.617C25.1276 272.19 25.3438 271.81 25.625 271.477C25.9115 271.143 26.263 270.88 26.6797 270.688C27.0964 270.49 27.5729 270.391 28.1094 270.391C28.5625 270.391 28.9635 270.451 29.3125 270.57C29.6667 270.69 29.9635 270.875 30.2031 271.125C30.4479 271.37 30.6328 271.685 30.7578 272.07C30.8828 272.456 30.9453 272.914 30.9453 273.445V279H29.4922V273.43C29.4922 272.956 29.4167 272.589 29.2656 272.328C29.1198 272.062 28.9115 271.878 28.6406 271.773C28.375 271.664 28.0573 271.609 27.6875 271.609C27.3698 271.609 27.0885 271.664 26.8438 271.773C26.599 271.883 26.3932 272.034 26.2266 272.227C26.0599 272.414 25.9323 272.63 25.8438 272.875C25.7604 273.12 25.7188 273.38 25.7188 273.656ZM38.2172 277.555V273.203C38.2172 272.87 38.1495 272.581 38.0141 272.336C37.8839 272.086 37.6859 271.893 37.4203 271.758C37.1547 271.622 36.8266 271.555 36.4359 271.555C36.0714 271.555 35.751 271.617 35.475 271.742C35.2042 271.867 34.9906 272.031 34.8344 272.234C34.6833 272.438 34.6078 272.656 34.6078 272.891H33.1625C33.1625 272.589 33.2406 272.289 33.3969 271.992C33.5531 271.695 33.7771 271.427 34.0688 271.188C34.3656 270.943 34.7198 270.75 35.1313 270.609C35.5479 270.464 36.0115 270.391 36.5219 270.391C37.1365 270.391 37.6781 270.495 38.1469 270.703C38.6208 270.911 38.9906 271.227 39.2563 271.648C39.5271 272.065 39.6625 272.589 39.6625 273.219V277.156C39.6625 277.438 39.6859 277.737 39.7328 278.055C39.7849 278.372 39.8604 278.646 39.9594 278.875V279H38.4516C38.3786 278.833 38.3214 278.612 38.2797 278.336C38.238 278.055 38.2172 277.794 38.2172 277.555ZM38.4672 273.875L38.4828 274.891H37.0219C36.6104 274.891 36.2432 274.924 35.9203 274.992C35.5974 275.055 35.3266 275.151 35.1078 275.281C34.8891 275.411 34.7224 275.576 34.6078 275.773C34.4932 275.966 34.4359 276.193 34.4359 276.453C34.4359 276.719 34.4958 276.961 34.6156 277.18C34.7354 277.398 34.9151 277.573 35.1547 277.703C35.3995 277.828 35.699 277.891 36.0531 277.891C36.4958 277.891 36.8865 277.797 37.225 277.609C37.5635 277.422 37.8318 277.193 38.0297 276.922C38.2328 276.651 38.3422 276.388 38.3578 276.133L38.975 276.828C38.9385 277.047 38.8396 277.289 38.6781 277.555C38.5167 277.82 38.3005 278.076 38.0297 278.32C37.7641 278.56 37.4464 278.76 37.0766 278.922C36.712 279.078 36.3005 279.156 35.8422 279.156C35.2693 279.156 34.7667 279.044 34.3344 278.82C33.9073 278.596 33.574 278.297 33.3344 277.922C33.1 277.542 32.9828 277.117 32.9828 276.648C32.9828 276.195 33.0714 275.797 33.2484 275.453C33.4255 275.104 33.6807 274.815 34.0141 274.586C34.3474 274.352 34.7484 274.174 35.2172 274.055C35.6859 273.935 36.2094 273.875 36.7875 273.875H38.4672ZM43.4813 271.875V279H42.0359V270.547H43.4422L43.4813 271.875ZM46.1219 270.5L46.1141 271.844C45.9943 271.818 45.8797 271.802 45.7703 271.797C45.6661 271.786 45.5464 271.781 45.4109 271.781C45.0776 271.781 44.7833 271.833 44.5281 271.938C44.2729 272.042 44.0568 272.188 43.8797 272.375C43.7026 272.562 43.562 272.786 43.4578 273.047C43.3589 273.302 43.2938 273.583 43.2625 273.891L42.8563 274.125C42.8563 273.615 42.9057 273.135 43.0047 272.688C43.1089 272.24 43.2677 271.844 43.4813 271.5C43.6948 271.151 43.9656 270.88 44.2938 270.688C44.6271 270.49 45.0229 270.391 45.4813 270.391C45.5854 270.391 45.7052 270.404 45.8406 270.43C45.976 270.451 46.0698 270.474 46.1219 270.5ZM49.0109 267V279H47.5578V267H49.0109ZM54.175 270.547L50.4875 274.492L48.425 276.633L48.3078 275.094L49.7844 273.328L52.4094 270.547H54.175ZM52.8547 279L49.8391 274.969L50.5891 273.68L54.5578 279H52.8547ZM59.1188 279.156C58.5302 279.156 57.9964 279.057 57.5172 278.859C57.0432 278.656 56.6344 278.372 56.2906 278.008C55.9521 277.643 55.6917 277.211 55.5094 276.711C55.3271 276.211 55.2359 275.664 55.2359 275.07V274.742C55.2359 274.055 55.3375 273.443 55.5406 272.906C55.7438 272.365 56.0198 271.906 56.3688 271.531C56.7177 271.156 57.1135 270.872 57.5563 270.68C57.999 270.487 58.4573 270.391 58.9313 270.391C59.5354 270.391 60.0563 270.495 60.4938 270.703C60.9365 270.911 61.2984 271.203 61.5797 271.578C61.8609 271.948 62.0693 272.385 62.2047 272.891C62.3401 273.391 62.4078 273.938 62.4078 274.531V275.18H56.0953V274H60.9625V273.891C60.9417 273.516 60.8635 273.151 60.7281 272.797C60.5979 272.443 60.3896 272.151 60.1031 271.922C59.8167 271.693 59.426 271.578 58.9313 271.578C58.6031 271.578 58.301 271.648 58.025 271.789C57.749 271.924 57.512 272.128 57.3141 272.398C57.1161 272.669 56.9625 273 56.8531 273.391C56.7438 273.781 56.6891 274.232 56.6891 274.742V275.07C56.6891 275.471 56.7438 275.849 56.8531 276.203C56.9677 276.552 57.1318 276.859 57.3453 277.125C57.5641 277.391 57.8271 277.599 58.1344 277.75C58.4469 277.901 58.801 277.977 59.1969 277.977C59.7073 277.977 60.1396 277.872 60.4938 277.664C60.8479 277.456 61.1578 277.177 61.4234 276.828L62.2984 277.523C62.1161 277.799 61.8844 278.062 61.6031 278.312C61.3219 278.562 60.9755 278.766 60.5641 278.922C60.1578 279.078 59.676 279.156 59.1188 279.156ZM67.7344 270.547V271.656H63.1641V270.547H67.7344ZM64.7109 268.492H66.1562V276.906C66.1562 277.193 66.2005 277.409 66.2891 277.555C66.3776 277.701 66.4922 277.797 66.6328 277.844C66.7734 277.891 66.9245 277.914 67.0859 277.914C67.2057 277.914 67.3307 277.904 67.4609 277.883C67.5964 277.857 67.6979 277.836 67.7656 277.82L67.7734 279C67.6589 279.036 67.5078 279.07 67.3203 279.102C67.138 279.138 66.9167 279.156 66.6562 279.156C66.3021 279.156 65.9766 279.086 65.6797 278.945C65.3828 278.805 65.1458 278.57 64.9688 278.242C64.7969 277.909 64.7109 277.461 64.7109 276.898V268.492ZM71.1 270.547V279H69.6469V270.547H71.1ZM69.5375 268.305C69.5375 268.07 69.6078 267.872 69.7484 267.711C69.8943 267.549 70.1078 267.469 70.3891 267.469C70.6651 267.469 70.876 267.549 71.0219 267.711C71.1729 267.872 71.2484 268.07 71.2484 268.305C71.2484 268.529 71.1729 268.721 71.0219 268.883C70.876 269.039 70.6651 269.117 70.3891 269.117C70.1078 269.117 69.8943 269.039 69.7484 268.883C69.6078 268.721 69.5375 268.529 69.5375 268.305ZM74.9656 272.352V279H73.5203V270.547H74.8875L74.9656 272.352ZM74.6219 274.453L74.0203 274.43C74.0255 273.852 74.1115 273.318 74.2781 272.828C74.4448 272.333 74.6792 271.904 74.9813 271.539C75.2833 271.174 75.6427 270.893 76.0594 270.695C76.4813 270.492 76.9474 270.391 77.4578 270.391C77.8745 270.391 78.2495 270.448 78.5828 270.562C78.9161 270.672 79.2 270.849 79.4344 271.094C79.674 271.339 79.8563 271.656 79.9813 272.047C80.1063 272.432 80.1688 272.904 80.1688 273.461V279H78.7156V273.445C78.7156 273.003 78.6505 272.648 78.5203 272.383C78.3901 272.112 78.2 271.917 77.95 271.797C77.7 271.672 77.3927 271.609 77.0281 271.609C76.6688 271.609 76.3406 271.685 76.0438 271.836C75.7521 271.987 75.4995 272.195 75.2859 272.461C75.0776 272.727 74.9135 273.031 74.7938 273.375C74.6792 273.714 74.6219 274.073 74.6219 274.453ZM87.9406 270.547H89.2531V278.82C89.2531 279.565 89.1021 280.201 88.8 280.727C88.4979 281.253 88.076 281.651 87.5344 281.922C86.9979 282.198 86.3781 282.336 85.675 282.336C85.3833 282.336 85.0396 282.289 84.6437 282.195C84.2531 282.107 83.8677 281.953 83.4875 281.734C83.1125 281.521 82.7974 281.232 82.5422 280.867L83.3 280.008C83.6542 280.435 84.024 280.732 84.4094 280.898C84.8 281.065 85.1854 281.148 85.5656 281.148C86.024 281.148 86.4198 281.062 86.7531 280.891C87.0865 280.719 87.3443 280.464 87.5266 280.125C87.7141 279.792 87.8078 279.38 87.8078 278.891V272.406L87.9406 270.547ZM82.1203 274.867V274.703C82.1203 274.057 82.1958 273.471 82.3469 272.945C82.5031 272.414 82.7245 271.958 83.0109 271.578C83.3026 271.198 83.6542 270.906 84.0656 270.703C84.4771 270.495 84.9406 270.391 85.4562 270.391C85.9875 270.391 86.451 270.484 86.8469 270.672C87.2479 270.854 87.5865 271.122 87.8625 271.477C88.1437 271.826 88.3651 272.247 88.5266 272.742C88.688 273.237 88.8 273.797 88.8625 274.422V275.141C88.8052 275.76 88.6932 276.318 88.5266 276.812C88.3651 277.307 88.1437 277.729 87.8625 278.078C87.5865 278.427 87.2479 278.695 86.8469 278.883C86.4458 279.065 85.9771 279.156 85.4406 279.156C84.9354 279.156 84.4771 279.049 84.0656 278.836C83.6594 278.622 83.3104 278.323 83.0187 277.938C82.7271 277.552 82.5031 277.099 82.3469 276.578C82.1958 276.052 82.1203 275.482 82.1203 274.867ZM83.5656 274.703V274.867C83.5656 275.289 83.6073 275.685 83.6906 276.055C83.7792 276.424 83.912 276.75 84.0891 277.031C84.2714 277.312 84.5031 277.534 84.7844 277.695C85.0656 277.852 85.4016 277.93 85.7922 277.93C86.2714 277.93 86.6672 277.828 86.9797 277.625C87.2922 277.422 87.5396 277.154 87.7219 276.82C87.9094 276.487 88.0552 276.125 88.1594 275.734V273.852C88.1021 273.565 88.0135 273.289 87.8937 273.023C87.7792 272.753 87.6281 272.513 87.4406 272.305C87.2583 272.091 87.0318 271.922 86.7609 271.797C86.4901 271.672 86.1724 271.609 85.8078 271.609C85.412 271.609 85.0708 271.693 84.7844 271.859C84.5031 272.021 84.2714 272.245 84.0891 272.531C83.912 272.812 83.7792 273.141 83.6906 273.516C83.6073 273.885 83.5656 274.281 83.5656 274.703ZM99.1562 270.547V271.656H94.5859V270.547H99.1562ZM96.1328 268.492H97.5781V276.906C97.5781 277.193 97.6224 277.409 97.7109 277.555C97.7995 277.701 97.9141 277.797 98.0547 277.844C98.1953 277.891 98.3464 277.914 98.5078 277.914C98.6276 277.914 98.7526 277.904 98.8828 277.883C99.0182 277.857 99.1198 277.836 99.1875 277.82L99.1953 279C99.0807 279.036 98.9297 279.07 98.7422 279.102C98.5599 279.138 98.3385 279.156 98.0781 279.156C97.724 279.156 97.3984 279.086 97.1016 278.945C96.8047 278.805 96.5677 278.57 96.3906 278.242C96.2188 277.909 96.1328 277.461 96.1328 276.898V268.492ZM100.412 274.867V274.688C100.412 274.078 100.501 273.513 100.678 272.992C100.855 272.466 101.11 272.01 101.444 271.625C101.777 271.234 102.181 270.932 102.655 270.719C103.129 270.5 103.66 270.391 104.248 270.391C104.842 270.391 105.376 270.5 105.85 270.719C106.329 270.932 106.735 271.234 107.069 271.625C107.407 272.01 107.665 272.466 107.842 272.992C108.019 273.513 108.108 274.078 108.108 274.688V274.867C108.108 275.477 108.019 276.042 107.842 276.562C107.665 277.083 107.407 277.539 107.069 277.93C106.735 278.315 106.332 278.617 105.858 278.836C105.389 279.049 104.858 279.156 104.264 279.156C103.67 279.156 103.136 279.049 102.662 278.836C102.189 278.617 101.782 278.315 101.444 277.93C101.11 277.539 100.855 277.083 100.678 276.562C100.501 276.042 100.412 275.477 100.412 274.867ZM101.858 274.688V274.867C101.858 275.289 101.907 275.688 102.006 276.062C102.105 276.432 102.254 276.76 102.452 277.047C102.655 277.333 102.907 277.56 103.209 277.727C103.511 277.888 103.863 277.969 104.264 277.969C104.66 277.969 105.006 277.888 105.303 277.727C105.605 277.56 105.855 277.333 106.053 277.047C106.251 276.76 106.399 276.432 106.498 276.062C106.603 275.688 106.655 275.289 106.655 274.867V274.688C106.655 274.271 106.603 273.878 106.498 273.508C106.399 273.133 106.248 272.802 106.045 272.516C105.847 272.224 105.597 271.995 105.295 271.828C104.998 271.661 104.649 271.578 104.248 271.578C103.853 271.578 103.504 271.661 103.202 271.828C102.905 271.995 102.655 272.224 102.452 272.516C102.254 272.802 102.105 273.133 102.006 273.508C101.907 273.878 101.858 274.271 101.858 274.688ZM109.637 274.867V274.688C109.637 274.078 109.726 273.513 109.903 272.992C110.08 272.466 110.335 272.01 110.669 271.625C111.002 271.234 111.406 270.932 111.88 270.719C112.354 270.5 112.885 270.391 113.473 270.391C114.067 270.391 114.601 270.5 115.075 270.719C115.554 270.932 115.96 271.234 116.294 271.625C116.632 272.01 116.89 272.466 117.067 272.992C117.244 273.513 117.333 274.078 117.333 274.688V274.867C117.333 275.477 117.244 276.042 117.067 276.562C116.89 277.083 116.632 277.539 116.294 277.93C115.96 278.315 115.557 278.617 115.083 278.836C114.614 279.049 114.083 279.156 113.489 279.156C112.895 279.156 112.361 279.049 111.887 278.836C111.414 278.617 111.007 278.315 110.669 277.93C110.335 277.539 110.08 277.083 109.903 276.562C109.726 276.042 109.637 275.477 109.637 274.867ZM111.083 274.688V274.867C111.083 275.289 111.132 275.688 111.231 276.062C111.33 276.432 111.479 276.76 111.677 277.047C111.88 277.333 112.132 277.56 112.434 277.727C112.736 277.888 113.088 277.969 113.489 277.969C113.885 277.969 114.231 277.888 114.528 277.727C114.83 277.56 115.08 277.333 115.278 277.047C115.476 276.76 115.624 276.432 115.723 276.062C115.828 275.688 115.88 275.289 115.88 274.867V274.688C115.88 274.271 115.828 273.878 115.723 273.508C115.624 273.133 115.473 272.802 115.27 272.516C115.072 272.224 114.822 271.995 114.52 271.828C114.223 271.661 113.874 271.578 113.473 271.578C113.078 271.578 112.729 271.661 112.427 271.828C112.13 271.995 111.88 272.224 111.677 272.516C111.479 272.802 111.33 273.133 111.231 273.508C111.132 273.878 111.083 274.271 111.083 274.688ZM120.816 267V279H119.363V267H120.816ZM128.158 276.758C128.158 276.549 128.111 276.357 128.017 276.18C127.929 275.997 127.744 275.833 127.463 275.688C127.186 275.536 126.77 275.406 126.213 275.297C125.744 275.198 125.319 275.081 124.939 274.945C124.564 274.81 124.244 274.646 123.978 274.453C123.718 274.26 123.517 274.034 123.377 273.773C123.236 273.513 123.166 273.208 123.166 272.859C123.166 272.526 123.239 272.211 123.384 271.914C123.535 271.617 123.746 271.354 124.017 271.125C124.293 270.896 124.624 270.716 125.009 270.586C125.395 270.456 125.824 270.391 126.298 270.391C126.976 270.391 127.554 270.51 128.033 270.75C128.512 270.99 128.879 271.31 129.134 271.711C129.39 272.107 129.517 272.547 129.517 273.031H128.072C128.072 272.797 128.002 272.57 127.861 272.352C127.726 272.128 127.525 271.943 127.259 271.797C126.999 271.651 126.679 271.578 126.298 271.578C125.897 271.578 125.572 271.641 125.322 271.766C125.077 271.885 124.897 272.039 124.783 272.227C124.673 272.414 124.619 272.612 124.619 272.82C124.619 272.977 124.645 273.117 124.697 273.242C124.754 273.362 124.853 273.474 124.994 273.578C125.134 273.677 125.332 273.771 125.588 273.859C125.843 273.948 126.168 274.036 126.564 274.125C127.257 274.281 127.827 274.469 128.275 274.688C128.723 274.906 129.056 275.174 129.275 275.492C129.494 275.81 129.603 276.195 129.603 276.648C129.603 277.018 129.525 277.357 129.369 277.664C129.218 277.971 128.996 278.237 128.705 278.461C128.418 278.68 128.074 278.852 127.673 278.977C127.278 279.096 126.832 279.156 126.338 279.156C125.593 279.156 124.963 279.023 124.447 278.758C123.931 278.492 123.541 278.148 123.275 277.727C123.009 277.305 122.877 276.859 122.877 276.391H124.33C124.351 276.786 124.465 277.102 124.673 277.336C124.882 277.565 125.137 277.729 125.439 277.828C125.741 277.922 126.041 277.969 126.338 277.969C126.733 277.969 127.064 277.917 127.33 277.812C127.601 277.708 127.806 277.565 127.947 277.383C128.088 277.201 128.158 276.992 128.158 276.758ZM137.811 277.5L139.983 270.547H140.936L140.748 271.93L138.537 279H137.608L137.811 277.5ZM136.35 270.547L138.202 277.578L138.334 279H137.358L134.905 270.547H136.35ZM143.014 277.523L144.78 270.547H146.217L143.764 279H142.795L143.014 277.523ZM141.147 270.547L143.272 277.383L143.514 279H142.592L140.319 271.914L140.131 270.547H141.147ZM149.372 270.547V279H147.919V270.547H149.372ZM147.809 268.305C147.809 268.07 147.88 267.872 148.02 267.711C148.166 267.549 148.38 267.469 148.661 267.469C148.937 267.469 149.148 267.549 149.294 267.711C149.445 267.872 149.52 268.07 149.52 268.305C149.52 268.529 149.445 268.721 149.294 268.883C149.148 269.039 148.937 269.117 148.661 269.117C148.38 269.117 148.166 269.039 148.02 268.883C147.88 268.721 147.809 268.529 147.809 268.305ZM155.331 270.547V271.656H150.761V270.547H155.331ZM152.308 268.492H153.753V276.906C153.753 277.193 153.797 277.409 153.886 277.555C153.974 277.701 154.089 277.797 154.23 277.844C154.37 277.891 154.521 277.914 154.683 277.914C154.803 277.914 154.928 277.904 155.058 277.883C155.193 277.857 155.295 277.836 155.363 277.82L155.37 279C155.256 279.036 155.105 279.07 154.917 279.102C154.735 279.138 154.514 279.156 154.253 279.156C153.899 279.156 153.573 279.086 153.277 278.945C152.98 278.805 152.743 278.57 152.566 278.242C152.394 277.909 152.308 277.461 152.308 276.898V268.492ZM158.572 267V279H157.127V267H158.572ZM158.228 274.453L157.627 274.43C157.632 273.852 157.718 273.318 157.884 272.828C158.051 272.333 158.285 271.904 158.587 271.539C158.89 271.174 159.249 270.893 159.666 270.695C160.087 270.492 160.554 270.391 161.064 270.391C161.481 270.391 161.856 270.448 162.189 270.562C162.522 270.672 162.806 270.849 163.041 271.094C163.28 271.339 163.462 271.656 163.587 272.047C163.712 272.432 163.775 272.904 163.775 273.461V279H162.322V273.445C162.322 273.003 162.257 272.648 162.127 272.383C161.996 272.112 161.806 271.917 161.556 271.797C161.306 271.672 160.999 271.609 160.634 271.609C160.275 271.609 159.947 271.685 159.65 271.836C159.358 271.987 159.106 272.195 158.892 272.461C158.684 272.727 158.52 273.031 158.4 273.375C158.285 273.714 158.228 274.073 158.228 274.453ZM19.0938 289H20.5469V299.359L20.4219 301H19.0938V289ZM26.2578 296.703V296.867C26.2578 297.482 26.1849 298.052 26.0391 298.578C25.8932 299.099 25.6797 299.552 25.3984 299.938C25.1172 300.323 24.7734 300.622 24.3672 300.836C23.9609 301.049 23.4948 301.156 22.9688 301.156C22.4323 301.156 21.9609 301.065 21.5547 300.883C21.1536 300.695 20.8151 300.427 20.5391 300.078C20.263 299.729 20.0417 299.307 19.875 298.812C19.7135 298.318 19.6016 297.76 19.5391 297.141V296.422C19.6016 295.797 19.7135 295.237 19.875 294.742C20.0417 294.247 20.263 293.826 20.5391 293.477C20.8151 293.122 21.1536 292.854 21.5547 292.672C21.9557 292.484 22.4219 292.391 22.9531 292.391C23.4844 292.391 23.9557 292.495 24.3672 292.703C24.7786 292.906 25.1224 293.198 25.3984 293.578C25.6797 293.958 25.8932 294.414 26.0391 294.945C26.1849 295.471 26.2578 296.057 26.2578 296.703ZM24.8047 296.867V296.703C24.8047 296.281 24.7656 295.885 24.6875 295.516C24.6094 295.141 24.4844 294.812 24.3125 294.531C24.1406 294.245 23.9141 294.021 23.6328 293.859C23.3516 293.693 23.0052 293.609 22.5938 293.609C22.2292 293.609 21.9115 293.672 21.6406 293.797C21.375 293.922 21.1484 294.091 20.9609 294.305C20.7734 294.513 20.6198 294.753 20.5 295.023C20.3854 295.289 20.2995 295.565 20.2422 295.852V297.734C20.3255 298.099 20.4609 298.451 20.6484 298.789C20.8411 299.122 21.0964 299.396 21.4141 299.609C21.737 299.823 22.1354 299.93 22.6094 299.93C23 299.93 23.3333 299.852 23.6094 299.695C23.8906 299.534 24.1172 299.312 24.2891 299.031C24.4661 298.75 24.5964 298.424 24.6797 298.055C24.763 297.685 24.8047 297.289 24.8047 296.867ZM33.3578 299.047V292.547H34.8109V301H33.4281L33.3578 299.047ZM33.6313 297.266L34.2328 297.25C34.2328 297.812 34.1729 298.333 34.0531 298.812C33.9385 299.286 33.751 299.698 33.4906 300.047C33.2302 300.396 32.8891 300.669 32.4672 300.867C32.0453 301.06 31.5323 301.156 30.9281 301.156C30.5167 301.156 30.1391 301.096 29.7953 300.977C29.4568 300.857 29.1651 300.672 28.9203 300.422C28.6755 300.172 28.4854 299.846 28.35 299.445C28.2198 299.044 28.1547 298.562 28.1547 298V292.547H29.6V298.016C29.6 298.396 29.6417 298.711 29.725 298.961C29.8135 299.206 29.9307 299.401 30.0766 299.547C30.2276 299.688 30.3943 299.786 30.5766 299.844C30.7641 299.901 30.9568 299.93 31.1547 299.93C31.7693 299.93 32.2563 299.812 32.6156 299.578C32.975 299.339 33.2328 299.018 33.3891 298.617C33.5505 298.211 33.6313 297.76 33.6313 297.266ZM38.6844 292.547V301H37.2313V292.547H38.6844ZM37.1219 290.305C37.1219 290.07 37.1922 289.872 37.3328 289.711C37.4786 289.549 37.6922 289.469 37.9734 289.469C38.2495 289.469 38.4604 289.549 38.6063 289.711C38.7573 289.872 38.8328 290.07 38.8328 290.305C38.8328 290.529 38.7573 290.721 38.6063 290.883C38.4604 291.039 38.2495 291.117 37.9734 291.117C37.6922 291.117 37.4786 291.039 37.3328 290.883C37.1922 290.721 37.1219 290.529 37.1219 290.305ZM42.675 289V301H41.2219V289H42.675ZM48.6344 292.547V293.656H44.0641V292.547H48.6344ZM45.6109 290.492H47.0562V298.906C47.0562 299.193 47.1005 299.409 47.1891 299.555C47.2776 299.701 47.3922 299.797 47.5328 299.844C47.6734 299.891 47.8245 299.914 47.9859 299.914C48.1057 299.914 48.2307 299.904 48.3609 299.883C48.4964 299.857 48.5979 299.836 48.6656 299.82L48.6734 301C48.5589 301.036 48.4078 301.07 48.2203 301.102C48.038 301.138 47.8167 301.156 47.5562 301.156C47.2021 301.156 46.8766 301.086 46.5797 300.945C46.2828 300.805 46.0458 300.57 45.8687 300.242C45.6969 299.909 45.6109 299.461 45.6109 298.898V290.492ZM53.4375 295.57V296.758H49.625V295.57H53.4375ZM56.5219 292.547V301H55.0687V292.547H56.5219ZM54.9594 290.305C54.9594 290.07 55.0297 289.872 55.1703 289.711C55.3161 289.549 55.5297 289.469 55.8109 289.469C56.087 289.469 56.2979 289.549 56.4437 289.711C56.5948 289.872 56.6703 290.07 56.6703 290.305C56.6703 290.529 56.5948 290.721 56.4437 290.883C56.2979 291.039 56.087 291.117 55.8109 291.117C55.5297 291.117 55.3161 291.039 55.1703 290.883C55.0297 290.721 54.9594 290.529 54.9594 290.305ZM60.3875 294.352V301H58.9422V292.547H60.3094L60.3875 294.352ZM60.0438 296.453L59.4422 296.43C59.4474 295.852 59.5333 295.318 59.7 294.828C59.8667 294.333 60.101 293.904 60.4031 293.539C60.7052 293.174 61.0646 292.893 61.4813 292.695C61.9031 292.492 62.3693 292.391 62.8797 292.391C63.2964 292.391 63.6714 292.448 64.0047 292.562C64.338 292.672 64.6219 292.849 64.8563 293.094C65.0958 293.339 65.2781 293.656 65.4031 294.047C65.5281 294.432 65.5906 294.904 65.5906 295.461V301H64.1375V295.445C64.1375 295.003 64.0724 294.648 63.9422 294.383C63.812 294.112 63.6219 293.917 63.3719 293.797C63.1219 293.672 62.8146 293.609 62.45 293.609C62.0906 293.609 61.7625 293.685 61.4656 293.836C61.174 293.987 60.9214 294.195 60.7078 294.461C60.4995 294.727 60.3354 295.031 60.2156 295.375C60.101 295.714 60.0438 296.073 60.0438 296.453ZM73.525 292.547V301H72.0719V292.547H73.525ZM71.9625 290.305C71.9625 290.07 72.0328 289.872 72.1734 289.711C72.3193 289.549 72.5328 289.469 72.8141 289.469C73.0901 289.469 73.301 289.549 73.4469 289.711C73.5979 289.872 73.6734 290.07 73.6734 290.305C73.6734 290.529 73.5979 290.721 73.4469 290.883C73.301 291.039 73.0901 291.117 72.8141 291.117C72.5328 291.117 72.3193 291.039 72.1734 290.883C72.0328 290.721 71.9625 290.529 71.9625 290.305ZM77.3906 294.352V301H75.9453V292.547H77.3125L77.3906 294.352ZM77.0469 296.453L76.4453 296.43C76.4505 295.852 76.5365 295.318 76.7031 294.828C76.8698 294.333 77.1042 293.904 77.4062 293.539C77.7083 293.174 78.0677 292.893 78.4844 292.695C78.9062 292.492 79.3724 292.391 79.8828 292.391C80.2995 292.391 80.6745 292.448 81.0078 292.562C81.3411 292.672 81.625 292.849 81.8594 293.094C82.099 293.339 82.2812 293.656 82.4062 294.047C82.5312 294.432 82.5938 294.904 82.5938 295.461V301H81.1406V295.445C81.1406 295.003 81.0755 294.648 80.9453 294.383C80.8151 294.112 80.625 293.917 80.375 293.797C80.125 293.672 79.8177 293.609 79.4531 293.609C79.0938 293.609 78.7656 293.685 78.4688 293.836C78.1771 293.987 77.9245 294.195 77.7109 294.461C77.5026 294.727 77.3385 295.031 77.2188 295.375C77.1042 295.714 77.0469 296.073 77.0469 296.453ZM88.4281 292.547V293.656H83.8578V292.547H88.4281ZM85.4047 290.492H86.85V298.906C86.85 299.193 86.8943 299.409 86.9828 299.555C87.0714 299.701 87.1859 299.797 87.3266 299.844C87.4672 299.891 87.6182 299.914 87.7797 299.914C87.8995 299.914 88.0245 299.904 88.1547 299.883C88.2901 299.857 88.3917 299.836 88.4594 299.82L88.4672 301C88.3526 301.036 88.2016 301.07 88.0141 301.102C87.8318 301.138 87.6104 301.156 87.35 301.156C86.9958 301.156 86.6703 301.086 86.3734 300.945C86.0766 300.805 85.8396 300.57 85.6625 300.242C85.4906 299.909 85.4047 299.461 85.4047 298.898V290.492ZM93.7312 301.156C93.1427 301.156 92.6089 301.057 92.1297 300.859C91.6557 300.656 91.2469 300.372 90.9031 300.008C90.5646 299.643 90.3042 299.211 90.1219 298.711C89.9396 298.211 89.8484 297.664 89.8484 297.07V296.742C89.8484 296.055 89.95 295.443 90.1531 294.906C90.3562 294.365 90.6323 293.906 90.9812 293.531C91.3302 293.156 91.726 292.872 92.1687 292.68C92.6115 292.487 93.0698 292.391 93.5437 292.391C94.1479 292.391 94.6687 292.495 95.1062 292.703C95.549 292.911 95.9109 293.203 96.1922 293.578C96.4734 293.948 96.6818 294.385 96.8172 294.891C96.9526 295.391 97.0203 295.938 97.0203 296.531V297.18H90.7078V296H95.575V295.891C95.5542 295.516 95.476 295.151 95.3406 294.797C95.2104 294.443 95.0021 294.151 94.7156 293.922C94.4292 293.693 94.0385 293.578 93.5437 293.578C93.2156 293.578 92.9135 293.648 92.6375 293.789C92.3615 293.924 92.1245 294.128 91.9266 294.398C91.7286 294.669 91.575 295 91.4656 295.391C91.3562 295.781 91.3016 296.232 91.3016 296.742V297.07C91.3016 297.471 91.3562 297.849 91.4656 298.203C91.5802 298.552 91.7443 298.859 91.9578 299.125C92.1766 299.391 92.4396 299.599 92.7469 299.75C93.0594 299.901 93.4135 299.977 93.8094 299.977C94.3198 299.977 94.7521 299.872 95.1062 299.664C95.4604 299.456 95.7703 299.177 96.0359 298.828L96.9109 299.523C96.7286 299.799 96.4969 300.062 96.2156 300.312C95.9344 300.562 95.588 300.766 95.1766 300.922C94.7703 301.078 94.2885 301.156 93.7312 301.156ZM104.284 292.547H105.597V300.82C105.597 301.565 105.446 302.201 105.144 302.727C104.842 303.253 104.42 303.651 103.878 303.922C103.342 304.198 102.722 304.336 102.019 304.336C101.727 304.336 101.383 304.289 100.988 304.195C100.597 304.107 100.211 303.953 99.8313 303.734C99.4563 303.521 99.1411 303.232 98.8859 302.867L99.6438 302.008C99.9979 302.435 100.368 302.732 100.753 302.898C101.144 303.065 101.529 303.148 101.909 303.148C102.368 303.148 102.764 303.062 103.097 302.891C103.43 302.719 103.688 302.464 103.87 302.125C104.058 301.792 104.152 301.38 104.152 300.891V294.406L104.284 292.547ZM98.4641 296.867V296.703C98.4641 296.057 98.5396 295.471 98.6906 294.945C98.8469 294.414 99.0682 293.958 99.3547 293.578C99.6464 293.198 99.9979 292.906 100.409 292.703C100.821 292.495 101.284 292.391 101.8 292.391C102.331 292.391 102.795 292.484 103.191 292.672C103.592 292.854 103.93 293.122 104.206 293.477C104.488 293.826 104.709 294.247 104.87 294.742C105.032 295.237 105.144 295.797 105.206 296.422V297.141C105.149 297.76 105.037 298.318 104.87 298.812C104.709 299.307 104.488 299.729 104.206 300.078C103.93 300.427 103.592 300.695 103.191 300.883C102.79 301.065 102.321 301.156 101.784 301.156C101.279 301.156 100.821 301.049 100.409 300.836C100.003 300.622 99.6542 300.323 99.3625 299.938C99.0708 299.552 98.8469 299.099 98.6906 298.578C98.5396 298.052 98.4641 297.482 98.4641 296.867ZM99.9094 296.703V296.867C99.9094 297.289 99.951 297.685 100.034 298.055C100.123 298.424 100.256 298.75 100.433 299.031C100.615 299.312 100.847 299.534 101.128 299.695C101.409 299.852 101.745 299.93 102.136 299.93C102.615 299.93 103.011 299.828 103.323 299.625C103.636 299.422 103.883 299.154 104.066 298.82C104.253 298.487 104.399 298.125 104.503 297.734V295.852C104.446 295.565 104.357 295.289 104.238 295.023C104.123 294.753 103.972 294.513 103.784 294.305C103.602 294.091 103.376 293.922 103.105 293.797C102.834 293.672 102.516 293.609 102.152 293.609C101.756 293.609 101.415 293.693 101.128 293.859C100.847 294.021 100.615 294.245 100.433 294.531C100.256 294.812 100.123 295.141 100.034 295.516C99.951 295.885 99.9094 296.281 99.9094 296.703ZM109.338 293.875V301H107.892V292.547H109.298L109.338 293.875ZM111.978 292.5L111.97 293.844C111.851 293.818 111.736 293.802 111.627 293.797C111.522 293.786 111.403 293.781 111.267 293.781C110.934 293.781 110.64 293.833 110.384 293.938C110.129 294.042 109.913 294.188 109.736 294.375C109.559 294.562 109.418 294.786 109.314 295.047C109.215 295.302 109.15 295.583 109.119 295.891L108.713 296.125C108.713 295.615 108.762 295.135 108.861 294.688C108.965 294.24 109.124 293.844 109.338 293.5C109.551 293.151 109.822 292.88 110.15 292.688C110.483 292.49 110.879 292.391 111.338 292.391C111.442 292.391 111.561 292.404 111.697 292.43C111.832 292.451 111.926 292.474 111.978 292.5ZM118.086 299.555V295.203C118.086 294.87 118.018 294.581 117.883 294.336C117.753 294.086 117.555 293.893 117.289 293.758C117.023 293.622 116.695 293.555 116.305 293.555C115.94 293.555 115.62 293.617 115.344 293.742C115.073 293.867 114.859 294.031 114.703 294.234C114.552 294.438 114.477 294.656 114.477 294.891H113.031C113.031 294.589 113.109 294.289 113.266 293.992C113.422 293.695 113.646 293.427 113.938 293.188C114.234 292.943 114.589 292.75 115 292.609C115.417 292.464 115.88 292.391 116.391 292.391C117.005 292.391 117.547 292.495 118.016 292.703C118.49 292.911 118.859 293.227 119.125 293.648C119.396 294.065 119.531 294.589 119.531 295.219V299.156C119.531 299.438 119.555 299.737 119.602 300.055C119.654 300.372 119.729 300.646 119.828 300.875V301H118.32C118.247 300.833 118.19 300.612 118.148 300.336C118.107 300.055 118.086 299.794 118.086 299.555ZM118.336 295.875L118.352 296.891H116.891C116.479 296.891 116.112 296.924 115.789 296.992C115.466 297.055 115.195 297.151 114.977 297.281C114.758 297.411 114.591 297.576 114.477 297.773C114.362 297.966 114.305 298.193 114.305 298.453C114.305 298.719 114.365 298.961 114.484 299.18C114.604 299.398 114.784 299.573 115.023 299.703C115.268 299.828 115.568 299.891 115.922 299.891C116.365 299.891 116.755 299.797 117.094 299.609C117.432 299.422 117.701 299.193 117.898 298.922C118.102 298.651 118.211 298.388 118.227 298.133L118.844 298.828C118.807 299.047 118.708 299.289 118.547 299.555C118.385 299.82 118.169 300.076 117.898 300.32C117.633 300.56 117.315 300.76 116.945 300.922C116.581 301.078 116.169 301.156 115.711 301.156C115.138 301.156 114.635 301.044 114.203 300.82C113.776 300.596 113.443 300.297 113.203 299.922C112.969 299.542 112.852 299.117 112.852 298.648C112.852 298.195 112.94 297.797 113.117 297.453C113.294 297.104 113.549 296.815 113.883 296.586C114.216 296.352 114.617 296.174 115.086 296.055C115.555 295.935 116.078 295.875 116.656 295.875H118.336ZM125.444 292.547V293.656H120.873V292.547H125.444ZM122.42 290.492H123.866V298.906C123.866 299.193 123.91 299.409 123.998 299.555C124.087 299.701 124.202 299.797 124.342 299.844C124.483 299.891 124.634 299.914 124.795 299.914C124.915 299.914 125.04 299.904 125.17 299.883C125.306 299.857 125.407 299.836 125.475 299.82L125.483 301C125.368 301.036 125.217 301.07 125.03 301.102C124.847 301.138 124.626 301.156 124.366 301.156C124.011 301.156 123.686 301.086 123.389 300.945C123.092 300.805 122.855 300.57 122.678 300.242C122.506 299.909 122.42 299.461 122.42 298.898V290.492ZM128.809 292.547V301H127.356V292.547H128.809ZM127.247 290.305C127.247 290.07 127.317 289.872 127.458 289.711C127.604 289.549 127.817 289.469 128.098 289.469C128.374 289.469 128.585 289.549 128.731 289.711C128.882 289.872 128.958 290.07 128.958 290.305C128.958 290.529 128.882 290.721 128.731 290.883C128.585 291.039 128.374 291.117 128.098 291.117C127.817 291.117 127.604 291.039 127.458 290.883C127.317 290.721 127.247 290.529 127.247 290.305ZM130.847 296.867V296.688C130.847 296.078 130.935 295.513 131.113 294.992C131.29 294.466 131.545 294.01 131.878 293.625C132.211 293.234 132.615 292.932 133.089 292.719C133.563 292.5 134.094 292.391 134.683 292.391C135.277 292.391 135.81 292.5 136.284 292.719C136.764 292.932 137.17 293.234 137.503 293.625C137.842 294.01 138.099 294.466 138.277 294.992C138.454 295.513 138.542 296.078 138.542 296.688V296.867C138.542 297.477 138.454 298.042 138.277 298.562C138.099 299.083 137.842 299.539 137.503 299.93C137.17 300.315 136.766 300.617 136.292 300.836C135.823 301.049 135.292 301.156 134.698 301.156C134.105 301.156 133.571 301.049 133.097 300.836C132.623 300.617 132.217 300.315 131.878 299.93C131.545 299.539 131.29 299.083 131.113 298.562C130.935 298.042 130.847 297.477 130.847 296.867ZM132.292 296.688V296.867C132.292 297.289 132.342 297.688 132.441 298.062C132.54 298.432 132.688 298.76 132.886 299.047C133.089 299.333 133.342 299.56 133.644 299.727C133.946 299.888 134.297 299.969 134.698 299.969C135.094 299.969 135.441 299.888 135.738 299.727C136.04 299.56 136.29 299.333 136.488 299.047C136.685 298.76 136.834 298.432 136.933 298.062C137.037 297.688 137.089 297.289 137.089 296.867V296.688C137.089 296.271 137.037 295.878 136.933 295.508C136.834 295.133 136.683 294.802 136.48 294.516C136.282 294.224 136.032 293.995 135.73 293.828C135.433 293.661 135.084 293.578 134.683 293.578C134.287 293.578 133.938 293.661 133.636 293.828C133.339 293.995 133.089 294.224 132.886 294.516C132.688 294.802 132.54 295.133 132.441 295.508C132.342 295.878 132.292 296.271 132.292 296.688ZM141.9 294.352V301H140.455V292.547H141.822L141.9 294.352ZM141.556 296.453L140.955 296.43C140.96 295.852 141.046 295.318 141.213 294.828C141.379 294.333 141.614 293.904 141.916 293.539C142.218 293.174 142.577 292.893 142.994 292.695C143.416 292.492 143.882 292.391 144.392 292.391C144.809 292.391 145.184 292.448 145.517 292.562C145.851 292.672 146.134 292.849 146.369 293.094C146.608 293.339 146.791 293.656 146.916 294.047C147.041 294.432 147.103 294.904 147.103 295.461V301H145.65V295.445C145.65 295.003 145.585 294.648 145.455 294.383C145.324 294.112 145.134 293.917 144.884 293.797C144.634 293.672 144.327 293.609 143.963 293.609C143.603 293.609 143.275 293.685 142.978 293.836C142.686 293.987 142.434 294.195 142.22 294.461C142.012 294.727 141.848 295.031 141.728 295.375C141.614 295.714 141.556 296.073 141.556 296.453ZM154.32 298.758C154.32 298.549 154.273 298.357 154.18 298.18C154.091 297.997 153.906 297.833 153.625 297.688C153.349 297.536 152.932 297.406 152.375 297.297C151.906 297.198 151.482 297.081 151.102 296.945C150.727 296.81 150.406 296.646 150.141 296.453C149.88 296.26 149.68 296.034 149.539 295.773C149.398 295.513 149.328 295.208 149.328 294.859C149.328 294.526 149.401 294.211 149.547 293.914C149.698 293.617 149.909 293.354 150.18 293.125C150.456 292.896 150.786 292.716 151.172 292.586C151.557 292.456 151.987 292.391 152.461 292.391C153.138 292.391 153.716 292.51 154.195 292.75C154.674 292.99 155.042 293.31 155.297 293.711C155.552 294.107 155.68 294.547 155.68 295.031H154.234C154.234 294.797 154.164 294.57 154.023 294.352C153.888 294.128 153.688 293.943 153.422 293.797C153.161 293.651 152.841 293.578 152.461 293.578C152.06 293.578 151.734 293.641 151.484 293.766C151.24 293.885 151.06 294.039 150.945 294.227C150.836 294.414 150.781 294.612 150.781 294.82C150.781 294.977 150.807 295.117 150.859 295.242C150.917 295.362 151.016 295.474 151.156 295.578C151.297 295.677 151.495 295.771 151.75 295.859C152.005 295.948 152.331 296.036 152.727 296.125C153.419 296.281 153.99 296.469 154.438 296.688C154.885 296.906 155.219 297.174 155.438 297.492C155.656 297.81 155.766 298.195 155.766 298.648C155.766 299.018 155.688 299.357 155.531 299.664C155.38 299.971 155.159 300.237 154.867 300.461C154.581 300.68 154.237 300.852 153.836 300.977C153.44 301.096 152.995 301.156 152.5 301.156C151.755 301.156 151.125 301.023 150.609 300.758C150.094 300.492 149.703 300.148 149.438 299.727C149.172 299.305 149.039 298.859 149.039 298.391H150.492C150.513 298.786 150.628 299.102 150.836 299.336C151.044 299.565 151.299 299.729 151.602 299.828C151.904 299.922 152.203 299.969 152.5 299.969C152.896 299.969 153.227 299.917 153.492 299.812C153.763 299.708 153.969 299.565 154.109 299.383C154.25 299.201 154.32 298.992 154.32 298.758Z" fill="black"/>
<path d="M68.5275 76.8318C66.2096 76.8318 64.2804 78.2239 63.3476 80.2238L60.6128 80.2238C59.362 80.2238 58.3515 79.2133 58.3515 77.9625L58.3515 70.0125L63.8988 70.0125L63.8988 65.8079L58.3515 65.8079L58.3515 58.1759C58.3515 56.9251 59.362 55.9146 60.6128 55.9146L63.3476 55.9146C64.2804 57.9145 66.2096 59.3066 68.5275 59.3066C71.6495 59.3066 74.1808 56.7767 74.1808 53.6533C74.1808 50.5298 71.6495 48 68.5275 48C66.2096 48 64.2804 49.3921 63.3476 51.392L60.6128 51.392C56.8675 51.392 53.8289 54.4306 53.8289 58.1759L53.8289 65.8079L48.8328 65.8079C47.9636 63.808 45.9708 62.4159 43.6529 62.4159C40.5295 62.4159 37.9996 64.9458 37.9996 68.0692C37.9996 71.1927 40.5295 73.7225 43.6529 73.7225C45.9708 73.7225 47.9636 72.3304 48.8328 70.3305L53.8289 70.3305L53.8289 77.9625C53.8289 81.7092 56.8675 84.7464 60.6128 84.7464L63.3476 84.7464C64.2804 86.7428 66.2096 88.1384 68.5275 88.1384C71.6495 88.1384 74.1808 85.6072 74.1808 82.4851C74.1808 79.3617 71.6495 76.8318 68.5275 76.8318ZM66.8315 82.4851C66.8315 81.5488 67.5911 80.7891 68.5275 80.7891C69.4638 80.7891 70.2235 81.5488 70.2235 82.4851C70.2235 83.4215 69.4638 84.1811 68.5275 84.1811C67.5911 84.1811 66.8315 83.4215 66.8315 82.4851ZM66.8315 53.6533C66.8315 52.7134 67.5911 51.9573 68.5275 51.9573C69.4638 51.9573 70.2234 52.7134 70.2234 53.6533C70.2234 54.5931 69.4638 55.3493 68.5275 55.3493C67.5911 55.3493 66.8315 54.5931 66.8315 53.6533ZM45.3489 68.0692C45.3489 69.0091 44.5928 69.7652 43.6529 69.7652C42.7131 69.7652 41.9569 69.0091 41.9569 68.0692C41.9569 67.1293 42.7131 66.3732 43.6529 66.3732C44.5928 66.3732 45.3489 67.1293 45.3489 68.0692Z" fill="#DDF247"/>
<path d="M69.0221 62.1332C65.8609 62.1332 63.2982 64.775 63.2982 68.0339C63.2982 71.2927 65.8609 73.9345 69.0221 73.9345C72.1834 73.9345 74.7461 71.2927 74.7461 68.0339C74.7461 64.775 72.1834 62.1332 69.0221 62.1332ZM69.0221 69.7843C68.0843 69.7843 67.3241 69.0006 67.3241 68.0339C67.3241 67.0671 68.0843 66.2834 69.0221 66.2834C69.9599 66.2834 70.7202 67.0671 70.7202 68.0339C70.7202 69.0006 69.9599 69.7843 69.0221 69.7843Z" fill="#DDF247"/>
</svg>
