<svg width="302" height="343" viewBox="0 0 302 343" fill="none" xmlns="http://www.w3.org/2000/svg">
<rect width="302" height="343" rx="14" fill="#DDF247"/>
<path d="M24.57 218V195.832H39.292V200.048H29.568V205.182H37.864V209.398H29.568V218H24.57ZM55.0667 218.408C52.9587 218.408 51.3607 217.773 50.2727 216.504C49.1847 215.235 48.6407 213.535 48.6407 211.404V198.11H43.3707V194.2H53.6387V211.608C53.6387 212.651 53.9221 213.376 54.4887 213.784C55.0554 214.169 55.6787 214.362 56.3587 214.362C56.7667 214.362 57.1747 214.317 57.5827 214.226C58.0134 214.135 58.4894 213.999 59.0107 213.818L60.0987 217.49C59.2374 217.762 58.4441 217.977 57.7187 218.136C57.0161 218.317 56.1321 218.408 55.0667 218.408ZM73.4934 218.408C71.7481 218.408 70.1614 218.068 68.7334 217.388C67.3281 216.685 66.2061 215.677 65.3674 214.362C64.5514 213.025 64.1434 211.427 64.1434 209.568C64.1434 207.732 64.5628 206.157 65.4014 204.842C66.2401 203.505 67.3281 202.485 68.6654 201.782C70.0028 201.079 71.4194 200.728 72.9154 200.728C74.6608 200.728 76.1228 201.091 77.3014 201.816C78.4801 202.519 79.3641 203.482 79.9534 204.706C80.5654 205.907 80.8714 207.279 80.8714 208.82C80.8714 209.273 80.8374 209.715 80.7694 210.146C80.7241 210.554 80.6788 210.86 80.6334 211.064H67.8494V207.698H77.2674L76.4854 208.65C76.4854 207.29 76.1908 206.27 75.6014 205.59C75.0348 204.887 74.1961 204.536 73.0854 204.536C72.2694 204.536 71.5554 204.717 70.9434 205.08C70.3314 205.443 69.8554 205.998 69.5154 206.746C69.1754 207.494 69.0054 208.435 69.0054 209.568C69.0054 210.724 69.2094 211.676 69.6174 212.424C70.0254 213.149 70.6148 213.693 71.3854 214.056C72.1561 214.419 73.0854 214.6 74.1734 214.6C74.9441 214.6 75.6694 214.498 76.3494 214.294C77.0521 214.09 77.7774 213.795 78.5254 213.41L80.1914 216.436C79.2168 217.048 78.1401 217.535 76.9614 217.898C75.7828 218.238 74.6268 218.408 73.4934 218.408ZM84.1682 218L90.0162 209.228L84.5422 201.136H89.9142L91.6482 203.856C91.9202 204.332 92.2148 204.819 92.5322 205.318C92.8495 205.794 93.1442 206.27 93.4162 206.746H93.5522C93.7562 206.27 93.9828 205.783 94.2322 205.284C94.5042 204.785 94.7422 204.309 94.9462 203.856L96.4422 201.136H101.678L96.1702 209.806L102.018 218H96.6462L94.7082 215.212C94.3908 214.736 94.0622 214.249 93.7222 213.75C93.4048 213.251 93.0875 212.764 92.7702 212.288H92.6342C92.3848 212.764 92.1242 213.251 91.8522 213.75C91.5802 214.226 91.3195 214.713 91.0702 215.212L89.4042 218H84.1682ZM112.999 218V205.046H106.199V201.136H117.997V218H112.999ZM115.277 198.484C114.325 198.484 113.532 198.212 112.897 197.668C112.262 197.101 111.945 196.365 111.945 195.458C111.945 194.529 112.262 193.781 112.897 193.214C113.532 192.625 114.325 192.33 115.277 192.33C116.252 192.33 117.045 192.625 117.657 193.214C118.292 193.781 118.609 194.529 118.609 195.458C118.609 196.365 118.292 197.101 117.657 197.668C117.045 198.212 116.252 198.484 115.277 198.484ZM135.676 218.408C134.905 218.408 134.112 218.215 133.296 217.83C132.502 217.445 131.766 216.889 131.086 216.164H130.95L130.542 218H126.632V194.166H131.63V200.014L131.46 202.666H131.562C132.219 202.054 132.944 201.578 133.738 201.238C134.554 200.898 135.37 200.728 136.186 200.728C137.614 200.728 138.826 201.079 139.824 201.782C140.844 202.485 141.626 203.482 142.17 204.774C142.714 206.043 142.986 207.539 142.986 209.262C142.986 211.189 142.634 212.843 141.932 214.226C141.252 215.586 140.356 216.629 139.246 217.354C138.135 218.057 136.945 218.408 135.676 218.408ZM134.554 214.328C135.166 214.328 135.721 214.158 136.22 213.818C136.718 213.478 137.115 212.945 137.41 212.22C137.704 211.472 137.852 210.52 137.852 209.364C137.852 208.344 137.738 207.505 137.512 206.848C137.285 206.168 136.945 205.658 136.492 205.318C136.061 204.978 135.483 204.808 134.758 204.808C134.214 204.808 133.681 204.933 133.16 205.182C132.661 205.409 132.151 205.805 131.63 206.372V213.206C132.106 213.591 132.593 213.875 133.092 214.056C133.613 214.237 134.1 214.328 134.554 214.328ZM158.25 218.408C156.142 218.408 154.544 217.773 153.456 216.504C152.368 215.235 151.824 213.535 151.824 211.404V198.11H146.554V194.2H156.822V211.608C156.822 212.651 157.106 213.376 157.672 213.784C158.239 214.169 158.862 214.362 159.542 214.362C159.95 214.362 160.358 214.317 160.766 214.226C161.197 214.135 161.673 213.999 162.194 213.818L163.282 217.49C162.421 217.762 161.628 217.977 160.902 218.136C160.2 218.317 159.316 218.408 158.25 218.408ZM176.677 218.408C174.932 218.408 173.345 218.068 171.917 217.388C170.512 216.685 169.39 215.677 168.551 214.362C167.735 213.025 167.327 211.427 167.327 209.568C167.327 207.732 167.746 206.157 168.585 204.842C169.424 203.505 170.512 202.485 171.849 201.782C173.186 201.079 174.603 200.728 176.099 200.728C177.844 200.728 179.306 201.091 180.485 201.816C181.664 202.519 182.548 203.482 183.137 204.706C183.749 205.907 184.055 207.279 184.055 208.82C184.055 209.273 184.021 209.715 183.953 210.146C183.908 210.554 183.862 210.86 183.817 211.064H171.033V207.698H180.451L179.669 208.65C179.669 207.29 179.374 206.27 178.785 205.59C178.218 204.887 177.38 204.536 176.269 204.536C175.453 204.536 174.739 204.717 174.127 205.08C173.515 205.443 173.039 205.998 172.699 206.746C172.359 207.494 172.189 208.435 172.189 209.568C172.189 210.724 172.393 211.676 172.801 212.424C173.209 213.149 173.798 213.693 174.569 214.056C175.34 214.419 176.269 214.6 177.357 214.6C178.128 214.6 178.853 214.498 179.533 214.294C180.236 214.09 180.961 213.795 181.709 213.41L183.375 216.436C182.4 217.048 181.324 217.535 180.145 217.898C178.966 218.238 177.81 218.408 176.677 218.408Z" fill="black"/>
<path d="M29.1875 251.383H30.6875C30.6094 252.102 30.4036 252.745 30.0703 253.312C29.737 253.88 29.2656 254.331 28.6562 254.664C28.0469 254.992 27.2865 255.156 26.375 255.156C25.7083 255.156 25.1016 255.031 24.5547 254.781C24.013 254.531 23.5469 254.177 23.1562 253.719C22.7656 253.255 22.4635 252.701 22.25 252.055C22.0417 251.404 21.9375 250.68 21.9375 249.883V248.75C21.9375 247.953 22.0417 247.232 22.25 246.586C22.4635 245.935 22.7682 245.378 23.1641 244.914C23.5651 244.451 24.0469 244.094 24.6094 243.844C25.1719 243.594 25.8047 243.469 26.5078 243.469C27.3672 243.469 28.0938 243.63 28.6875 243.953C29.2812 244.276 29.7422 244.724 30.0703 245.297C30.4036 245.865 30.6094 246.523 30.6875 247.273H29.1875C29.1146 246.742 28.9792 246.286 28.7812 245.906C28.5833 245.521 28.3021 245.224 27.9375 245.016C27.5729 244.807 27.0964 244.703 26.5078 244.703C26.0026 244.703 25.5573 244.799 25.1719 244.992C24.7917 245.185 24.4714 245.458 24.2109 245.812C23.9557 246.167 23.763 246.591 23.6328 247.086C23.5026 247.581 23.4375 248.13 23.4375 248.734V249.883C23.4375 250.44 23.4948 250.964 23.6094 251.453C23.7292 251.943 23.9089 252.372 24.1484 252.742C24.388 253.112 24.6927 253.404 25.0625 253.617C25.4323 253.826 25.8698 253.93 26.375 253.93C27.0156 253.93 27.526 253.828 27.9062 253.625C28.2865 253.422 28.5729 253.13 28.7656 252.75C28.9635 252.37 29.1042 251.914 29.1875 251.383ZM32.2406 250.867V250.688C32.2406 250.078 32.3292 249.513 32.5063 248.992C32.6833 248.466 32.9385 248.01 33.2719 247.625C33.6052 247.234 34.0089 246.932 34.4828 246.719C34.9568 246.5 35.488 246.391 36.0766 246.391C36.6703 246.391 37.2042 246.5 37.6781 246.719C38.1573 246.932 38.5635 247.234 38.8969 247.625C39.2354 248.01 39.4932 248.466 39.6703 248.992C39.8474 249.513 39.9359 250.078 39.9359 250.688V250.867C39.9359 251.477 39.8474 252.042 39.6703 252.562C39.4932 253.083 39.2354 253.539 38.8969 253.93C38.5635 254.315 38.1599 254.617 37.6859 254.836C37.2172 255.049 36.6859 255.156 36.0922 255.156C35.4984 255.156 34.9646 255.049 34.4906 254.836C34.0167 254.617 33.6104 254.315 33.2719 253.93C32.9385 253.539 32.6833 253.083 32.5063 252.562C32.3292 252.042 32.2406 251.477 32.2406 250.867ZM33.6859 250.688V250.867C33.6859 251.289 33.7354 251.688 33.8344 252.062C33.9333 252.432 34.0818 252.76 34.2797 253.047C34.4828 253.333 34.7354 253.56 35.0375 253.727C35.3396 253.888 35.6911 253.969 36.0922 253.969C36.488 253.969 36.8344 253.888 37.1313 253.727C37.4333 253.56 37.6833 253.333 37.8813 253.047C38.0792 252.76 38.2276 252.432 38.3266 252.062C38.4307 251.688 38.4828 251.289 38.4828 250.867V250.688C38.4828 250.271 38.4307 249.878 38.3266 249.508C38.2276 249.133 38.0766 248.802 37.8734 248.516C37.6755 248.224 37.4255 247.995 37.1234 247.828C36.8266 247.661 36.4776 247.578 36.0766 247.578C35.6807 247.578 35.3318 247.661 35.0297 247.828C34.7328 247.995 34.4828 248.224 34.2797 248.516C34.0818 248.802 33.9333 249.133 33.8344 249.508C33.7354 249.878 33.6859 250.271 33.6859 250.688ZM43.2938 248.352V255H41.8484V246.547H43.2156L43.2938 248.352ZM42.95 250.453L42.3484 250.43C42.3536 249.852 42.4396 249.318 42.6063 248.828C42.7729 248.333 43.0073 247.904 43.3094 247.539C43.6115 247.174 43.9708 246.893 44.3875 246.695C44.8094 246.492 45.2755 246.391 45.7859 246.391C46.2026 246.391 46.5776 246.448 46.9109 246.562C47.2443 246.672 47.5281 246.849 47.7625 247.094C48.0021 247.339 48.1844 247.656 48.3094 248.047C48.4344 248.432 48.4969 248.904 48.4969 249.461V255H47.0438V249.445C47.0438 249.003 46.9786 248.648 46.8484 248.383C46.7182 248.112 46.5281 247.917 46.2781 247.797C46.0281 247.672 45.7208 247.609 45.3563 247.609C44.9969 247.609 44.6688 247.685 44.3719 247.836C44.0802 247.987 43.8276 248.195 43.6141 248.461C43.4057 248.727 43.2417 249.031 43.1219 249.375C43.0073 249.714 42.95 250.073 42.95 250.453ZM52.2375 248.352V255H50.7922V246.547H52.1594L52.2375 248.352ZM51.8937 250.453L51.2922 250.43C51.2974 249.852 51.3833 249.318 51.55 248.828C51.7167 248.333 51.951 247.904 52.2531 247.539C52.5552 247.174 52.9146 246.893 53.3312 246.695C53.7531 246.492 54.2193 246.391 54.7297 246.391C55.1464 246.391 55.5214 246.448 55.8547 246.562C56.188 246.672 56.4719 246.849 56.7062 247.094C56.9458 247.339 57.1281 247.656 57.2531 248.047C57.3781 248.432 57.4406 248.904 57.4406 249.461V255H55.9875V249.445C55.9875 249.003 55.9224 248.648 55.7922 248.383C55.662 248.112 55.4719 247.917 55.2219 247.797C54.9719 247.672 54.6646 247.609 54.3 247.609C53.9406 247.609 53.6125 247.685 53.3156 247.836C53.024 247.987 52.7714 248.195 52.5578 248.461C52.3495 248.727 52.1854 249.031 52.0656 249.375C51.951 249.714 51.8937 250.073 51.8937 250.453ZM63.2438 255.156C62.6552 255.156 62.1214 255.057 61.6422 254.859C61.1682 254.656 60.7594 254.372 60.4156 254.008C60.0771 253.643 59.8167 253.211 59.6344 252.711C59.4521 252.211 59.3609 251.664 59.3609 251.07V250.742C59.3609 250.055 59.4625 249.443 59.6656 248.906C59.8688 248.365 60.1448 247.906 60.4938 247.531C60.8427 247.156 61.2385 246.872 61.6813 246.68C62.124 246.487 62.5823 246.391 63.0563 246.391C63.6604 246.391 64.1813 246.495 64.6188 246.703C65.0615 246.911 65.4234 247.203 65.7047 247.578C65.9859 247.948 66.1943 248.385 66.3297 248.891C66.4651 249.391 66.5328 249.938 66.5328 250.531V251.18H60.2203V250H65.0875V249.891C65.0667 249.516 64.9885 249.151 64.8531 248.797C64.7229 248.443 64.5146 248.151 64.2281 247.922C63.9417 247.693 63.551 247.578 63.0563 247.578C62.7281 247.578 62.426 247.648 62.15 247.789C61.874 247.924 61.637 248.128 61.4391 248.398C61.2411 248.669 61.0875 249 60.9781 249.391C60.8688 249.781 60.8141 250.232 60.8141 250.742V251.07C60.8141 251.471 60.8688 251.849 60.9781 252.203C61.0927 252.552 61.2568 252.859 61.4703 253.125C61.6891 253.391 61.9521 253.599 62.2594 253.75C62.5719 253.901 62.926 253.977 63.3219 253.977C63.8323 253.977 64.2646 253.872 64.6188 253.664C64.9729 253.456 65.2828 253.177 65.5484 252.828L66.4234 253.523C66.2411 253.799 66.0094 254.062 65.7281 254.312C65.4469 254.562 65.1005 254.766 64.6891 254.922C64.2828 255.078 63.801 255.156 63.2438 255.156ZM71.7031 253.969C72.0469 253.969 72.3646 253.898 72.6562 253.758C72.9479 253.617 73.1875 253.424 73.375 253.18C73.5625 252.93 73.6693 252.646 73.6953 252.328H75.0703C75.0443 252.828 74.875 253.294 74.5625 253.727C74.2552 254.154 73.8516 254.5 73.3516 254.766C72.8516 255.026 72.3021 255.156 71.7031 255.156C71.0677 255.156 70.513 255.044 70.0391 254.82C69.5703 254.596 69.1797 254.289 68.8672 253.898C68.5599 253.508 68.3281 253.06 68.1719 252.555C68.0208 252.044 67.9453 251.505 67.9453 250.938V250.609C67.9453 250.042 68.0208 249.505 68.1719 249C68.3281 248.49 68.5599 248.039 68.8672 247.648C69.1797 247.258 69.5703 246.951 70.0391 246.727C70.513 246.503 71.0677 246.391 71.7031 246.391C72.3646 246.391 72.9427 246.526 73.4375 246.797C73.9323 247.062 74.3203 247.427 74.6016 247.891C74.888 248.349 75.0443 248.87 75.0703 249.453H73.6953C73.6693 249.104 73.5703 248.789 73.3984 248.508C73.2318 248.227 73.0026 248.003 72.7109 247.836C72.4245 247.664 72.0885 247.578 71.7031 247.578C71.2604 247.578 70.888 247.667 70.5859 247.844C70.2891 248.016 70.0521 248.25 69.875 248.547C69.7031 248.839 69.5781 249.164 69.5 249.523C69.4271 249.878 69.3906 250.24 69.3906 250.609V250.938C69.3906 251.307 69.4271 251.672 69.5 252.031C69.5729 252.391 69.6953 252.716 69.8672 253.008C70.0443 253.299 70.2812 253.534 70.5781 253.711C70.8802 253.883 71.2552 253.969 71.7031 253.969ZM80.3344 246.547V247.656H75.7641V246.547H80.3344ZM77.3109 244.492H78.7562V252.906C78.7562 253.193 78.8005 253.409 78.8891 253.555C78.9776 253.701 79.0922 253.797 79.2328 253.844C79.3734 253.891 79.5245 253.914 79.6859 253.914C79.8057 253.914 79.9307 253.904 80.0609 253.883C80.1964 253.857 80.2979 253.836 80.3656 253.82L80.3734 255C80.2589 255.036 80.1078 255.07 79.9203 255.102C79.738 255.138 79.5167 255.156 79.2562 255.156C78.9021 255.156 78.5766 255.086 78.2797 254.945C77.9828 254.805 77.7458 254.57 77.5687 254.242C77.3969 253.909 77.3109 253.461 77.3109 252.898V244.492ZM88.5734 254.125L90.925 246.547H92.4719L89.0813 256.305C89.0031 256.513 88.899 256.737 88.7688 256.977C88.6438 257.221 88.4823 257.453 88.2844 257.672C88.0865 257.891 87.8469 258.068 87.5656 258.203C87.2896 258.344 86.9589 258.414 86.5734 258.414C86.4589 258.414 86.313 258.398 86.1359 258.367C85.9589 258.336 85.8339 258.31 85.7609 258.289L85.7531 257.117C85.7948 257.122 85.8599 257.128 85.9484 257.133C86.0422 257.143 86.1073 257.148 86.1438 257.148C86.4719 257.148 86.7505 257.104 86.9797 257.016C87.2089 256.932 87.4016 256.789 87.5578 256.586C87.7193 256.388 87.8573 256.115 87.9719 255.766L88.5734 254.125ZM86.8469 246.547L89.0422 253.109L89.4172 254.633L88.3781 255.164L85.2688 246.547H86.8469ZM93.3688 250.867V250.688C93.3688 250.078 93.4573 249.513 93.6344 248.992C93.8115 248.466 94.0667 248.01 94.4 247.625C94.7333 247.234 95.137 246.932 95.6109 246.719C96.0849 246.5 96.6161 246.391 97.2047 246.391C97.7984 246.391 98.3323 246.5 98.8063 246.719C99.2854 246.932 99.6917 247.234 100.025 247.625C100.364 248.01 100.621 248.466 100.798 248.992C100.976 249.513 101.064 250.078 101.064 250.688V250.867C101.064 251.477 100.976 252.042 100.798 252.562C100.621 253.083 100.364 253.539 100.025 253.93C99.6917 254.315 99.288 254.617 98.8141 254.836C98.3453 255.049 97.8141 255.156 97.2203 255.156C96.6266 255.156 96.0927 255.049 95.6188 254.836C95.1448 254.617 94.7385 254.315 94.4 253.93C94.0667 253.539 93.8115 253.083 93.6344 252.562C93.4573 252.042 93.3688 251.477 93.3688 250.867ZM94.8141 250.688V250.867C94.8141 251.289 94.8635 251.688 94.9625 252.062C95.0615 252.432 95.2099 252.76 95.4078 253.047C95.6109 253.333 95.8635 253.56 96.1656 253.727C96.4677 253.888 96.8193 253.969 97.2203 253.969C97.6161 253.969 97.9625 253.888 98.2594 253.727C98.5615 253.56 98.8115 253.333 99.0094 253.047C99.2073 252.76 99.3557 252.432 99.4547 252.062C99.5589 251.688 99.6109 251.289 99.6109 250.867V250.688C99.6109 250.271 99.5589 249.878 99.4547 249.508C99.3557 249.133 99.2047 248.802 99.0016 248.516C98.8036 248.224 98.5536 247.995 98.2516 247.828C97.9547 247.661 97.6057 247.578 97.2047 247.578C96.8089 247.578 96.4599 247.661 96.1578 247.828C95.8609 247.995 95.6109 248.224 95.4078 248.516C95.2099 248.802 95.0615 249.133 94.9625 249.508C94.8635 249.878 94.8141 250.271 94.8141 250.688ZM108.148 253.047V246.547H109.602V255H108.219L108.148 253.047ZM108.422 251.266L109.023 251.25C109.023 251.812 108.964 252.333 108.844 252.812C108.729 253.286 108.542 253.698 108.281 254.047C108.021 254.396 107.68 254.669 107.258 254.867C106.836 255.06 106.323 255.156 105.719 255.156C105.307 255.156 104.93 255.096 104.586 254.977C104.247 254.857 103.956 254.672 103.711 254.422C103.466 254.172 103.276 253.846 103.141 253.445C103.01 253.044 102.945 252.562 102.945 252V246.547H104.391V252.016C104.391 252.396 104.432 252.711 104.516 252.961C104.604 253.206 104.721 253.401 104.867 253.547C105.018 253.688 105.185 253.786 105.367 253.844C105.555 253.901 105.747 253.93 105.945 253.93C106.56 253.93 107.047 253.812 107.406 253.578C107.766 253.339 108.023 253.018 108.18 252.617C108.341 252.211 108.422 251.76 108.422 251.266ZM113.35 247.875V255H111.905V246.547H113.311L113.35 247.875ZM115.991 246.5L115.983 247.844C115.863 247.818 115.748 247.802 115.639 247.797C115.535 247.786 115.415 247.781 115.28 247.781C114.946 247.781 114.652 247.833 114.397 247.938C114.142 248.042 113.926 248.188 113.748 248.375C113.571 248.562 113.431 248.786 113.327 249.047C113.228 249.302 113.162 249.583 113.131 249.891L112.725 250.125C112.725 249.615 112.774 249.135 112.873 248.688C112.978 248.24 113.136 247.844 113.35 247.5C113.564 247.151 113.834 246.88 114.162 246.688C114.496 246.49 114.892 246.391 115.35 246.391C115.454 246.391 115.574 246.404 115.709 246.43C115.845 246.451 115.939 246.474 115.991 246.5ZM23.5391 270.227V277H22.0859V268.547H23.4609L23.5391 270.227ZM23.2422 272.453L22.5703 272.43C22.5755 271.852 22.651 271.318 22.7969 270.828C22.9427 270.333 23.1589 269.904 23.4453 269.539C23.7318 269.174 24.0885 268.893 24.5156 268.695C24.9427 268.492 25.4375 268.391 26 268.391C26.3958 268.391 26.7604 268.448 27.0938 268.562C27.4271 268.672 27.7161 268.846 27.9609 269.086C28.2057 269.326 28.3958 269.633 28.5312 270.008C28.6667 270.383 28.7344 270.836 28.7344 271.367V277H27.2891V271.438C27.2891 270.995 27.2135 270.641 27.0625 270.375C26.9167 270.109 26.7083 269.917 26.4375 269.797C26.1667 269.672 25.849 269.609 25.4844 269.609C25.0573 269.609 24.7005 269.685 24.4141 269.836C24.1276 269.987 23.8984 270.195 23.7266 270.461C23.5547 270.727 23.4297 271.031 23.3516 271.375C23.2786 271.714 23.2422 272.073 23.2422 272.453ZM28.7188 271.656L27.75 271.953C27.7552 271.49 27.8307 271.044 27.9766 270.617C28.1276 270.19 28.3438 269.81 28.625 269.477C28.9115 269.143 29.263 268.88 29.6797 268.688C30.0964 268.49 30.5729 268.391 31.1094 268.391C31.5625 268.391 31.9635 268.451 32.3125 268.57C32.6667 268.69 32.9635 268.875 33.2031 269.125C33.4479 269.37 33.6328 269.685 33.7578 270.07C33.8828 270.456 33.9453 270.914 33.9453 271.445V277H32.4922V271.43C32.4922 270.956 32.4167 270.589 32.2656 270.328C32.1198 270.062 31.9115 269.878 31.6406 269.773C31.375 269.664 31.0573 269.609 30.6875 269.609C30.3698 269.609 30.0885 269.664 29.8438 269.773C29.599 269.883 29.3932 270.034 29.2266 270.227C29.0599 270.414 28.9323 270.63 28.8438 270.875C28.7604 271.12 28.7188 271.38 28.7188 271.656ZM41.2172 275.555V271.203C41.2172 270.87 41.1495 270.581 41.0141 270.336C40.8839 270.086 40.6859 269.893 40.4203 269.758C40.1547 269.622 39.8266 269.555 39.4359 269.555C39.0714 269.555 38.751 269.617 38.475 269.742C38.2042 269.867 37.9906 270.031 37.8344 270.234C37.6833 270.438 37.6078 270.656 37.6078 270.891H36.1625C36.1625 270.589 36.2406 270.289 36.3969 269.992C36.5531 269.695 36.7771 269.427 37.0688 269.188C37.3656 268.943 37.7198 268.75 38.1313 268.609C38.5479 268.464 39.0115 268.391 39.5219 268.391C40.1365 268.391 40.6781 268.495 41.1469 268.703C41.6208 268.911 41.9906 269.227 42.2563 269.648C42.5271 270.065 42.6625 270.589 42.6625 271.219V275.156C42.6625 275.438 42.6859 275.737 42.7328 276.055C42.7849 276.372 42.8604 276.646 42.9594 276.875V277H41.4516C41.3786 276.833 41.3214 276.612 41.2797 276.336C41.238 276.055 41.2172 275.794 41.2172 275.555ZM41.4672 271.875L41.4828 272.891H40.0219C39.6104 272.891 39.2432 272.924 38.9203 272.992C38.5974 273.055 38.3266 273.151 38.1078 273.281C37.8891 273.411 37.7224 273.576 37.6078 273.773C37.4932 273.966 37.4359 274.193 37.4359 274.453C37.4359 274.719 37.4958 274.961 37.6156 275.18C37.7354 275.398 37.9151 275.573 38.1547 275.703C38.3995 275.828 38.699 275.891 39.0531 275.891C39.4958 275.891 39.8865 275.797 40.225 275.609C40.5635 275.422 40.8318 275.193 41.0297 274.922C41.2328 274.651 41.3422 274.388 41.3578 274.133L41.975 274.828C41.9385 275.047 41.8396 275.289 41.6781 275.555C41.5167 275.82 41.3005 276.076 41.0297 276.32C40.7641 276.56 40.4464 276.76 40.0766 276.922C39.712 277.078 39.3005 277.156 38.8422 277.156C38.2693 277.156 37.7667 277.044 37.3344 276.82C36.9073 276.596 36.574 276.297 36.3344 275.922C36.1 275.542 35.9828 275.117 35.9828 274.648C35.9828 274.195 36.0714 273.797 36.2484 273.453C36.4255 273.104 36.6807 272.815 37.0141 272.586C37.3474 272.352 37.7484 272.174 38.2172 272.055C38.6859 271.935 39.2094 271.875 39.7875 271.875H41.4672ZM46.4813 269.875V277H45.0359V268.547H46.4422L46.4813 269.875ZM49.1219 268.5L49.1141 269.844C48.9943 269.818 48.8797 269.802 48.7703 269.797C48.6661 269.786 48.5464 269.781 48.4109 269.781C48.0776 269.781 47.7833 269.833 47.5281 269.938C47.2729 270.042 47.0568 270.188 46.8797 270.375C46.7026 270.562 46.562 270.786 46.4578 271.047C46.3589 271.302 46.2938 271.583 46.2625 271.891L45.8563 272.125C45.8563 271.615 45.9057 271.135 46.0047 270.688C46.1089 270.24 46.2677 269.844 46.4813 269.5C46.6948 269.151 46.9656 268.88 47.2938 268.688C47.6271 268.49 48.0229 268.391 48.4813 268.391C48.5854 268.391 48.7052 268.404 48.8406 268.43C48.976 268.451 49.0698 268.474 49.1219 268.5ZM52.0109 265V277H50.5578V265H52.0109ZM57.175 268.547L53.4875 272.492L51.425 274.633L51.3078 273.094L52.7844 271.328L55.4094 268.547H57.175ZM55.8547 277L52.8391 272.969L53.5891 271.68L57.5578 277H55.8547ZM62.1188 277.156C61.5302 277.156 60.9964 277.057 60.5172 276.859C60.0432 276.656 59.6344 276.372 59.2906 276.008C58.9521 275.643 58.6917 275.211 58.5094 274.711C58.3271 274.211 58.2359 273.664 58.2359 273.07V272.742C58.2359 272.055 58.3375 271.443 58.5406 270.906C58.7438 270.365 59.0198 269.906 59.3688 269.531C59.7177 269.156 60.1135 268.872 60.5563 268.68C60.999 268.487 61.4573 268.391 61.9313 268.391C62.5354 268.391 63.0563 268.495 63.4938 268.703C63.9365 268.911 64.2984 269.203 64.5797 269.578C64.8609 269.948 65.0693 270.385 65.2047 270.891C65.3401 271.391 65.4078 271.938 65.4078 272.531V273.18H59.0953V272H63.9625V271.891C63.9417 271.516 63.8635 271.151 63.7281 270.797C63.5979 270.443 63.3896 270.151 63.1031 269.922C62.8167 269.693 62.426 269.578 61.9313 269.578C61.6031 269.578 61.301 269.648 61.025 269.789C60.749 269.924 60.512 270.128 60.3141 270.398C60.1161 270.669 59.9625 271 59.8531 271.391C59.7438 271.781 59.6891 272.232 59.6891 272.742V273.07C59.6891 273.471 59.7438 273.849 59.8531 274.203C59.9677 274.552 60.1318 274.859 60.3453 275.125C60.5641 275.391 60.8271 275.599 61.1344 275.75C61.4469 275.901 61.801 275.977 62.1969 275.977C62.7073 275.977 63.1396 275.872 63.4938 275.664C63.8479 275.456 64.1578 275.177 64.4234 274.828L65.2984 275.523C65.1161 275.799 64.8844 276.062 64.6031 276.312C64.3219 276.562 63.9755 276.766 63.5641 276.922C63.1578 277.078 62.676 277.156 62.1188 277.156ZM70.7344 268.547V269.656H66.1641V268.547H70.7344ZM67.7109 266.492H69.1562V274.906C69.1562 275.193 69.2005 275.409 69.2891 275.555C69.3776 275.701 69.4922 275.797 69.6328 275.844C69.7734 275.891 69.9245 275.914 70.0859 275.914C70.2057 275.914 70.3307 275.904 70.4609 275.883C70.5964 275.857 70.6979 275.836 70.7656 275.82L70.7734 277C70.6589 277.036 70.5078 277.07 70.3203 277.102C70.138 277.138 69.9167 277.156 69.6562 277.156C69.3021 277.156 68.9766 277.086 68.6797 276.945C68.3828 276.805 68.1458 276.57 67.9688 276.242C67.7969 275.909 67.7109 275.461 67.7109 274.898V266.492ZM74.1 268.547V277H72.6469V268.547H74.1ZM72.5375 266.305C72.5375 266.07 72.6078 265.872 72.7484 265.711C72.8943 265.549 73.1078 265.469 73.3891 265.469C73.6651 265.469 73.876 265.549 74.0219 265.711C74.1729 265.872 74.2484 266.07 74.2484 266.305C74.2484 266.529 74.1729 266.721 74.0219 266.883C73.876 267.039 73.6651 267.117 73.3891 267.117C73.1078 267.117 72.8943 267.039 72.7484 266.883C72.6078 266.721 72.5375 266.529 72.5375 266.305ZM77.9656 270.352V277H76.5203V268.547H77.8875L77.9656 270.352ZM77.6219 272.453L77.0203 272.43C77.0255 271.852 77.1115 271.318 77.2781 270.828C77.4448 270.333 77.6792 269.904 77.9813 269.539C78.2833 269.174 78.6427 268.893 79.0594 268.695C79.4813 268.492 79.9474 268.391 80.4578 268.391C80.8745 268.391 81.2495 268.448 81.5828 268.562C81.9161 268.672 82.2 268.849 82.4344 269.094C82.674 269.339 82.8563 269.656 82.9813 270.047C83.1063 270.432 83.1688 270.904 83.1688 271.461V277H81.7156V271.445C81.7156 271.003 81.6505 270.648 81.5203 270.383C81.3901 270.112 81.2 269.917 80.95 269.797C80.7 269.672 80.3927 269.609 80.0281 269.609C79.6688 269.609 79.3406 269.685 79.0438 269.836C78.7521 269.987 78.4995 270.195 78.2859 270.461C78.0776 270.727 77.9135 271.031 77.7938 271.375C77.6792 271.714 77.6219 272.073 77.6219 272.453ZM90.9406 268.547H92.2531V276.82C92.2531 277.565 92.1021 278.201 91.8 278.727C91.4979 279.253 91.076 279.651 90.5344 279.922C89.9979 280.198 89.3781 280.336 88.675 280.336C88.3833 280.336 88.0396 280.289 87.6437 280.195C87.2531 280.107 86.8677 279.953 86.4875 279.734C86.1125 279.521 85.7974 279.232 85.5422 278.867L86.3 278.008C86.6542 278.435 87.024 278.732 87.4094 278.898C87.8 279.065 88.1854 279.148 88.5656 279.148C89.024 279.148 89.4198 279.062 89.7531 278.891C90.0865 278.719 90.3443 278.464 90.5266 278.125C90.7141 277.792 90.8078 277.38 90.8078 276.891V270.406L90.9406 268.547ZM85.1203 272.867V272.703C85.1203 272.057 85.1958 271.471 85.3469 270.945C85.5031 270.414 85.7245 269.958 86.0109 269.578C86.3026 269.198 86.6542 268.906 87.0656 268.703C87.4771 268.495 87.9406 268.391 88.4562 268.391C88.9875 268.391 89.451 268.484 89.8469 268.672C90.2479 268.854 90.5865 269.122 90.8625 269.477C91.1437 269.826 91.3651 270.247 91.5266 270.742C91.688 271.237 91.8 271.797 91.8625 272.422V273.141C91.8052 273.76 91.6932 274.318 91.5266 274.812C91.3651 275.307 91.1437 275.729 90.8625 276.078C90.5865 276.427 90.2479 276.695 89.8469 276.883C89.4458 277.065 88.9771 277.156 88.4406 277.156C87.9354 277.156 87.4771 277.049 87.0656 276.836C86.6594 276.622 86.3104 276.323 86.0187 275.938C85.7271 275.552 85.5031 275.099 85.3469 274.578C85.1958 274.052 85.1203 273.482 85.1203 272.867ZM86.5656 272.703V272.867C86.5656 273.289 86.6073 273.685 86.6906 274.055C86.7792 274.424 86.912 274.75 87.0891 275.031C87.2714 275.312 87.5031 275.534 87.7844 275.695C88.0656 275.852 88.4016 275.93 88.7922 275.93C89.2714 275.93 89.6672 275.828 89.9797 275.625C90.2922 275.422 90.5396 275.154 90.7219 274.82C90.9094 274.487 91.0552 274.125 91.1594 273.734V271.852C91.1021 271.565 91.0135 271.289 90.8937 271.023C90.7792 270.753 90.6281 270.513 90.4406 270.305C90.2583 270.091 90.0318 269.922 89.7609 269.797C89.4901 269.672 89.1724 269.609 88.8078 269.609C88.412 269.609 88.0708 269.693 87.7844 269.859C87.5031 270.021 87.2714 270.245 87.0891 270.531C86.912 270.812 86.7792 271.141 86.6906 271.516C86.6073 271.885 86.5656 272.281 86.5656 272.703ZM102.156 268.547V269.656H97.5859V268.547H102.156ZM99.1328 266.492H100.578V274.906C100.578 275.193 100.622 275.409 100.711 275.555C100.799 275.701 100.914 275.797 101.055 275.844C101.195 275.891 101.346 275.914 101.508 275.914C101.628 275.914 101.753 275.904 101.883 275.883C102.018 275.857 102.12 275.836 102.188 275.82L102.195 277C102.081 277.036 101.93 277.07 101.742 277.102C101.56 277.138 101.339 277.156 101.078 277.156C100.724 277.156 100.398 277.086 100.102 276.945C99.8047 276.805 99.5677 276.57 99.3906 276.242C99.2188 275.909 99.1328 275.461 99.1328 274.898V266.492ZM103.412 272.867V272.688C103.412 272.078 103.501 271.513 103.678 270.992C103.855 270.466 104.11 270.01 104.444 269.625C104.777 269.234 105.181 268.932 105.655 268.719C106.129 268.5 106.66 268.391 107.248 268.391C107.842 268.391 108.376 268.5 108.85 268.719C109.329 268.932 109.735 269.234 110.069 269.625C110.407 270.01 110.665 270.466 110.842 270.992C111.019 271.513 111.108 272.078 111.108 272.688V272.867C111.108 273.477 111.019 274.042 110.842 274.562C110.665 275.083 110.407 275.539 110.069 275.93C109.735 276.315 109.332 276.617 108.858 276.836C108.389 277.049 107.858 277.156 107.264 277.156C106.67 277.156 106.136 277.049 105.662 276.836C105.189 276.617 104.782 276.315 104.444 275.93C104.11 275.539 103.855 275.083 103.678 274.562C103.501 274.042 103.412 273.477 103.412 272.867ZM104.858 272.688V272.867C104.858 273.289 104.907 273.688 105.006 274.062C105.105 274.432 105.254 274.76 105.452 275.047C105.655 275.333 105.907 275.56 106.209 275.727C106.511 275.888 106.863 275.969 107.264 275.969C107.66 275.969 108.006 275.888 108.303 275.727C108.605 275.56 108.855 275.333 109.053 275.047C109.251 274.76 109.399 274.432 109.498 274.062C109.603 273.688 109.655 273.289 109.655 272.867V272.688C109.655 272.271 109.603 271.878 109.498 271.508C109.399 271.133 109.248 270.802 109.045 270.516C108.847 270.224 108.597 269.995 108.295 269.828C107.998 269.661 107.649 269.578 107.248 269.578C106.853 269.578 106.504 269.661 106.202 269.828C105.905 269.995 105.655 270.224 105.452 270.516C105.254 270.802 105.105 271.133 105.006 271.508C104.907 271.878 104.858 272.271 104.858 272.688ZM112.637 272.867V272.688C112.637 272.078 112.726 271.513 112.903 270.992C113.08 270.466 113.335 270.01 113.669 269.625C114.002 269.234 114.406 268.932 114.88 268.719C115.354 268.5 115.885 268.391 116.473 268.391C117.067 268.391 117.601 268.5 118.075 268.719C118.554 268.932 118.96 269.234 119.294 269.625C119.632 270.01 119.89 270.466 120.067 270.992C120.244 271.513 120.333 272.078 120.333 272.688V272.867C120.333 273.477 120.244 274.042 120.067 274.562C119.89 275.083 119.632 275.539 119.294 275.93C118.96 276.315 118.557 276.617 118.083 276.836C117.614 277.049 117.083 277.156 116.489 277.156C115.895 277.156 115.361 277.049 114.887 276.836C114.414 276.617 114.007 276.315 113.669 275.93C113.335 275.539 113.08 275.083 112.903 274.562C112.726 274.042 112.637 273.477 112.637 272.867ZM114.083 272.688V272.867C114.083 273.289 114.132 273.688 114.231 274.062C114.33 274.432 114.479 274.76 114.677 275.047C114.88 275.333 115.132 275.56 115.434 275.727C115.736 275.888 116.088 275.969 116.489 275.969C116.885 275.969 117.231 275.888 117.528 275.727C117.83 275.56 118.08 275.333 118.278 275.047C118.476 274.76 118.624 274.432 118.723 274.062C118.828 273.688 118.88 273.289 118.88 272.867V272.688C118.88 272.271 118.828 271.878 118.723 271.508C118.624 271.133 118.473 270.802 118.27 270.516C118.072 270.224 117.822 269.995 117.52 269.828C117.223 269.661 116.874 269.578 116.473 269.578C116.078 269.578 115.729 269.661 115.427 269.828C115.13 269.995 114.88 270.224 114.677 270.516C114.479 270.802 114.33 271.133 114.231 271.508C114.132 271.878 114.083 272.271 114.083 272.688ZM123.816 265V277H122.363V265H123.816ZM131.158 274.758C131.158 274.549 131.111 274.357 131.017 274.18C130.929 273.997 130.744 273.833 130.463 273.688C130.186 273.536 129.77 273.406 129.213 273.297C128.744 273.198 128.319 273.081 127.939 272.945C127.564 272.81 127.244 272.646 126.978 272.453C126.718 272.26 126.517 272.034 126.377 271.773C126.236 271.513 126.166 271.208 126.166 270.859C126.166 270.526 126.239 270.211 126.384 269.914C126.535 269.617 126.746 269.354 127.017 269.125C127.293 268.896 127.624 268.716 128.009 268.586C128.395 268.456 128.824 268.391 129.298 268.391C129.976 268.391 130.554 268.51 131.033 268.75C131.512 268.99 131.879 269.31 132.134 269.711C132.39 270.107 132.517 270.547 132.517 271.031H131.072C131.072 270.797 131.002 270.57 130.861 270.352C130.726 270.128 130.525 269.943 130.259 269.797C129.999 269.651 129.679 269.578 129.298 269.578C128.897 269.578 128.572 269.641 128.322 269.766C128.077 269.885 127.897 270.039 127.783 270.227C127.673 270.414 127.619 270.612 127.619 270.82C127.619 270.977 127.645 271.117 127.697 271.242C127.754 271.362 127.853 271.474 127.994 271.578C128.134 271.677 128.332 271.771 128.588 271.859C128.843 271.948 129.168 272.036 129.564 272.125C130.257 272.281 130.827 272.469 131.275 272.688C131.723 272.906 132.056 273.174 132.275 273.492C132.494 273.81 132.603 274.195 132.603 274.648C132.603 275.018 132.525 275.357 132.369 275.664C132.218 275.971 131.996 276.237 131.705 276.461C131.418 276.68 131.074 276.852 130.673 276.977C130.278 277.096 129.832 277.156 129.338 277.156C128.593 277.156 127.963 277.023 127.447 276.758C126.931 276.492 126.541 276.148 126.275 275.727C126.009 275.305 125.877 274.859 125.877 274.391H127.33C127.351 274.786 127.465 275.102 127.673 275.336C127.882 275.565 128.137 275.729 128.439 275.828C128.741 275.922 129.041 275.969 129.338 275.969C129.733 275.969 130.064 275.917 130.33 275.812C130.601 275.708 130.806 275.565 130.947 275.383C131.088 275.201 131.158 274.992 131.158 274.758ZM140.811 275.5L142.983 268.547H143.936L143.748 269.93L141.537 277H140.608L140.811 275.5ZM139.35 268.547L141.202 275.578L141.334 277H140.358L137.905 268.547H139.35ZM146.014 275.523L147.78 268.547H149.217L146.764 277H145.795L146.014 275.523ZM144.147 268.547L146.272 275.383L146.514 277H145.592L143.319 269.914L143.131 268.547H144.147ZM152.372 268.547V277H150.919V268.547H152.372ZM150.809 266.305C150.809 266.07 150.88 265.872 151.02 265.711C151.166 265.549 151.38 265.469 151.661 265.469C151.937 265.469 152.148 265.549 152.294 265.711C152.445 265.872 152.52 266.07 152.52 266.305C152.52 266.529 152.445 266.721 152.294 266.883C152.148 267.039 151.937 267.117 151.661 267.117C151.38 267.117 151.166 267.039 151.02 266.883C150.88 266.721 150.809 266.529 150.809 266.305ZM158.331 268.547V269.656H153.761V268.547H158.331ZM155.308 266.492H156.753V274.906C156.753 275.193 156.797 275.409 156.886 275.555C156.974 275.701 157.089 275.797 157.23 275.844C157.37 275.891 157.521 275.914 157.683 275.914C157.803 275.914 157.928 275.904 158.058 275.883C158.193 275.857 158.295 275.836 158.363 275.82L158.37 277C158.256 277.036 158.105 277.07 157.917 277.102C157.735 277.138 157.514 277.156 157.253 277.156C156.899 277.156 156.573 277.086 156.277 276.945C155.98 276.805 155.743 276.57 155.566 276.242C155.394 275.909 155.308 275.461 155.308 274.898V266.492ZM161.572 265V277H160.127V265H161.572ZM161.228 272.453L160.627 272.43C160.632 271.852 160.718 271.318 160.884 270.828C161.051 270.333 161.285 269.904 161.587 269.539C161.89 269.174 162.249 268.893 162.666 268.695C163.087 268.492 163.554 268.391 164.064 268.391C164.481 268.391 164.856 268.448 165.189 268.562C165.522 268.672 165.806 268.849 166.041 269.094C166.28 269.339 166.462 269.656 166.587 270.047C166.712 270.432 166.775 270.904 166.775 271.461V277H165.322V271.445C165.322 271.003 165.257 270.648 165.127 270.383C164.996 270.112 164.806 269.917 164.556 269.797C164.306 269.672 163.999 269.609 163.634 269.609C163.275 269.609 162.947 269.685 162.65 269.836C162.358 269.987 162.106 270.195 161.892 270.461C161.684 270.727 161.52 271.031 161.4 271.375C161.285 271.714 161.228 272.073 161.228 272.453ZM22.0938 287H23.5469V297.359L23.4219 299H22.0938V287ZM29.2578 294.703V294.867C29.2578 295.482 29.1849 296.052 29.0391 296.578C28.8932 297.099 28.6797 297.552 28.3984 297.938C28.1172 298.323 27.7734 298.622 27.3672 298.836C26.9609 299.049 26.4948 299.156 25.9688 299.156C25.4323 299.156 24.9609 299.065 24.5547 298.883C24.1536 298.695 23.8151 298.427 23.5391 298.078C23.263 297.729 23.0417 297.307 22.875 296.812C22.7135 296.318 22.6016 295.76 22.5391 295.141V294.422C22.6016 293.797 22.7135 293.237 22.875 292.742C23.0417 292.247 23.263 291.826 23.5391 291.477C23.8151 291.122 24.1536 290.854 24.5547 290.672C24.9557 290.484 25.4219 290.391 25.9531 290.391C26.4844 290.391 26.9557 290.495 27.3672 290.703C27.7786 290.906 28.1224 291.198 28.3984 291.578C28.6797 291.958 28.8932 292.414 29.0391 292.945C29.1849 293.471 29.2578 294.057 29.2578 294.703ZM27.8047 294.867V294.703C27.8047 294.281 27.7656 293.885 27.6875 293.516C27.6094 293.141 27.4844 292.812 27.3125 292.531C27.1406 292.245 26.9141 292.021 26.6328 291.859C26.3516 291.693 26.0052 291.609 25.5938 291.609C25.2292 291.609 24.9115 291.672 24.6406 291.797C24.375 291.922 24.1484 292.091 23.9609 292.305C23.7734 292.513 23.6198 292.753 23.5 293.023C23.3854 293.289 23.2995 293.565 23.2422 293.852V295.734C23.3255 296.099 23.4609 296.451 23.6484 296.789C23.8411 297.122 24.0964 297.396 24.4141 297.609C24.737 297.823 25.1354 297.93 25.6094 297.93C26 297.93 26.3333 297.852 26.6094 297.695C26.8906 297.534 27.1172 297.312 27.2891 297.031C27.4661 296.75 27.5964 296.424 27.6797 296.055C27.763 295.685 27.8047 295.289 27.8047 294.867ZM36.3578 297.047V290.547H37.8109V299H36.4281L36.3578 297.047ZM36.6313 295.266L37.2328 295.25C37.2328 295.812 37.1729 296.333 37.0531 296.812C36.9385 297.286 36.751 297.698 36.4906 298.047C36.2302 298.396 35.8891 298.669 35.4672 298.867C35.0453 299.06 34.5323 299.156 33.9281 299.156C33.5167 299.156 33.1391 299.096 32.7953 298.977C32.4568 298.857 32.1651 298.672 31.9203 298.422C31.6755 298.172 31.4854 297.846 31.35 297.445C31.2198 297.044 31.1547 296.562 31.1547 296V290.547H32.6V296.016C32.6 296.396 32.6417 296.711 32.725 296.961C32.8135 297.206 32.9307 297.401 33.0766 297.547C33.2276 297.688 33.3943 297.786 33.5766 297.844C33.7641 297.901 33.9568 297.93 34.1547 297.93C34.7693 297.93 35.2563 297.812 35.6156 297.578C35.975 297.339 36.2328 297.018 36.3891 296.617C36.5505 296.211 36.6313 295.76 36.6313 295.266ZM41.6844 290.547V299H40.2313V290.547H41.6844ZM40.1219 288.305C40.1219 288.07 40.1922 287.872 40.3328 287.711C40.4786 287.549 40.6922 287.469 40.9734 287.469C41.2495 287.469 41.4604 287.549 41.6063 287.711C41.7573 287.872 41.8328 288.07 41.8328 288.305C41.8328 288.529 41.7573 288.721 41.6063 288.883C41.4604 289.039 41.2495 289.117 40.9734 289.117C40.6922 289.117 40.4786 289.039 40.3328 288.883C40.1922 288.721 40.1219 288.529 40.1219 288.305ZM45.675 287V299H44.2219V287H45.675ZM51.6344 290.547V291.656H47.0641V290.547H51.6344ZM48.6109 288.492H50.0562V296.906C50.0562 297.193 50.1005 297.409 50.1891 297.555C50.2776 297.701 50.3922 297.797 50.5328 297.844C50.6734 297.891 50.8245 297.914 50.9859 297.914C51.1057 297.914 51.2307 297.904 51.3609 297.883C51.4964 297.857 51.5979 297.836 51.6656 297.82L51.6734 299C51.5589 299.036 51.4078 299.07 51.2203 299.102C51.038 299.138 50.8167 299.156 50.5562 299.156C50.2021 299.156 49.8766 299.086 49.5797 298.945C49.2828 298.805 49.0458 298.57 48.8687 298.242C48.6969 297.909 48.6109 297.461 48.6109 296.898V288.492ZM56.4375 293.57V294.758H52.625V293.57H56.4375ZM59.5219 290.547V299H58.0687V290.547H59.5219ZM57.9594 288.305C57.9594 288.07 58.0297 287.872 58.1703 287.711C58.3161 287.549 58.5297 287.469 58.8109 287.469C59.087 287.469 59.2979 287.549 59.4437 287.711C59.5948 287.872 59.6703 288.07 59.6703 288.305C59.6703 288.529 59.5948 288.721 59.4437 288.883C59.2979 289.039 59.087 289.117 58.8109 289.117C58.5297 289.117 58.3161 289.039 58.1703 288.883C58.0297 288.721 57.9594 288.529 57.9594 288.305ZM63.3875 292.352V299H61.9422V290.547H63.3094L63.3875 292.352ZM63.0438 294.453L62.4422 294.43C62.4474 293.852 62.5333 293.318 62.7 292.828C62.8667 292.333 63.101 291.904 63.4031 291.539C63.7052 291.174 64.0646 290.893 64.4813 290.695C64.9031 290.492 65.3693 290.391 65.8797 290.391C66.2964 290.391 66.6714 290.448 67.0047 290.562C67.338 290.672 67.6219 290.849 67.8563 291.094C68.0958 291.339 68.2781 291.656 68.4031 292.047C68.5281 292.432 68.5906 292.904 68.5906 293.461V299H67.1375V293.445C67.1375 293.003 67.0724 292.648 66.9422 292.383C66.812 292.112 66.6219 291.917 66.3719 291.797C66.1219 291.672 65.8146 291.609 65.45 291.609C65.0906 291.609 64.7625 291.685 64.4656 291.836C64.174 291.987 63.9214 292.195 63.7078 292.461C63.4995 292.727 63.3354 293.031 63.2156 293.375C63.101 293.714 63.0438 294.073 63.0438 294.453ZM76.525 290.547V299H75.0719V290.547H76.525ZM74.9625 288.305C74.9625 288.07 75.0328 287.872 75.1734 287.711C75.3193 287.549 75.5328 287.469 75.8141 287.469C76.0901 287.469 76.301 287.549 76.4469 287.711C76.5979 287.872 76.6734 288.07 76.6734 288.305C76.6734 288.529 76.5979 288.721 76.4469 288.883C76.301 289.039 76.0901 289.117 75.8141 289.117C75.5328 289.117 75.3193 289.039 75.1734 288.883C75.0328 288.721 74.9625 288.529 74.9625 288.305ZM80.3906 292.352V299H78.9453V290.547H80.3125L80.3906 292.352ZM80.0469 294.453L79.4453 294.43C79.4505 293.852 79.5365 293.318 79.7031 292.828C79.8698 292.333 80.1042 291.904 80.4062 291.539C80.7083 291.174 81.0677 290.893 81.4844 290.695C81.9062 290.492 82.3724 290.391 82.8828 290.391C83.2995 290.391 83.6745 290.448 84.0078 290.562C84.3411 290.672 84.625 290.849 84.8594 291.094C85.099 291.339 85.2812 291.656 85.4062 292.047C85.5312 292.432 85.5938 292.904 85.5938 293.461V299H84.1406V293.445C84.1406 293.003 84.0755 292.648 83.9453 292.383C83.8151 292.112 83.625 291.917 83.375 291.797C83.125 291.672 82.8177 291.609 82.4531 291.609C82.0938 291.609 81.7656 291.685 81.4688 291.836C81.1771 291.987 80.9245 292.195 80.7109 292.461C80.5026 292.727 80.3385 293.031 80.2188 293.375C80.1042 293.714 80.0469 294.073 80.0469 294.453ZM91.4281 290.547V291.656H86.8578V290.547H91.4281ZM88.4047 288.492H89.85V296.906C89.85 297.193 89.8943 297.409 89.9828 297.555C90.0714 297.701 90.1859 297.797 90.3266 297.844C90.4672 297.891 90.6182 297.914 90.7797 297.914C90.8995 297.914 91.0245 297.904 91.1547 297.883C91.2901 297.857 91.3917 297.836 91.4594 297.82L91.4672 299C91.3526 299.036 91.2016 299.07 91.0141 299.102C90.8318 299.138 90.6104 299.156 90.35 299.156C89.9958 299.156 89.6703 299.086 89.3734 298.945C89.0766 298.805 88.8396 298.57 88.6625 298.242C88.4906 297.909 88.4047 297.461 88.4047 296.898V288.492ZM96.7312 299.156C96.1427 299.156 95.6089 299.057 95.1297 298.859C94.6557 298.656 94.2469 298.372 93.9031 298.008C93.5646 297.643 93.3042 297.211 93.1219 296.711C92.9396 296.211 92.8484 295.664 92.8484 295.07V294.742C92.8484 294.055 92.95 293.443 93.1531 292.906C93.3562 292.365 93.6323 291.906 93.9812 291.531C94.3302 291.156 94.726 290.872 95.1687 290.68C95.6115 290.487 96.0698 290.391 96.5437 290.391C97.1479 290.391 97.6687 290.495 98.1062 290.703C98.549 290.911 98.9109 291.203 99.1922 291.578C99.4734 291.948 99.6818 292.385 99.8172 292.891C99.9526 293.391 100.02 293.938 100.02 294.531V295.18H93.7078V294H98.575V293.891C98.5542 293.516 98.476 293.151 98.3406 292.797C98.2104 292.443 98.0021 292.151 97.7156 291.922C97.4292 291.693 97.0385 291.578 96.5437 291.578C96.2156 291.578 95.9135 291.648 95.6375 291.789C95.3615 291.924 95.1245 292.128 94.9266 292.398C94.7286 292.669 94.575 293 94.4656 293.391C94.3562 293.781 94.3016 294.232 94.3016 294.742V295.07C94.3016 295.471 94.3562 295.849 94.4656 296.203C94.5802 296.552 94.7443 296.859 94.9578 297.125C95.1766 297.391 95.4396 297.599 95.7469 297.75C96.0594 297.901 96.4135 297.977 96.8094 297.977C97.3198 297.977 97.7521 297.872 98.1062 297.664C98.4604 297.456 98.7703 297.177 99.0359 296.828L99.9109 297.523C99.7286 297.799 99.4969 298.062 99.2156 298.312C98.9344 298.562 98.588 298.766 98.1766 298.922C97.7703 299.078 97.2885 299.156 96.7312 299.156ZM107.284 290.547H108.597V298.82C108.597 299.565 108.446 300.201 108.144 300.727C107.842 301.253 107.42 301.651 106.878 301.922C106.342 302.198 105.722 302.336 105.019 302.336C104.727 302.336 104.383 302.289 103.988 302.195C103.597 302.107 103.211 301.953 102.831 301.734C102.456 301.521 102.141 301.232 101.886 300.867L102.644 300.008C102.998 300.435 103.368 300.732 103.753 300.898C104.144 301.065 104.529 301.148 104.909 301.148C105.368 301.148 105.764 301.062 106.097 300.891C106.43 300.719 106.688 300.464 106.87 300.125C107.058 299.792 107.152 299.38 107.152 298.891V292.406L107.284 290.547ZM101.464 294.867V294.703C101.464 294.057 101.54 293.471 101.691 292.945C101.847 292.414 102.068 291.958 102.355 291.578C102.646 291.198 102.998 290.906 103.409 290.703C103.821 290.495 104.284 290.391 104.8 290.391C105.331 290.391 105.795 290.484 106.191 290.672C106.592 290.854 106.93 291.122 107.206 291.477C107.488 291.826 107.709 292.247 107.87 292.742C108.032 293.237 108.144 293.797 108.206 294.422V295.141C108.149 295.76 108.037 296.318 107.87 296.812C107.709 297.307 107.488 297.729 107.206 298.078C106.93 298.427 106.592 298.695 106.191 298.883C105.79 299.065 105.321 299.156 104.784 299.156C104.279 299.156 103.821 299.049 103.409 298.836C103.003 298.622 102.654 298.323 102.363 297.938C102.071 297.552 101.847 297.099 101.691 296.578C101.54 296.052 101.464 295.482 101.464 294.867ZM102.909 294.703V294.867C102.909 295.289 102.951 295.685 103.034 296.055C103.123 296.424 103.256 296.75 103.433 297.031C103.615 297.312 103.847 297.534 104.128 297.695C104.409 297.852 104.745 297.93 105.136 297.93C105.615 297.93 106.011 297.828 106.323 297.625C106.636 297.422 106.883 297.154 107.066 296.82C107.253 296.487 107.399 296.125 107.503 295.734V293.852C107.446 293.565 107.357 293.289 107.238 293.023C107.123 292.753 106.972 292.513 106.784 292.305C106.602 292.091 106.376 291.922 106.105 291.797C105.834 291.672 105.516 291.609 105.152 291.609C104.756 291.609 104.415 291.693 104.128 291.859C103.847 292.021 103.615 292.245 103.433 292.531C103.256 292.812 103.123 293.141 103.034 293.516C102.951 293.885 102.909 294.281 102.909 294.703ZM112.338 291.875V299H110.892V290.547H112.298L112.338 291.875ZM114.978 290.5L114.97 291.844C114.851 291.818 114.736 291.802 114.627 291.797C114.522 291.786 114.403 291.781 114.267 291.781C113.934 291.781 113.64 291.833 113.384 291.938C113.129 292.042 112.913 292.188 112.736 292.375C112.559 292.562 112.418 292.786 112.314 293.047C112.215 293.302 112.15 293.583 112.119 293.891L111.713 294.125C111.713 293.615 111.762 293.135 111.861 292.688C111.965 292.24 112.124 291.844 112.338 291.5C112.551 291.151 112.822 290.88 113.15 290.688C113.483 290.49 113.879 290.391 114.338 290.391C114.442 290.391 114.561 290.404 114.697 290.43C114.832 290.451 114.926 290.474 114.978 290.5ZM121.086 297.555V293.203C121.086 292.87 121.018 292.581 120.883 292.336C120.753 292.086 120.555 291.893 120.289 291.758C120.023 291.622 119.695 291.555 119.305 291.555C118.94 291.555 118.62 291.617 118.344 291.742C118.073 291.867 117.859 292.031 117.703 292.234C117.552 292.438 117.477 292.656 117.477 292.891H116.031C116.031 292.589 116.109 292.289 116.266 291.992C116.422 291.695 116.646 291.427 116.938 291.188C117.234 290.943 117.589 290.75 118 290.609C118.417 290.464 118.88 290.391 119.391 290.391C120.005 290.391 120.547 290.495 121.016 290.703C121.49 290.911 121.859 291.227 122.125 291.648C122.396 292.065 122.531 292.589 122.531 293.219V297.156C122.531 297.438 122.555 297.737 122.602 298.055C122.654 298.372 122.729 298.646 122.828 298.875V299H121.32C121.247 298.833 121.19 298.612 121.148 298.336C121.107 298.055 121.086 297.794 121.086 297.555ZM121.336 293.875L121.352 294.891H119.891C119.479 294.891 119.112 294.924 118.789 294.992C118.466 295.055 118.195 295.151 117.977 295.281C117.758 295.411 117.591 295.576 117.477 295.773C117.362 295.966 117.305 296.193 117.305 296.453C117.305 296.719 117.365 296.961 117.484 297.18C117.604 297.398 117.784 297.573 118.023 297.703C118.268 297.828 118.568 297.891 118.922 297.891C119.365 297.891 119.755 297.797 120.094 297.609C120.432 297.422 120.701 297.193 120.898 296.922C121.102 296.651 121.211 296.388 121.227 296.133L121.844 296.828C121.807 297.047 121.708 297.289 121.547 297.555C121.385 297.82 121.169 298.076 120.898 298.32C120.633 298.56 120.315 298.76 119.945 298.922C119.581 299.078 119.169 299.156 118.711 299.156C118.138 299.156 117.635 299.044 117.203 298.82C116.776 298.596 116.443 298.297 116.203 297.922C115.969 297.542 115.852 297.117 115.852 296.648C115.852 296.195 115.94 295.797 116.117 295.453C116.294 295.104 116.549 294.815 116.883 294.586C117.216 294.352 117.617 294.174 118.086 294.055C118.555 293.935 119.078 293.875 119.656 293.875H121.336ZM128.444 290.547V291.656H123.873V290.547H128.444ZM125.42 288.492H126.866V296.906C126.866 297.193 126.91 297.409 126.998 297.555C127.087 297.701 127.202 297.797 127.342 297.844C127.483 297.891 127.634 297.914 127.795 297.914C127.915 297.914 128.04 297.904 128.17 297.883C128.306 297.857 128.407 297.836 128.475 297.82L128.483 299C128.368 299.036 128.217 299.07 128.03 299.102C127.847 299.138 127.626 299.156 127.366 299.156C127.011 299.156 126.686 299.086 126.389 298.945C126.092 298.805 125.855 298.57 125.678 298.242C125.506 297.909 125.42 297.461 125.42 296.898V288.492ZM131.809 290.547V299H130.356V290.547H131.809ZM130.247 288.305C130.247 288.07 130.317 287.872 130.458 287.711C130.604 287.549 130.817 287.469 131.098 287.469C131.374 287.469 131.585 287.549 131.731 287.711C131.882 287.872 131.958 288.07 131.958 288.305C131.958 288.529 131.882 288.721 131.731 288.883C131.585 289.039 131.374 289.117 131.098 289.117C130.817 289.117 130.604 289.039 130.458 288.883C130.317 288.721 130.247 288.529 130.247 288.305ZM133.847 294.867V294.688C133.847 294.078 133.935 293.513 134.113 292.992C134.29 292.466 134.545 292.01 134.878 291.625C135.211 291.234 135.615 290.932 136.089 290.719C136.563 290.5 137.094 290.391 137.683 290.391C138.277 290.391 138.81 290.5 139.284 290.719C139.764 290.932 140.17 291.234 140.503 291.625C140.842 292.01 141.099 292.466 141.277 292.992C141.454 293.513 141.542 294.078 141.542 294.688V294.867C141.542 295.477 141.454 296.042 141.277 296.562C141.099 297.083 140.842 297.539 140.503 297.93C140.17 298.315 139.766 298.617 139.292 298.836C138.823 299.049 138.292 299.156 137.698 299.156C137.105 299.156 136.571 299.049 136.097 298.836C135.623 298.617 135.217 298.315 134.878 297.93C134.545 297.539 134.29 297.083 134.113 296.562C133.935 296.042 133.847 295.477 133.847 294.867ZM135.292 294.688V294.867C135.292 295.289 135.342 295.688 135.441 296.062C135.54 296.432 135.688 296.76 135.886 297.047C136.089 297.333 136.342 297.56 136.644 297.727C136.946 297.888 137.297 297.969 137.698 297.969C138.094 297.969 138.441 297.888 138.738 297.727C139.04 297.56 139.29 297.333 139.488 297.047C139.685 296.76 139.834 296.432 139.933 296.062C140.037 295.688 140.089 295.289 140.089 294.867V294.688C140.089 294.271 140.037 293.878 139.933 293.508C139.834 293.133 139.683 292.802 139.48 292.516C139.282 292.224 139.032 291.995 138.73 291.828C138.433 291.661 138.084 291.578 137.683 291.578C137.287 291.578 136.938 291.661 136.636 291.828C136.339 291.995 136.089 292.224 135.886 292.516C135.688 292.802 135.54 293.133 135.441 293.508C135.342 293.878 135.292 294.271 135.292 294.688ZM144.9 292.352V299H143.455V290.547H144.822L144.9 292.352ZM144.556 294.453L143.955 294.43C143.96 293.852 144.046 293.318 144.213 292.828C144.379 292.333 144.614 291.904 144.916 291.539C145.218 291.174 145.577 290.893 145.994 290.695C146.416 290.492 146.882 290.391 147.392 290.391C147.809 290.391 148.184 290.448 148.517 290.562C148.851 290.672 149.134 290.849 149.369 291.094C149.608 291.339 149.791 291.656 149.916 292.047C150.041 292.432 150.103 292.904 150.103 293.461V299H148.65V293.445C148.65 293.003 148.585 292.648 148.455 292.383C148.324 292.112 148.134 291.917 147.884 291.797C147.634 291.672 147.327 291.609 146.963 291.609C146.603 291.609 146.275 291.685 145.978 291.836C145.686 291.987 145.434 292.195 145.22 292.461C145.012 292.727 144.848 293.031 144.728 293.375C144.614 293.714 144.556 294.073 144.556 294.453ZM157.32 296.758C157.32 296.549 157.273 296.357 157.18 296.18C157.091 295.997 156.906 295.833 156.625 295.688C156.349 295.536 155.932 295.406 155.375 295.297C154.906 295.198 154.482 295.081 154.102 294.945C153.727 294.81 153.406 294.646 153.141 294.453C152.88 294.26 152.68 294.034 152.539 293.773C152.398 293.513 152.328 293.208 152.328 292.859C152.328 292.526 152.401 292.211 152.547 291.914C152.698 291.617 152.909 291.354 153.18 291.125C153.456 290.896 153.786 290.716 154.172 290.586C154.557 290.456 154.987 290.391 155.461 290.391C156.138 290.391 156.716 290.51 157.195 290.75C157.674 290.99 158.042 291.31 158.297 291.711C158.552 292.107 158.68 292.547 158.68 293.031H157.234C157.234 292.797 157.164 292.57 157.023 292.352C156.888 292.128 156.688 291.943 156.422 291.797C156.161 291.651 155.841 291.578 155.461 291.578C155.06 291.578 154.734 291.641 154.484 291.766C154.24 291.885 154.06 292.039 153.945 292.227C153.836 292.414 153.781 292.612 153.781 292.82C153.781 292.977 153.807 293.117 153.859 293.242C153.917 293.362 154.016 293.474 154.156 293.578C154.297 293.677 154.495 293.771 154.75 293.859C155.005 293.948 155.331 294.036 155.727 294.125C156.419 294.281 156.99 294.469 157.438 294.688C157.885 294.906 158.219 295.174 158.438 295.492C158.656 295.81 158.766 296.195 158.766 296.648C158.766 297.018 158.688 297.357 158.531 297.664C158.38 297.971 158.159 298.237 157.867 298.461C157.581 298.68 157.237 298.852 156.836 298.977C156.44 299.096 155.995 299.156 155.5 299.156C154.755 299.156 154.125 299.023 153.609 298.758C153.094 298.492 152.703 298.148 152.438 297.727C152.172 297.305 152.039 296.859 152.039 296.391H153.492C153.513 296.786 153.628 297.102 153.836 297.336C154.044 297.565 154.299 297.729 154.602 297.828C154.904 297.922 155.203 297.969 155.5 297.969C155.896 297.969 156.227 297.917 156.492 297.812C156.763 297.708 156.969 297.565 157.109 297.383C157.25 297.201 157.32 296.992 157.32 296.758Z" fill="black"/>
<rect x="29" y="32" width="83" height="83" rx="10" fill="white"/>
<path d="M83.5 81.3333L87.6667 85.5L83.5 89.6666" stroke="black" stroke-width="4" stroke-linecap="round" stroke-linejoin="round"/>
<path d="M57.6663 63C58.5504 63 59.3982 62.6488 60.0234 62.0237C60.6485 61.3985 60.9997 60.5507 60.9997 59.6666C60.9997 58.7826 60.6485 57.9347 60.0234 57.3096C59.3982 56.6845 58.5504 56.3333 57.6663 56.3333C56.7823 56.3333 55.9344 56.6845 55.3093 57.3096C54.6842 57.9347 54.333 58.7826 54.333 59.6666C54.333 60.5507 54.6842 61.3985 55.3093 62.0237C55.9344 62.6488 56.7823 63 57.6663 63V63Z" stroke="black" stroke-width="4" stroke-linejoin="round"/>
<path d="M61 59.6666H67.6667C68.5507 59.6666 69.3986 60.0178 70.0237 60.6429C70.6488 61.2681 71 62.1159 71 63V82.1666C71 83.0507 71.3512 83.8985 71.9763 84.5236C72.6014 85.1488 73.4493 85.5 74.3333 85.5H87.6667" stroke="black" stroke-width="4" stroke-linecap="round" stroke-linejoin="round"/>
</svg>
