<svg width="86" height="51" viewBox="0 0 86 51" fill="none" xmlns="http://www.w3.org/2000/svg">
<g opacity="0.5">
<path fill-rule="evenodd" clip-rule="evenodd" d="M9.30544 2.39015L56.2755 2.3794L54.6146 10.0643L84.681 10.0574L76.6539 48.6188L38.5513 48.6275L40.6273 38.6098L1.27772 38.6188L9.30544 2.39015ZM45.5258 10.2879L42.2334 10.2879L40.831 18.2321C39.9165 16.625 38.2703 15.8064 35.8925 15.8064C34.3377 15.8064 32.9354 16.2309 31.655 17.0192C30.3747 17.8076 29.3686 18.9294 28.637 20.3242C27.9054 21.719 27.5395 23.2957 27.5395 24.9937C27.5395 26.2672 27.7834 27.4194 28.3322 28.4503C28.8809 29.4812 29.643 30.2696 30.6185 30.8457C31.5941 31.4218 32.6915 31.6947 33.9719 31.6947C35.0084 31.6947 35.9534 31.5127 36.807 31.1186C37.6301 30.7244 38.3313 30.1786 38.941 29.4812L38.9715 31.5127L41.7456 31.5127L45.5258 10.2879ZM37.5082 28.0864C36.6851 28.6625 35.74 28.9354 34.6731 28.9354C33.5146 28.9354 32.5696 28.5716 31.8989 27.8136C31.2282 27.0555 30.8929 25.964 30.8929 24.5692C30.8929 23.5989 31.1063 22.6286 31.5331 21.719C31.9599 20.8094 32.6001 20.0513 33.4232 19.4752C34.2158 18.8991 35.1608 18.5959 36.2583 18.5959C37.4167 18.5959 38.3313 18.9901 39.0019 19.7178C39.6726 20.4758 40.0384 21.5371 40.0384 22.9318C40.0384 23.9324 39.7946 24.9027 39.3678 25.8124C38.941 26.7523 38.3008 27.5103 37.5082 28.0864ZM22.5269 16.5947C21.5209 16.0793 20.3624 15.8064 19.0211 15.8064C17.253 15.8064 15.6982 16.2309 14.3874 17.0192C13.0765 17.8076 12.0705 18.8991 11.3693 20.2636C10.6682 21.6584 10.3328 23.1744 10.3328 24.8421C10.3328 26.1762 10.6072 27.3587 11.1864 28.3897C11.7656 29.4206 12.5887 30.2392 13.6862 30.8154C14.7837 31.4218 16.0336 31.6947 17.4968 31.6947C19.3564 31.6947 20.9417 31.2398 22.283 30.2696C23.5939 29.3296 24.4779 27.9955 24.9352 26.2975L21.6428 26.2975C21.216 27.2071 20.6978 27.9045 20.0881 28.3593C19.4784 28.8142 18.6248 29.0264 17.5578 29.0264C16.3384 29.0264 15.3934 28.6625 14.6922 27.8742C13.9606 27.0858 13.6252 26.1762 13.6252 25.0846C13.6252 24.8724 13.6252 24.6905 13.6557 24.5085L25.362 24.5085C25.5449 23.7808 25.6364 22.9622 25.6364 22.0525C25.6364 20.8397 25.362 19.7481 24.8437 18.8082C24.295 17.8682 23.5329 17.1405 22.5269 16.5947ZM22.1915 22.0525L14.174 22.0525C14.4483 20.9913 14.9971 20.112 15.8506 19.4449C16.6737 18.7778 17.6493 18.4443 18.7772 18.4443C19.8137 18.4443 20.6673 18.7475 21.277 19.2933C21.8867 19.8391 22.222 20.6274 22.222 21.628C22.222 21.7346 22.2116 21.8308 22.2029 21.9104C22.1968 21.9668 22.1915 22.0148 22.1915 22.0525ZM51.8086 20.6668L46.0604 28.6846L49.5308 28.6494L51.7648 25.3875C51.9775 25.0768 52.2128 24.7042 52.4705 24.2697C52.7283 23.8351 52.9784 23.4084 53.2209 22.9895L53.3134 22.9885C53.3931 23.2345 53.473 23.5037 53.5531 23.7959C53.6487 24.0881 53.7365 24.3726 53.8165 24.6494L54.055 25.3411L55.2454 28.5916L58.6927 28.5567L55.6313 21.1371L61.1743 13.4222L57.7502 13.4569L55.7224 16.5085C55.5401 16.788 55.3205 17.1759 55.0634 17.6721C54.8061 18.1529 54.5561 18.5951 54.3135 18.9986L54.2209 18.9995C54.0932 18.5843 53.9653 18.146 53.8372 17.6845C53.7088 17.2076 53.5892 16.8232 53.4782 16.5312L52.4521 13.5105L48.9816 13.5456L51.8086 20.6668Z" fill="#4D4D4D"/>
</g>
</svg>
