<?xml version="1.0" encoding="UTF-8"?>
<svg id="Camada_2" data-name="Camada 2" xmlns="http://www.w3.org/2000/svg" viewBox="0 0 263.01 36.95">
  <defs>
    <style>
      .cls-1 {
        fill: #5742dd;
      }
    </style>
  </defs>
  <g id="Camada_1-2" data-name="Camada 1">
    <g>
      <path class="cls-1" d="M55.8.99l-12.01,35.4h-8.88l-7.01-22.8-7.01,22.8h-8.88L0,.99h8.88l7.57,22.3L24.01.99h7.77l7.57,22.3L46.92.99h8.88Z"/>
      <path class="cls-1" d="M91.34,24.78c-.62,1.63-5.83,11.75-17.91,11.75-6.94,0-13.95-4.53-16.66-11.68-.83-2.05-1.25-4.32-1.25-6.58,0-10.12,7.98-18.26,17.91-18.26s17.49,7.79,17.84,17.56c0,.35.07.64,0,.92l-25.54,4.74c1.25,2.9,4.09,5.1,7.7,5.1,5.97,0,9.99-4.46,10.48-5.95l7.43,2.41ZM64.48,16.35l16.73-3.04c-1.67-3.4-5.27-5.59-8.88-5.24-3.68.28-6.87,3.33-7.63,7.15l-.21,1.13Z"/>
      <path class="cls-1" d="M130.9,24.78c-.62,1.63-5.83,11.75-17.91,11.75-6.94,0-13.95-4.53-16.66-11.68-.83-2.05-1.25-4.32-1.25-6.58,0-10.12,7.98-18.26,17.91-18.26s17.49,7.79,17.84,17.56c0,.35.07.64,0,.92l-25.54,4.74c1.25,2.9,4.09,5.1,7.7,5.1,5.97,0,9.99-4.46,10.48-5.95l7.43,2.41ZM104.04,16.35l16.73-3.04c-1.67-3.4-5.27-5.59-8.88-5.24-3.68.28-6.87,3.33-7.63,7.15l-.21,1.13Z"/>
      <path class="cls-1" d="M134.47,18.69c0-10.05,7.98-18.26,17.91-18.26,6.66,0,12.49,3.68,15.55,9.27l-7.98,3.96c-1.87-2.9-4.72-4.74-7.57-4.74-5.21,0-9.02,4.11-9.02,9.77s3.82,9.77,9.02,9.77c2.85,0,5.69-1.84,7.57-4.74l7.98,3.96c-3.05,5.59-8.88,9.27-15.55,9.27-9.93,0-17.91-8.21-17.91-18.26Z"/>
      <path class="cls-1" d="M169.35,18.69c0-10.05,8.05-18.26,17.91-18.26s17.91,8.21,17.91,18.26-7.98,18.26-17.91,18.26-17.91-8.21-17.91-18.26ZM196.63,18.69c0-5.66-3.82-9.77-9.02-9.77s-9.02,4.11-9.02,9.77,3.75,9.77,9.02,9.77,9.02-4.11,9.02-9.77Z"/>
      <path class="cls-1" d="M263.01,16.64v19.75h-8.81v-19.54c0-4.74-2.89-8.07-6.99-8.07s-7.06,3.4-7.06,8.14v19.47h-8.74v-19.54c0-4.74-2.96-8.07-7.06-8.07s-7.06,3.4-7.06,8.14v19.47h-8.6V.99h8.6v3.54c2.42-2.55,5.71-4.11,9.07-4.11,4.64,0,8.4,2.19,10.82,5.73,2.42-3.47,6.52-5.73,12.03-5.73,8.2,0,13.78,7.01,13.78,16.21Z"/>
    </g>
  </g>
</svg>