<svg width="41" height="38" viewBox="0 0 41 38" fill="none" xmlns="http://www.w3.org/2000/svg">
<path d="M6.01814 33.3247C2.8296 27.9386 1.31894 20.4648 1.00783 19.7435C0.696719 19.0222 9.21338 27.8439 9.96088 29.5764C10.7084 31.3089 7.18166 18.8408 5.18292 14.5289" stroke="#FF6868" stroke-width="2" stroke-linecap="round"/>
<path d="M31.142 3.80698C31.5412 8.54127 30.9616 20.1707 30.4706 19.5779C29.9795 18.9851 25.3859 6.49583 25.4308 7.27986C25.4757 8.0639 25.289 19.6466 25.4805 21.7525C25.672 23.8584 19.8457 14.058 17.8249 6.30723" stroke="#FF6868" stroke-width="2" stroke-linecap="round"/>
<path d="M15.5615 11.7787C9.16303 15.8113 9.31861 16.1719 9.11286 16.6879C8.90711 17.2038 10.9798 21.0158 11.291 21.7371M21.2628 23.0092C20.3344 23.8357 14.4528 28.0736 13.7803 27.5076C13.1078 26.9416 11.6022 22.4584 11.291 21.7371M11.291 21.7371C11.9702 21.2058 14.8265 18.4159 17.8953 17.1886" stroke="#FF6868" stroke-width="2" stroke-linecap="round" stroke-linejoin="round"/>
<path d="M17.9755 33.4209C18.6939 33.7087 23.843 36.3519 26.7629 36.9119C29.6828 37.472 24.329 33.2554 21.684 27.124" stroke="#FF6868" stroke-width="2" stroke-linecap="round"/>
<path d="M34.8269 0.999869C37.7954 6.76681 38.864 9.91461 39.2937 15.326" stroke="#FF6868" stroke-width="2" stroke-linecap="round"/>
<path d="M39.4502 18.446C39.267 18.5211 39.288 18.5634 39.4392 18.6389" stroke="#FF6868" stroke-width="2" stroke-linecap="round"/>
</svg>
