<svg width="34" height="34" viewBox="0 0 34 34" fill="none" xmlns="http://www.w3.org/2000/svg">
<path d="M0 16.8C0 12.3444 1.77 8.07122 4.92061 4.92061C8.07122 1.77 12.3444 0 16.8 0C21.2556 0 25.5288 1.77 28.6794 4.92061C31.83 8.07122 33.6 12.3444 33.6 16.8C33.6 21.2556 31.83 25.5288 28.6794 28.6794C25.5288 31.83 21.2556 33.6 16.8 33.6C12.3444 33.6 8.07122 31.83 4.92061 28.6794C1.77 25.5288 0 21.2556 0 16.8ZM20.9118 8.82C20.972 8.69293 21.0061 8.55508 21.012 8.4146C21.0179 8.27412 20.9955 8.13388 20.9462 8.00221C20.8969 7.87053 20.8217 7.7501 20.7249 7.64806C20.6282 7.54602 20.512 7.46445 20.3831 7.40818C20.2543 7.35191 20.1154 7.3221 19.9748 7.3205C19.8342 7.31891 19.6947 7.34557 19.5646 7.3989C19.4345 7.45223 19.3165 7.53115 19.2175 7.63097C19.1184 7.73079 19.0405 7.84948 18.9882 7.98L11.6382 24.78C11.578 24.9071 11.5439 25.0449 11.538 25.1854C11.5321 25.3259 11.5545 25.4661 11.6038 25.5978C11.6531 25.7295 11.7283 25.8499 11.8251 25.9519C11.9218 26.054 12.038 26.1355 12.1669 26.1918C12.2957 26.2481 12.4346 26.2779 12.5752 26.2795C12.7158 26.2811 12.8553 26.2544 12.9854 26.2011C13.1155 26.1478 13.2335 26.0689 13.3325 25.969C13.4316 25.8692 13.5095 25.7505 13.5618 25.62L20.9118 8.82ZM10.1934 11.8566C10.0959 11.7588 9.97999 11.6812 9.85243 11.6283C9.72487 11.5754 9.58811 11.5481 9.45 11.5481C9.31189 11.5481 9.17513 11.5754 9.04757 11.6283C8.92 11.6812 8.80414 11.7588 8.7066 11.8566L4.5066 16.0566C4.40882 16.1541 4.33124 16.27 4.2783 16.3976C4.22537 16.5251 4.19812 16.6619 4.19812 16.8C4.19812 16.9381 4.22537 17.0749 4.2783 17.2024C4.33124 17.33 4.40882 17.4459 4.5066 17.5434L8.7066 21.7434C8.90376 21.9406 9.17117 22.0513 9.45 22.0513C9.72883 22.0513 9.99624 21.9406 10.1934 21.7434C10.3906 21.5462 10.5013 21.2788 10.5013 21C10.5013 20.7212 10.3906 20.4538 10.1934 20.2566L6.7347 16.8L10.1934 13.3434C10.2912 13.2459 10.3688 13.13 10.4217 13.0024C10.4746 12.8749 10.5019 12.7381 10.5019 12.6C10.5019 12.4619 10.4746 12.3251 10.4217 12.1976C10.3688 12.07 10.2912 11.9541 10.1934 11.8566ZM23.4066 13.3434L26.8653 16.8L23.4066 20.2566C23.2094 20.4538 23.0987 20.7212 23.0987 21C23.0987 21.2788 23.2094 21.5462 23.4066 21.7434C23.6038 21.9406 23.8712 22.0513 24.15 22.0513C24.4288 22.0513 24.6962 21.9406 24.8934 21.7434L29.0934 17.5434C29.1912 17.4459 29.2688 17.33 29.3217 17.2024C29.3746 17.0749 29.4019 16.9381 29.4019 16.8C29.4019 16.6619 29.3746 16.5251 29.3217 16.3976C29.2688 16.27 29.1912 16.1541 29.0934 16.0566L24.8934 11.8566C24.6962 11.6594 24.4288 11.5487 24.15 11.5487C23.8712 11.5487 23.6038 11.6594 23.4066 11.8566C23.2094 12.0538 23.0987 12.3212 23.0987 12.6C23.0987 12.8788 23.2094 13.1462 23.4066 13.3434Z" fill="black"/>
</svg>
