<svg width="141" height="53" viewBox="0 0 141 53" fill="none" xmlns="http://www.w3.org/2000/svg">
<g opacity="0.5" clip-path="url(#clip0_212_272)">
<path d="M21.9043 12.611L10.9506 6.30563L0 12.611L0 6.30563L10.9523 0L21.9059 6.30563V12.611H21.9043Z" fill="#5A5A5A"/>
<path d="M0 17.9061H5.73721V31.8058C5.73721 35.3972 8.42668 37.1475 10.9523 37.1475C13.4996 37.1475 16.1687 35.3505 16.1687 31.7577V17.9063H21.9059V32.137C21.9059 35.4452 20.8628 37.998 18.777 39.7484C16.6895 41.4977 14.0827 42.3492 10.9038 42.3492C7.72801 42.3492 5.11979 41.499 3.08217 39.7487C1.0429 37.9991 0 35.5413 0 32.2781L0 17.9061ZM71.5063 35.181C69.7697 36.7233 67.7913 37.4787 65.5353 37.4787C61.4195 37.4787 58.6599 35.1407 58.3481 31.5197H76.8849C76.8849 31.5197 77.0097 30.3509 77.0097 29.2533C77.0097 25.8487 75.9183 23.0114 73.689 20.695C71.5096 18.3787 68.6659 17.2437 65.2031 17.2437C61.5534 17.2437 58.5648 18.3787 56.1935 20.695C53.8705 23.0114 52.6858 26.0368 52.6858 29.8206V30.0074C52.6858 33.7429 53.8705 36.7216 56.1935 38.9446C58.5167 41.1662 61.5988 42.3012 65.345 42.3012C69.7011 42.3012 73.1666 40.5879 75.7671 37.6341L71.5063 35.181ZM60.6025 23.5787C61.8808 22.5854 63.4478 22.0662 65.2015 22.0662C66.8604 22.0662 68.2355 22.5854 69.4218 23.627C70.5537 24.5753 71.1651 25.7399 71.2179 27.0784H58.4949C58.6786 25.6946 59.3803 24.5289 60.6041 23.5804L60.6025 23.579V23.5787ZM129.259 45.513C126.931 50.9929 124.496 52.857 120.762 52.857H118.174V47.7857H120.266C121.551 47.7857 122.745 47.3038 123.883 44.6859L125.022 42.0647L115.206 17.9061H121.038L128.008 35.3054L135.169 17.9061H141L129.261 45.5128H129.259V45.513ZM44.2404 8.7821V20.064C42.3603 18.385 39.4357 17.3854 36.6074 17.3854C33.2399 17.3854 30.3962 18.5668 28.0733 20.9765C25.7972 23.3409 24.659 26.2716 24.659 29.8176C24.659 33.3653 25.7972 36.2957 28.0733 38.7068C30.3962 41.0712 33.2416 42.2545 36.6077 42.2545C40.4896 42.2545 42.9433 40.7326 44.2404 39.5402V41.7338H49.9311V8.78348H44.2404V8.7821ZM42.5333 35.0209C41.1582 36.3921 39.4045 37.1025 37.3653 37.1025C35.326 37.1025 33.6673 36.3921 32.292 35.0209C30.9669 33.6498 30.3012 31.9008 30.3012 29.8206C30.3012 27.7391 30.9655 25.9901 32.2923 24.6189C33.6673 23.2478 35.326 22.5388 37.365 22.5388C39.4045 22.5388 41.1582 23.2478 42.5333 24.6189C43.9551 25.9901 44.6692 27.7391 44.6692 29.8206C44.6692 31.9008 43.9551 33.6498 42.5333 35.0209ZM106.36 17.4335C102.038 17.4335 99.7919 19.2212 98.253 20.9438C97.6373 19.7732 95.9037 17.4335 91.853 17.4335C88.4296 17.4335 86.4123 19.1591 85.405 20.3872V17.9091H79.7644V41.7368H85.405V28.0252C85.405 24.8101 87.3974 22.4937 90.0508 22.4937C92.756 22.4937 94.3194 24.5272 94.3194 27.7888V41.7352H99.9618V28.0236C99.9618 24.762 101.904 22.4924 104.701 22.4924C107.405 22.4924 108.968 24.5256 108.968 27.7858V41.7338H114.659V26.9833C114.659 20.7711 111.31 17.4348 106.36 17.4348V17.4332V17.4335Z" fill="black"/>
</g>
<defs>
<clipPath id="clip0_212_272">
<rect width="141" height="53" fill="white"/>
</clipPath>
</defs>
</svg>
