<svg width="141" height="20" viewBox="0 0 141 20" fill="none" xmlns="http://www.w3.org/2000/svg">
<g opacity="0.5" clip-path="url(#clip0_212_277)">
<path d="M46.2717 0.486849V11.4507C46.2717 13.8731 47.6291 15.3036 49.9848 15.3036C52.62 15.3036 54.1346 13.7142 54.1346 10.6553V0.486849H59.0462V19.3545H54.1382V17.1688C52.9813 18.9562 51.104 19.8304 48.5092 19.8304C44.1173 19.8318 41.3628 16.654 41.3628 12.0458V0.486849L46.2717 0.486849ZM99.0173 0.129863C104.608 0.140822 108.551 4.59616 108.538 9.84411C108.539 10.3631 108.498 10.8812 108.416 11.3937L93.963 11.3668C94.5171 13.6315 96.3906 15.2636 99.226 15.2696C100.942 15.2696 102.78 14.6405 103.901 13.2126L107.25 15.8838C105.528 18.3041 102.49 19.7285 99.2577 19.7222C93.5516 19.703 89.1674 15.4444 89.177 9.92301C89.188 4.63973 92.989 0.118904 99.0173 0.129863ZM130.181 0.129863C133.175 0.129863 134.892 1.04301 136.05 2.79178L136.509 0.484384L141 0.484384V19.3545H136.509L135.93 17.4115C134.613 18.8419 132.975 19.7186 130.181 19.7186C125.868 19.7126 120.957 15.9386 120.957 10.0603C120.957 4.14192 125.788 0.129863 130.181 0.129863ZM29.5596 0.129863C35.1889 0.129863 39.6609 4.50137 39.6609 9.90137C39.6609 15.2636 35.1889 19.7126 29.5596 19.7126C23.9694 19.7126 19.4985 15.2586 19.4985 9.90137C19.4985 4.49863 23.9694 0.129863 29.5596 0.129863ZM80.0607 0.00958904C83.2269 0.00958904 86.0318 1.40493 87.5549 3.99616L83.2294 6.27288C82.5885 4.99671 81.3862 4.27918 79.863 4.27918C78.3814 4.27918 77.6585 4.79753 77.6585 5.67425C77.6585 8.62493 87.998 6.75151 87.998 13.8101C87.998 17.4786 84.993 19.7101 80.1439 19.7101C76.0158 19.7066 73.1302 18.3512 71.6889 15.2416L76.0538 12.9685C76.775 14.5241 78.2175 15.4408 80.262 15.4408C82.1454 15.4408 82.8667 14.8436 82.8667 14.0055C82.8667 10.9699 72.5274 12.8096 72.5274 5.86986C72.5274 2.04247 75.8938 0.00958904 80.0607 0.00958904ZM10.0611 0.089863C11.742 0.0781627 13.3993 0.482703 14.8838 1.26703C16.3683 2.05135 17.6334 3.19082 18.5649 4.58274L14.3735 7.00164C13.8885 6.31212 13.243 5.74963 12.492 5.36223C11.7411 4.97483 10.907 4.77403 10.0611 4.77699C7.18659 4.77699 4.8309 7.16055 4.8309 9.90137C4.8309 12.6419 7.18659 15.0255 10.0611 15.0255C10.9469 15.0312 11.8193 14.811 12.5952 14.3859C13.3711 13.9607 14.0245 13.3448 14.493 12.597L18.6431 15.0595C17.723 16.4922 16.4532 17.6698 14.9521 18.4826C13.4511 19.2954 11.7676 19.717 10.0586 19.7079C4.47097 19.7126 0 15.2586 0 9.90137C0 4.46027 4.47097 0.089863 10.0611 0.089863ZM71.6597 0L70.7536 4.55973C70.587 4.54164 70.419 4.53233 70.251 4.53178C67.6169 4.53781 66.1023 6.12959 66.1097 9.1874L66.1364 19.3532L61.2262 19.3641L61.1846 0.497808L66.0948 0.486849V2.6726C67.2385 0.89726 69.0963 0.0205479 71.6597 0V0ZM121.002 0.0134247L120.092 4.56822C119.925 4.5507 119.757 4.54138 119.589 4.54027C116.957 4.54027 115.439 6.12849 115.439 9.1874V19.3545H110.529V0.485753H115.439V2.67123C116.587 0.899452 118.443 0.0265753 121.002 0.0131507V0.0134247ZM29.5596 4.81699C26.6854 4.81699 24.3297 7.20055 24.3297 9.90137C24.3297 12.6419 26.6854 15.0255 29.5596 15.0255C32.4793 15.0255 34.83 12.6419 34.83 9.90137C34.83 7.20082 32.4743 4.81699 29.5596 4.81699ZM131.021 4.8189C130.331 4.82145 129.649 4.95908 129.013 5.22393C128.378 5.48878 127.801 5.87566 127.315 6.36247C126.829 6.84911 126.445 7.42615 126.184 8.06063C125.922 8.6951 125.789 9.37459 125.792 10.0603C125.792 12.6822 128.148 15.0255 131.023 15.0255C133.934 15.0255 136.289 12.6819 136.289 10.0203C136.283 8.63557 135.725 7.30972 134.737 6.33431C133.749 5.3589 132.412 4.81381 131.02 4.8189H131.021ZM98.9699 4.57918C96.6935 4.57918 94.8553 5.92219 94.1326 7.9463L103.595 7.96329C103.319 6.05671 101.325 4.58247 98.9699 4.57918Z" fill="#4D4D4D"/>
</g>
<defs>
<clipPath id="clip0_212_277">
<rect width="141" height="20" fill="white"/>
</clipPath>
</defs>
</svg>
