<svg width="37" height="41" viewBox="0 0 37 41" fill="none" xmlns="http://www.w3.org/2000/svg">
<path d="M30.5278 28.8319C28.21 28.8319 26.2808 30.224 25.348 32.2238L22.6132 32.2238C21.3624 32.2238 20.3519 31.2133 20.3519 29.9625L20.3519 22.0126L25.8992 22.0126L25.8992 17.8079L20.3519 17.8079L20.3519 10.1759C20.3519 8.92515 21.3624 7.91463 22.6132 7.91463L25.348 7.91463C26.2808 9.91448 28.21 11.3066 30.5278 11.3066C33.6499 11.3066 36.1811 8.77675 36.1811 5.65331C36.1811 2.52985 33.6499 1.35357e-07 30.5278 2.71825e-07C28.21 3.73142e-07 26.2808 1.39213 25.348 3.39198L22.6132 3.39198C18.8679 3.39198 15.8293 6.43063 15.8293 10.1759L15.8293 17.8079L10.8331 17.8079C9.96395 15.8081 7.97116 14.4159 5.6533 14.4159C2.52985 14.4159 7.40724e-07 16.9458 8.77254e-07 20.0692C1.01378e-06 23.1927 2.52985 25.7225 5.6533 25.7225C7.97116 25.7225 9.96395 24.3304 10.8331 22.3306L15.8293 22.3306L15.8293 29.9625C15.8293 33.7092 18.8679 36.7465 22.6132 36.7465L25.348 36.7465C26.2808 38.7428 28.21 40.1385 30.5278 40.1385C33.6499 40.1385 36.1811 37.6072 36.1811 34.4852C36.1811 31.3617 33.6499 28.8319 30.5278 28.8319ZM28.8319 34.4852C28.8319 33.5488 29.5915 32.7892 30.5278 32.7892C31.4642 32.7892 32.2238 33.5488 32.2238 34.4852C32.2238 35.4215 31.4642 36.1811 30.5278 36.1811C29.5915 36.1811 28.8319 35.4215 28.8319 34.4852ZM28.8319 5.65331C28.8319 4.71344 29.5915 3.95731 30.5278 3.95731C31.4642 3.95731 32.2238 4.71344 32.2238 5.65331C32.2238 6.59317 31.4642 7.3493 30.5278 7.3493C29.5915 7.3493 28.8319 6.59317 28.8319 5.65331ZM7.3493 20.0692C7.3493 21.0091 6.59317 21.7652 5.6533 21.7652C4.71344 21.7652 3.95731 21.0091 3.95731 20.0692C3.95731 19.1294 4.71344 18.3732 5.6533 18.3732C6.59317 18.3732 7.3493 19.1294 7.3493 20.0692Z" fill="#DDF247"/>
<path d="M31.0225 14.1333C27.8612 14.1333 25.2985 16.7751 25.2985 20.0339C25.2985 23.2927 27.8612 25.9345 31.0225 25.9345C34.1838 25.9345 36.7465 23.2927 36.7465 20.0339C36.7465 16.7751 34.1838 14.1333 31.0225 14.1333ZM31.0225 21.7843C30.0847 21.7843 29.3245 21.0006 29.3245 20.0339C29.3245 19.0672 30.0847 18.2834 31.0225 18.2834C31.9603 18.2834 32.7205 19.0672 32.7205 20.0339C32.7205 21.0006 31.9603 21.7843 31.0225 21.7843Z" fill="#DDF247"/>
</svg>
