<svg width="301" height="343" viewBox="0 0 301 343" fill="none" xmlns="http://www.w3.org/2000/svg">
<rect width="301" height="343" rx="14" fill="white"/>
<path d="M31.516 217V194.832H38.962C40.5033 194.832 41.886 195.002 43.11 195.342C44.334 195.659 45.2973 196.215 46 197.008C46.7253 197.801 47.088 198.912 47.088 200.34C47.088 201.337 46.782 202.301 46.17 203.23C45.558 204.159 44.5947 204.794 43.28 205.134V205.27C44.8667 205.542 46.068 206.109 46.884 206.97C47.7 207.809 48.108 208.976 48.108 210.472C48.108 211.968 47.734 213.203 46.986 214.178C46.238 215.13 45.218 215.844 43.926 216.32C42.6567 216.773 41.2173 217 39.608 217H31.516ZM36.514 203.74H38.724C39.948 203.74 40.832 203.502 41.376 203.026C41.92 202.527 42.192 201.859 42.192 201.02C42.192 200.204 41.9087 199.626 41.342 199.286C40.798 198.923 39.9367 198.742 38.758 198.742H36.514V203.74ZM36.514 213.09H39.2C40.56 213.09 41.5687 212.841 42.226 212.342C42.8833 211.843 43.212 211.095 43.212 210.098C43.212 209.123 42.8833 208.421 42.226 207.99C41.5687 207.559 40.56 207.344 39.2 207.344H36.514V213.09ZM60.8567 217.408C59.1114 217.408 57.5247 217.068 56.0967 216.388C54.6914 215.685 53.5694 214.677 52.7307 213.362C51.9147 212.025 51.5067 210.427 51.5067 208.568C51.5067 206.732 51.9261 205.157 52.7647 203.842C53.6034 202.505 54.6914 201.485 56.0287 200.782C57.3661 200.079 58.7827 199.728 60.2787 199.728C62.0241 199.728 63.4861 200.091 64.6647 200.816C65.8434 201.519 66.7274 202.482 67.3167 203.706C67.9287 204.907 68.2347 206.279 68.2347 207.82C68.2347 208.273 68.2007 208.715 68.1327 209.146C68.0874 209.554 68.0421 209.86 67.9967 210.064H55.2127V206.698H64.6307L63.8487 207.65C63.8487 206.29 63.5541 205.27 62.9647 204.59C62.3981 203.887 61.5594 203.536 60.4487 203.536C59.6327 203.536 58.9187 203.717 58.3067 204.08C57.6947 204.443 57.2187 204.998 56.8787 205.746C56.5387 206.494 56.3687 207.435 56.3687 208.568C56.3687 209.724 56.5727 210.676 56.9807 211.424C57.3887 212.149 57.9781 212.693 58.7487 213.056C59.5194 213.419 60.4487 213.6 61.5367 213.6C62.3074 213.6 63.0327 213.498 63.7127 213.294C64.4154 213.09 65.1407 212.795 65.8887 212.41L67.5547 215.436C66.5801 216.048 65.5034 216.535 64.3247 216.898C63.1461 217.238 61.9901 217.408 60.8567 217.408ZM80.3374 217.408C78.8414 217.408 77.3568 217.159 75.8834 216.66C74.4101 216.139 73.1408 215.527 72.0754 214.824L74.2174 211.696C75.2374 212.353 76.3141 212.852 77.4474 213.192C78.6034 213.532 79.7934 213.702 81.0174 213.702C81.9468 213.702 82.6268 213.566 83.0574 213.294C83.4881 212.999 83.7034 212.659 83.7034 212.274C83.7034 212.025 83.6354 211.821 83.4994 211.662C83.3861 211.481 83.1708 211.322 82.8534 211.186C82.5588 211.027 82.1394 210.88 81.5954 210.744C81.0741 210.608 80.3941 210.449 79.5554 210.268C77.2661 209.769 75.6228 209.089 74.6254 208.228C73.6281 207.367 73.1294 206.29 73.1294 204.998C73.1294 203.411 73.8208 202.142 75.2034 201.19C76.5861 200.215 78.4788 199.728 80.8814 199.728C82.4001 199.728 83.7714 199.977 84.9954 200.476C86.2421 200.952 87.3074 201.473 88.1914 202.04L85.9474 205.032C85.1088 204.511 84.2134 204.114 83.2614 203.842C82.3094 203.57 81.3688 203.434 80.4394 203.434C79.9181 203.434 79.4874 203.491 79.1474 203.604C78.8074 203.695 78.5468 203.853 78.3654 204.08C78.1841 204.284 78.0934 204.511 78.0934 204.76C78.0934 205.213 78.3881 205.553 78.9774 205.78C79.5668 205.984 80.5754 206.245 82.0034 206.562C83.7261 206.947 85.0748 207.389 86.0494 207.888C87.0241 208.387 87.6928 208.965 88.0554 209.622C88.4408 210.257 88.6334 211.039 88.6334 211.968C88.6334 212.988 88.3161 213.906 87.6814 214.722C87.0694 215.538 86.1401 216.195 84.8934 216.694C83.6694 217.17 82.1508 217.408 80.3374 217.408ZM104.102 217.408C102.311 217.408 100.883 217.102 99.8182 216.49C98.7755 215.855 98.0162 214.983 97.5402 213.872C97.0642 212.761 96.8262 211.469 96.8262 209.996V204.046H92.6102V200.34L97.0642 200.136L97.7102 194.968H101.824V200.136H108.964V204.046H101.824V209.962C101.824 210.801 101.949 211.481 102.198 212.002C102.447 212.523 102.833 212.909 103.354 213.158C103.875 213.385 104.544 213.498 105.36 213.498C106.017 213.498 106.618 213.441 107.162 213.328C107.706 213.215 108.227 213.067 108.726 212.886L109.61 216.49C108.862 216.717 108.035 216.921 107.128 217.102C106.244 217.306 105.235 217.408 104.102 217.408ZM139.868 217V199.048H133.238V194.832H151.53V199.048H144.9V217H139.868ZM160.402 217.408C158.476 217.408 157.082 216.796 156.22 215.572C155.359 214.348 154.928 212.671 154.928 210.54V200.136H159.926V209.894C159.926 211.027 160.096 211.855 160.436 212.376C160.799 212.897 161.445 213.158 162.374 213.158C163.009 213.158 163.576 213.022 164.074 212.75C164.573 212.478 165.106 211.968 165.672 211.22V200.136H170.67V217H166.59L166.216 214.586H166.08C165.332 215.425 164.505 216.105 163.598 216.626C162.692 217.147 161.626 217.408 160.402 217.408ZM186.649 217.408C184.858 217.408 183.43 217.102 182.365 216.49C181.322 215.855 180.563 214.983 180.087 213.872C179.611 212.761 179.373 211.469 179.373 209.996V204.046H175.157V200.34L179.611 200.136L180.257 194.968H184.371V200.136H191.511V204.046H184.371V209.962C184.371 210.801 184.496 211.481 184.745 212.002C184.994 212.523 185.38 212.909 185.901 213.158C186.422 213.385 187.091 213.498 187.907 213.498C188.564 213.498 189.165 213.441 189.709 213.328C190.253 213.215 190.774 213.067 191.273 212.886L192.157 216.49C191.409 216.717 190.582 216.921 189.675 217.102C188.791 217.306 187.782 217.408 186.649 217.408ZM204.294 217.408C202.82 217.408 201.426 217.068 200.112 216.388C198.797 215.685 197.732 214.677 196.916 213.362C196.1 212.025 195.692 210.427 195.692 208.568C195.692 206.709 196.1 205.123 196.916 203.808C197.732 202.471 198.797 201.462 200.112 200.782C201.426 200.079 202.82 199.728 204.294 199.728C205.767 199.728 207.161 200.079 208.476 200.782C209.79 201.462 210.856 202.471 211.672 203.808C212.488 205.123 212.896 206.709 212.896 208.568C212.896 210.427 212.488 212.025 211.672 213.362C210.856 214.677 209.79 215.685 208.476 216.388C207.161 217.068 205.767 217.408 204.294 217.408ZM204.294 213.362C205.064 213.362 205.699 213.169 206.198 212.784C206.719 212.399 207.104 211.843 207.354 211.118C207.626 210.393 207.762 209.543 207.762 208.568C207.762 207.593 207.626 206.743 207.354 206.018C207.104 205.293 206.719 204.737 206.198 204.352C205.699 203.967 205.064 203.774 204.294 203.774C203.523 203.774 202.877 203.967 202.356 204.352C201.857 204.737 201.472 205.293 201.2 206.018C200.95 206.743 200.826 207.593 200.826 208.568C200.826 209.543 200.95 210.393 201.2 211.118C201.472 211.843 201.857 212.399 202.356 212.784C202.877 213.169 203.523 213.362 204.294 213.362ZM218.674 217V200.136H222.754L223.162 203.808H223.264C224.103 202.425 225.112 201.405 226.29 200.748C227.492 200.068 228.761 199.728 230.098 199.728C230.846 199.728 231.447 199.785 231.9 199.898C232.376 200.011 232.864 200.181 233.362 200.408L232.342 204.59C231.821 204.431 231.345 204.318 230.914 204.25C230.506 204.159 229.985 204.114 229.35 204.114C228.308 204.114 227.276 204.42 226.256 205.032C225.259 205.644 224.398 206.709 223.672 208.228V217H218.674ZM245.431 217.408C243.935 217.408 242.451 217.159 240.977 216.66C239.504 216.139 238.235 215.527 237.169 214.824L239.311 211.696C240.331 212.353 241.408 212.852 242.541 213.192C243.697 213.532 244.887 213.702 246.111 213.702C247.041 213.702 247.721 213.566 248.151 213.294C248.582 212.999 248.797 212.659 248.797 212.274C248.797 212.025 248.729 211.821 248.593 211.662C248.48 211.481 248.265 211.322 247.947 211.186C247.653 211.027 247.233 210.88 246.689 210.744C246.168 210.608 245.488 210.449 244.649 210.268C242.36 209.769 240.717 209.089 239.719 208.228C238.722 207.367 238.223 206.29 238.223 204.998C238.223 203.411 238.915 202.142 240.297 201.19C241.68 200.215 243.573 199.728 245.975 199.728C247.494 199.728 248.865 199.977 250.089 200.476C251.336 200.952 252.401 201.473 253.285 202.04L251.041 205.032C250.203 204.511 249.307 204.114 248.355 203.842C247.403 203.57 246.463 203.434 245.533 203.434C245.012 203.434 244.581 203.491 244.241 203.604C243.901 203.695 243.641 203.853 243.459 204.08C243.278 204.284 243.187 204.511 243.187 204.76C243.187 205.213 243.482 205.553 244.071 205.78C244.661 205.984 245.669 206.245 247.097 206.562C248.82 206.947 250.169 207.389 251.143 207.888C252.118 208.387 252.787 208.965 253.149 209.622C253.535 210.257 253.727 211.039 253.727 211.968C253.727 212.988 253.41 213.906 252.775 214.722C252.163 215.538 251.234 216.195 249.987 216.694C248.763 217.17 247.245 217.408 245.431 217.408Z" fill="black"/>
<path d="M34.375 249.68H31.4922L31.4766 248.469H34.0938C34.526 248.469 34.9036 248.396 35.2266 248.25C35.5495 248.104 35.7995 247.896 35.9766 247.625C36.1589 247.349 36.25 247.021 36.25 246.641C36.25 246.224 36.1693 245.885 36.0078 245.625C35.8516 245.359 35.6094 245.167 35.2812 245.047C34.9583 244.922 34.5469 244.859 34.0469 244.859H31.8281V255H30.3203V243.625H34.0469C34.6302 243.625 35.151 243.685 35.6094 243.805C36.0677 243.919 36.4557 244.102 36.7734 244.352C37.0964 244.596 37.3411 244.909 37.5078 245.289C37.6745 245.669 37.7578 246.125 37.7578 246.656C37.7578 247.125 37.638 247.549 37.3984 247.93C37.1589 248.305 36.8255 248.612 36.3984 248.852C35.9766 249.091 35.4818 249.245 34.9141 249.312L34.375 249.68ZM34.3047 255H30.8984L31.75 253.773H34.3047C34.7839 253.773 35.1901 253.69 35.5234 253.523C35.862 253.357 36.1198 253.122 36.2969 252.82C36.474 252.513 36.5625 252.151 36.5625 251.734C36.5625 251.312 36.487 250.948 36.3359 250.641C36.1849 250.333 35.9479 250.096 35.625 249.93C35.3021 249.763 34.8854 249.68 34.375 249.68H32.2266L32.2422 248.469H35.1797L35.5 248.906C36.0469 248.953 36.5104 249.109 36.8906 249.375C37.2708 249.635 37.5599 249.969 37.7578 250.375C37.9609 250.781 38.0625 251.229 38.0625 251.719C38.0625 252.427 37.9062 253.026 37.5938 253.516C37.2865 254 36.8516 254.37 36.2891 254.625C35.7266 254.875 35.0651 255 34.3047 255ZM41.6156 247.875V255H40.1703V246.547H41.5766L41.6156 247.875ZM44.2563 246.5L44.2484 247.844C44.1286 247.818 44.0141 247.802 43.9047 247.797C43.8005 247.786 43.6807 247.781 43.5453 247.781C43.212 247.781 42.9177 247.833 42.6625 247.938C42.4073 248.042 42.1911 248.188 42.0141 248.375C41.837 248.562 41.6964 248.786 41.5922 249.047C41.4932 249.302 41.4281 249.583 41.3969 249.891L40.9906 250.125C40.9906 249.615 41.0401 249.135 41.1391 248.688C41.2432 248.24 41.4021 247.844 41.6156 247.5C41.8292 247.151 42.1 246.88 42.4281 246.688C42.7615 246.49 43.1573 246.391 43.6156 246.391C43.7198 246.391 43.8396 246.404 43.975 246.43C44.1104 246.451 44.2042 246.474 44.2563 246.5ZM47.2625 246.547V255H45.8094V246.547H47.2625ZM45.7 244.305C45.7 244.07 45.7703 243.872 45.9109 243.711C46.0568 243.549 46.2703 243.469 46.5516 243.469C46.8276 243.469 47.0385 243.549 47.1844 243.711C47.3354 243.872 47.4109 244.07 47.4109 244.305C47.4109 244.529 47.3354 244.721 47.1844 244.883C47.0385 245.039 46.8276 245.117 46.5516 245.117C46.2703 245.117 46.0568 245.039 45.9109 244.883C45.7703 244.721 45.7 244.529 45.7 244.305ZM51.1281 248.352V255H49.6828V246.547H51.05L51.1281 248.352ZM50.7844 250.453L50.1828 250.43C50.188 249.852 50.274 249.318 50.4406 248.828C50.6073 248.333 50.8417 247.904 51.1437 247.539C51.4458 247.174 51.8052 246.893 52.2219 246.695C52.6437 246.492 53.1099 246.391 53.6203 246.391C54.037 246.391 54.412 246.448 54.7453 246.562C55.0786 246.672 55.3625 246.849 55.5969 247.094C55.8365 247.339 56.0187 247.656 56.1437 248.047C56.2687 248.432 56.3312 248.904 56.3312 249.461V255H54.8781V249.445C54.8781 249.003 54.813 248.648 54.6828 248.383C54.5526 248.112 54.3625 247.917 54.1125 247.797C53.8625 247.672 53.5552 247.609 53.1906 247.609C52.8312 247.609 52.5031 247.685 52.2062 247.836C51.9146 247.987 51.662 248.195 51.4484 248.461C51.2401 248.727 51.076 249.031 50.9562 249.375C50.8417 249.714 50.7844 250.073 50.7844 250.453ZM64.1031 246.547H65.4156V254.82C65.4156 255.565 65.2646 256.201 64.9625 256.727C64.6604 257.253 64.2385 257.651 63.6969 257.922C63.1604 258.198 62.5406 258.336 61.8375 258.336C61.5458 258.336 61.2021 258.289 60.8062 258.195C60.4156 258.107 60.0302 257.953 59.65 257.734C59.275 257.521 58.9599 257.232 58.7047 256.867L59.4625 256.008C59.8167 256.435 60.1865 256.732 60.5719 256.898C60.9625 257.065 61.3479 257.148 61.7281 257.148C62.1865 257.148 62.5823 257.062 62.9156 256.891C63.249 256.719 63.5068 256.464 63.6891 256.125C63.8766 255.792 63.9703 255.38 63.9703 254.891V248.406L64.1031 246.547ZM58.2828 250.867V250.703C58.2828 250.057 58.3583 249.471 58.5094 248.945C58.6656 248.414 58.887 247.958 59.1734 247.578C59.4651 247.198 59.8167 246.906 60.2281 246.703C60.6396 246.495 61.1031 246.391 61.6187 246.391C62.15 246.391 62.6135 246.484 63.0094 246.672C63.4104 246.854 63.749 247.122 64.025 247.477C64.3062 247.826 64.5276 248.247 64.6891 248.742C64.8505 249.237 64.9625 249.797 65.025 250.422V251.141C64.9677 251.76 64.8557 252.318 64.6891 252.812C64.5276 253.307 64.3062 253.729 64.025 254.078C63.749 254.427 63.4104 254.695 63.0094 254.883C62.6083 255.065 62.1396 255.156 61.6031 255.156C61.0979 255.156 60.6396 255.049 60.2281 254.836C59.8219 254.622 59.4729 254.323 59.1812 253.938C58.8896 253.552 58.6656 253.099 58.5094 252.578C58.3583 252.052 58.2828 251.482 58.2828 250.867ZM59.7281 250.703V250.867C59.7281 251.289 59.7698 251.685 59.8531 252.055C59.9417 252.424 60.0745 252.75 60.2516 253.031C60.4339 253.312 60.6656 253.534 60.9469 253.695C61.2281 253.852 61.5641 253.93 61.9547 253.93C62.4339 253.93 62.8297 253.828 63.1422 253.625C63.4547 253.422 63.7021 253.154 63.8844 252.82C64.0719 252.487 64.2177 252.125 64.3219 251.734V249.852C64.2646 249.565 64.176 249.289 64.0562 249.023C63.9417 248.753 63.7906 248.513 63.6031 248.305C63.4208 248.091 63.1943 247.922 62.9234 247.797C62.6526 247.672 62.3349 247.609 61.9703 247.609C61.5745 247.609 61.2333 247.693 60.9469 247.859C60.6656 248.021 60.4339 248.245 60.2516 248.531C60.0745 248.812 59.9417 249.141 59.8531 249.516C59.7698 249.885 59.7281 250.281 59.7281 250.703ZM74.1547 254.125L76.5062 246.547H78.0531L74.6625 256.305C74.5844 256.513 74.4802 256.737 74.35 256.977C74.225 257.221 74.0635 257.453 73.8656 257.672C73.6677 257.891 73.4281 258.068 73.1469 258.203C72.8708 258.344 72.5401 258.414 72.1547 258.414C72.0401 258.414 71.8943 258.398 71.7172 258.367C71.5401 258.336 71.4151 258.31 71.3422 258.289L71.3344 257.117C71.376 257.122 71.4411 257.128 71.5297 257.133C71.6234 257.143 71.6885 257.148 71.725 257.148C72.0531 257.148 72.3318 257.104 72.5609 257.016C72.7901 256.932 72.9828 256.789 73.1391 256.586C73.3005 256.388 73.4385 256.115 73.5531 255.766L74.1547 254.125ZM72.4281 246.547L74.6234 253.109L74.9984 254.633L73.9594 255.164L70.85 246.547H72.4281ZM78.95 250.867V250.688C78.95 250.078 79.0385 249.513 79.2156 248.992C79.3927 248.466 79.6479 248.01 79.9813 247.625C80.3146 247.234 80.7182 246.932 81.1922 246.719C81.6661 246.5 82.1974 246.391 82.7859 246.391C83.3797 246.391 83.9135 246.5 84.3875 246.719C84.8667 246.932 85.2729 247.234 85.6063 247.625C85.9448 248.01 86.2026 248.466 86.3797 248.992C86.5568 249.513 86.6453 250.078 86.6453 250.688V250.867C86.6453 251.477 86.5568 252.042 86.3797 252.562C86.2026 253.083 85.9448 253.539 85.6063 253.93C85.2729 254.315 84.8693 254.617 84.3953 254.836C83.9266 255.049 83.3953 255.156 82.8016 255.156C82.2078 255.156 81.674 255.049 81.2 254.836C80.726 254.617 80.3198 254.315 79.9813 253.93C79.6479 253.539 79.3927 253.083 79.2156 252.562C79.0385 252.042 78.95 251.477 78.95 250.867ZM80.3953 250.688V250.867C80.3953 251.289 80.4448 251.688 80.5438 252.062C80.6427 252.432 80.7911 252.76 80.9891 253.047C81.1922 253.333 81.4448 253.56 81.7469 253.727C82.049 253.888 82.4005 253.969 82.8016 253.969C83.1974 253.969 83.5438 253.888 83.8406 253.727C84.1427 253.56 84.3927 253.333 84.5906 253.047C84.7885 252.76 84.937 252.432 85.0359 252.062C85.1401 251.688 85.1922 251.289 85.1922 250.867V250.688C85.1922 250.271 85.1401 249.878 85.0359 249.508C84.937 249.133 84.7859 248.802 84.5828 248.516C84.3849 248.224 84.1349 247.995 83.8328 247.828C83.5359 247.661 83.187 247.578 82.7859 247.578C82.3901 247.578 82.0411 247.661 81.7391 247.828C81.4422 247.995 81.1922 248.224 80.9891 248.516C80.7911 248.802 80.6427 249.133 80.5438 249.508C80.4448 249.878 80.3953 250.271 80.3953 250.688ZM93.7297 253.047V246.547H95.1828V255H93.8L93.7297 253.047ZM94.0031 251.266L94.6047 251.25C94.6047 251.812 94.5448 252.333 94.425 252.812C94.3104 253.286 94.1229 253.698 93.8625 254.047C93.6021 254.396 93.2609 254.669 92.8391 254.867C92.4172 255.06 91.9042 255.156 91.3 255.156C90.8885 255.156 90.5109 255.096 90.1672 254.977C89.8286 254.857 89.537 254.672 89.2922 254.422C89.0474 254.172 88.8573 253.846 88.7219 253.445C88.5917 253.044 88.5266 252.562 88.5266 252V246.547H89.9719V252.016C89.9719 252.396 90.0135 252.711 90.0969 252.961C90.1854 253.206 90.3026 253.401 90.4484 253.547C90.5995 253.688 90.7661 253.786 90.9484 253.844C91.1359 253.901 91.3286 253.93 91.5266 253.93C92.1411 253.93 92.6281 253.812 92.9875 253.578C93.3469 253.339 93.6047 253.018 93.7609 252.617C93.9224 252.211 94.0031 251.76 94.0031 251.266ZM98.9313 247.875V255H97.4859V246.547H98.8922L98.9313 247.875ZM101.572 246.5L101.564 247.844C101.444 247.818 101.33 247.802 101.22 247.797C101.116 247.786 100.996 247.781 100.861 247.781C100.528 247.781 100.233 247.833 99.9781 247.938C99.7229 248.042 99.5068 248.188 99.3297 248.375C99.1526 248.562 99.012 248.786 98.9078 249.047C98.8089 249.302 98.7438 249.583 98.7125 249.891L98.3063 250.125C98.3063 249.615 98.3557 249.135 98.4547 248.688C98.5589 248.24 98.7177 247.844 98.9313 247.5C99.1448 247.151 99.4156 246.88 99.7438 246.688C100.077 246.49 100.473 246.391 100.931 246.391C101.035 246.391 101.155 246.404 101.291 246.43C101.426 246.451 101.52 246.474 101.572 246.5ZM112.405 253.359V243H113.858V255H112.53L112.405 253.359ZM106.717 250.867V250.703C106.717 250.057 106.795 249.471 106.952 248.945C107.113 248.414 107.34 247.958 107.631 247.578C107.928 247.198 108.28 246.906 108.686 246.703C109.097 246.495 109.556 246.391 110.061 246.391C110.592 246.391 111.056 246.484 111.452 246.672C111.853 246.854 112.191 247.122 112.467 247.477C112.748 247.826 112.97 248.247 113.131 248.742C113.293 249.237 113.405 249.797 113.467 250.422V251.141C113.41 251.76 113.298 252.318 113.131 252.812C112.97 253.307 112.748 253.729 112.467 254.078C112.191 254.427 111.853 254.695 111.452 254.883C111.051 255.065 110.582 255.156 110.045 255.156C109.551 255.156 109.097 255.049 108.686 254.836C108.28 254.622 107.928 254.323 107.631 253.938C107.34 253.552 107.113 253.099 106.952 252.578C106.795 252.052 106.717 251.482 106.717 250.867ZM108.17 250.703V250.867C108.17 251.289 108.212 251.685 108.295 252.055C108.384 252.424 108.519 252.75 108.702 253.031C108.884 253.312 109.116 253.534 109.397 253.695C109.678 253.852 110.014 253.93 110.405 253.93C110.884 253.93 111.277 253.828 111.584 253.625C111.897 253.422 112.147 253.154 112.334 252.82C112.522 252.487 112.668 252.125 112.772 251.734V249.852C112.709 249.565 112.618 249.289 112.498 249.023C112.384 248.753 112.233 248.513 112.045 248.305C111.863 248.091 111.636 247.922 111.366 247.797C111.1 247.672 110.785 247.609 110.42 247.609C110.024 247.609 109.683 247.693 109.397 247.859C109.116 248.021 108.884 248.245 108.702 248.531C108.519 248.812 108.384 249.141 108.295 249.516C108.212 249.885 108.17 250.281 108.17 250.703ZM119.716 255.156C119.127 255.156 118.593 255.057 118.114 254.859C117.64 254.656 117.231 254.372 116.887 254.008C116.549 253.643 116.289 253.211 116.106 252.711C115.924 252.211 115.833 251.664 115.833 251.07V250.742C115.833 250.055 115.934 249.443 116.137 248.906C116.341 248.365 116.617 247.906 116.966 247.531C117.315 247.156 117.71 246.872 118.153 246.68C118.596 246.487 119.054 246.391 119.528 246.391C120.132 246.391 120.653 246.495 121.091 246.703C121.533 246.911 121.895 247.203 122.177 247.578C122.458 247.948 122.666 248.385 122.802 248.891C122.937 249.391 123.005 249.938 123.005 250.531V251.18H116.692V250H121.559V249.891C121.539 249.516 121.46 249.151 121.325 248.797C121.195 248.443 120.986 248.151 120.7 247.922C120.414 247.693 120.023 247.578 119.528 247.578C119.2 247.578 118.898 247.648 118.622 247.789C118.346 247.924 118.109 248.128 117.911 248.398C117.713 248.669 117.559 249 117.45 249.391C117.341 249.781 117.286 250.232 117.286 250.742V251.07C117.286 251.471 117.341 251.849 117.45 252.203C117.565 252.552 117.729 252.859 117.942 253.125C118.161 253.391 118.424 253.599 118.731 253.75C119.044 253.901 119.398 253.977 119.794 253.977C120.304 253.977 120.736 253.872 121.091 253.664C121.445 253.456 121.755 253.177 122.02 252.828L122.895 253.523C122.713 253.799 122.481 254.062 122.2 254.312C121.919 254.562 121.572 254.766 121.161 254.922C120.755 255.078 120.273 255.156 119.716 255.156ZM129.714 252.758C129.714 252.549 129.667 252.357 129.573 252.18C129.485 251.997 129.3 251.833 129.019 251.688C128.743 251.536 128.326 251.406 127.769 251.297C127.3 251.198 126.876 251.081 126.495 250.945C126.12 250.81 125.8 250.646 125.534 250.453C125.274 250.26 125.073 250.034 124.933 249.773C124.792 249.513 124.722 249.208 124.722 248.859C124.722 248.526 124.795 248.211 124.941 247.914C125.092 247.617 125.303 247.354 125.573 247.125C125.849 246.896 126.18 246.716 126.566 246.586C126.951 246.456 127.381 246.391 127.855 246.391C128.532 246.391 129.11 246.51 129.589 246.75C130.068 246.99 130.435 247.31 130.691 247.711C130.946 248.107 131.073 248.547 131.073 249.031H129.628C129.628 248.797 129.558 248.57 129.417 248.352C129.282 248.128 129.081 247.943 128.816 247.797C128.555 247.651 128.235 247.578 127.855 247.578C127.454 247.578 127.128 247.641 126.878 247.766C126.633 247.885 126.454 248.039 126.339 248.227C126.23 248.414 126.175 248.612 126.175 248.82C126.175 248.977 126.201 249.117 126.253 249.242C126.31 249.362 126.409 249.474 126.55 249.578C126.691 249.677 126.889 249.771 127.144 249.859C127.399 249.948 127.724 250.036 128.12 250.125C128.813 250.281 129.383 250.469 129.831 250.688C130.279 250.906 130.613 251.174 130.831 251.492C131.05 251.81 131.159 252.195 131.159 252.648C131.159 253.018 131.081 253.357 130.925 253.664C130.774 253.971 130.553 254.237 130.261 254.461C129.974 254.68 129.631 254.852 129.23 254.977C128.834 255.096 128.389 255.156 127.894 255.156C127.149 255.156 126.519 255.023 126.003 254.758C125.488 254.492 125.097 254.148 124.831 253.727C124.566 253.305 124.433 252.859 124.433 252.391H125.886C125.907 252.786 126.021 253.102 126.23 253.336C126.438 253.565 126.693 253.729 126.995 253.828C127.297 253.922 127.597 253.969 127.894 253.969C128.29 253.969 128.62 253.917 128.886 253.812C129.157 253.708 129.363 253.565 129.503 253.383C129.644 253.201 129.714 252.992 129.714 252.758ZM134.728 246.547V255H133.275V246.547H134.728ZM133.166 244.305C133.166 244.07 133.236 243.872 133.377 243.711C133.522 243.549 133.736 243.469 134.017 243.469C134.293 243.469 134.504 243.549 134.65 243.711C134.801 243.872 134.877 244.07 134.877 244.305C134.877 244.529 134.801 244.721 134.65 244.883C134.504 245.039 134.293 245.117 134.017 245.117C133.736 245.117 133.522 245.039 133.377 244.883C133.236 244.721 133.166 244.529 133.166 244.305ZM142.625 246.547H143.938V254.82C143.938 255.565 143.786 256.201 143.484 256.727C143.182 257.253 142.76 257.651 142.219 257.922C141.682 258.198 141.062 258.336 140.359 258.336C140.068 258.336 139.724 258.289 139.328 258.195C138.938 258.107 138.552 257.953 138.172 257.734C137.797 257.521 137.482 257.232 137.227 256.867L137.984 256.008C138.339 256.435 138.708 256.732 139.094 256.898C139.484 257.065 139.87 257.148 140.25 257.148C140.708 257.148 141.104 257.062 141.438 256.891C141.771 256.719 142.029 256.464 142.211 256.125C142.398 255.792 142.492 255.38 142.492 254.891V248.406L142.625 246.547ZM136.805 250.867V250.703C136.805 250.057 136.88 249.471 137.031 248.945C137.188 248.414 137.409 247.958 137.695 247.578C137.987 247.198 138.339 246.906 138.75 246.703C139.161 246.495 139.625 246.391 140.141 246.391C140.672 246.391 141.135 246.484 141.531 246.672C141.932 246.854 142.271 247.122 142.547 247.477C142.828 247.826 143.049 248.247 143.211 248.742C143.372 249.237 143.484 249.797 143.547 250.422V251.141C143.49 251.76 143.378 252.318 143.211 252.812C143.049 253.307 142.828 253.729 142.547 254.078C142.271 254.427 141.932 254.695 141.531 254.883C141.13 255.065 140.661 255.156 140.125 255.156C139.62 255.156 139.161 255.049 138.75 254.836C138.344 254.622 137.995 254.323 137.703 253.938C137.411 253.552 137.188 253.099 137.031 252.578C136.88 252.052 136.805 251.482 136.805 250.867ZM138.25 250.703V250.867C138.25 251.289 138.292 251.685 138.375 252.055C138.464 252.424 138.596 252.75 138.773 253.031C138.956 253.312 139.188 253.534 139.469 253.695C139.75 253.852 140.086 253.93 140.477 253.93C140.956 253.93 141.352 253.828 141.664 253.625C141.977 253.422 142.224 253.154 142.406 252.82C142.594 252.487 142.74 252.125 142.844 251.734V249.852C142.786 249.565 142.698 249.289 142.578 249.023C142.464 248.753 142.312 248.513 142.125 248.305C141.943 248.091 141.716 247.922 141.445 247.797C141.174 247.672 140.857 247.609 140.492 247.609C140.096 247.609 139.755 247.693 139.469 247.859C139.188 248.021 138.956 248.245 138.773 248.531C138.596 248.812 138.464 249.141 138.375 249.516C138.292 249.885 138.25 250.281 138.25 250.703ZM147.678 248.352V255H146.233V246.547H147.6L147.678 248.352ZM147.334 250.453L146.733 250.43C146.738 249.852 146.824 249.318 146.991 248.828C147.157 248.333 147.392 247.904 147.694 247.539C147.996 247.174 148.355 246.893 148.772 246.695C149.194 246.492 149.66 246.391 150.17 246.391C150.587 246.391 150.962 246.448 151.295 246.562C151.629 246.672 151.912 246.849 152.147 247.094C152.386 247.339 152.569 247.656 152.694 248.047C152.819 248.432 152.881 248.904 152.881 249.461V255H151.428V249.445C151.428 249.003 151.363 248.648 151.233 248.383C151.103 248.112 150.912 247.917 150.662 247.797C150.412 247.672 150.105 247.609 149.741 247.609C149.381 247.609 149.053 247.685 148.756 247.836C148.465 247.987 148.212 248.195 147.998 248.461C147.79 248.727 147.626 249.031 147.506 249.375C147.392 249.714 147.334 250.073 147.334 250.453ZM32.6719 275.695L34.9844 268.547H36.4609L33.4219 277H32.4531L32.6719 275.695ZM30.7422 268.547L33.125 275.734L33.2891 277H32.3203L29.2578 268.547H30.7422ZM39.5219 268.547V277H38.0687V268.547H39.5219ZM37.9594 266.305C37.9594 266.07 38.0297 265.872 38.1703 265.711C38.3161 265.549 38.5297 265.469 38.8109 265.469C39.087 265.469 39.2979 265.549 39.4437 265.711C39.5948 265.872 39.6703 266.07 39.6703 266.305C39.6703 266.529 39.5948 266.721 39.4437 266.883C39.2979 267.039 39.087 267.117 38.8109 267.117C38.5297 267.117 38.3161 267.039 38.1703 266.883C38.0297 266.721 37.9594 266.529 37.9594 266.305ZM46.8641 274.758C46.8641 274.549 46.8172 274.357 46.7234 274.18C46.6349 273.997 46.45 273.833 46.1687 273.688C45.8927 273.536 45.476 273.406 44.9187 273.297C44.45 273.198 44.0255 273.081 43.6453 272.945C43.2703 272.81 42.95 272.646 42.6844 272.453C42.424 272.26 42.2234 272.034 42.0828 271.773C41.9422 271.513 41.8719 271.208 41.8719 270.859C41.8719 270.526 41.9448 270.211 42.0906 269.914C42.2417 269.617 42.4526 269.354 42.7234 269.125C42.9995 268.896 43.3302 268.716 43.7156 268.586C44.101 268.456 44.5307 268.391 45.0047 268.391C45.6818 268.391 46.2599 268.51 46.7391 268.75C47.2182 268.99 47.5854 269.31 47.8406 269.711C48.0958 270.107 48.2234 270.547 48.2234 271.031H46.7781C46.7781 270.797 46.7078 270.57 46.5672 270.352C46.4318 270.128 46.2312 269.943 45.9656 269.797C45.7052 269.651 45.3849 269.578 45.0047 269.578C44.6036 269.578 44.2781 269.641 44.0281 269.766C43.7833 269.885 43.6036 270.039 43.4891 270.227C43.3797 270.414 43.325 270.612 43.325 270.82C43.325 270.977 43.351 271.117 43.4031 271.242C43.4604 271.362 43.5594 271.474 43.7 271.578C43.8406 271.677 44.0385 271.771 44.2937 271.859C44.549 271.948 44.8745 272.036 45.2703 272.125C45.963 272.281 46.5333 272.469 46.9812 272.688C47.4292 272.906 47.7625 273.174 47.9812 273.492C48.2 273.81 48.3094 274.195 48.3094 274.648C48.3094 275.018 48.2312 275.357 48.075 275.664C47.924 275.971 47.7026 276.237 47.4109 276.461C47.1245 276.68 46.7807 276.852 46.3797 276.977C45.9839 277.096 45.5385 277.156 45.0437 277.156C44.299 277.156 43.6687 277.023 43.1531 276.758C42.6375 276.492 42.2469 276.148 41.9812 275.727C41.7156 275.305 41.5828 274.859 41.5828 274.391H43.0359C43.0568 274.786 43.1714 275.102 43.3797 275.336C43.588 275.565 43.8432 275.729 44.1453 275.828C44.4474 275.922 44.7469 275.969 45.0437 275.969C45.4396 275.969 45.7703 275.917 46.0359 275.812C46.3068 275.708 46.5125 275.565 46.6531 275.383C46.7937 275.201 46.8641 274.992 46.8641 274.758ZM51.8781 268.547V277H50.425V268.547H51.8781ZM50.3156 266.305C50.3156 266.07 50.3859 265.872 50.5266 265.711C50.6724 265.549 50.8859 265.469 51.1672 265.469C51.4432 265.469 51.6542 265.549 51.8 265.711C51.951 265.872 52.0266 266.07 52.0266 266.305C52.0266 266.529 51.951 266.721 51.8 266.883C51.6542 267.039 51.4432 267.117 51.1672 267.117C50.8859 267.117 50.6724 267.039 50.5266 266.883C50.3859 266.721 50.3156 266.529 50.3156 266.305ZM53.9156 272.867V272.688C53.9156 272.078 54.0042 271.513 54.1812 270.992C54.3583 270.466 54.6135 270.01 54.9469 269.625C55.2802 269.234 55.6839 268.932 56.1578 268.719C56.6318 268.5 57.163 268.391 57.7516 268.391C58.3453 268.391 58.8792 268.5 59.3531 268.719C59.8323 268.932 60.2385 269.234 60.5719 269.625C60.9104 270.01 61.1682 270.466 61.3453 270.992C61.5224 271.513 61.6109 272.078 61.6109 272.688V272.867C61.6109 273.477 61.5224 274.042 61.3453 274.562C61.1682 275.083 60.9104 275.539 60.5719 275.93C60.2385 276.315 59.8349 276.617 59.3609 276.836C58.8922 277.049 58.3609 277.156 57.7672 277.156C57.1734 277.156 56.6396 277.049 56.1656 276.836C55.6917 276.617 55.2854 276.315 54.9469 275.93C54.6135 275.539 54.3583 275.083 54.1812 274.562C54.0042 274.042 53.9156 273.477 53.9156 272.867ZM55.3609 272.688V272.867C55.3609 273.289 55.4104 273.688 55.5094 274.062C55.6083 274.432 55.7568 274.76 55.9547 275.047C56.1578 275.333 56.4104 275.56 56.7125 275.727C57.0146 275.888 57.3661 275.969 57.7672 275.969C58.163 275.969 58.5094 275.888 58.8062 275.727C59.1083 275.56 59.3583 275.333 59.5562 275.047C59.7542 274.76 59.9026 274.432 60.0016 274.062C60.1057 273.688 60.1578 273.289 60.1578 272.867V272.688C60.1578 272.271 60.1057 271.878 60.0016 271.508C59.9026 271.133 59.7516 270.802 59.5484 270.516C59.3505 270.224 59.1005 269.995 58.7984 269.828C58.5016 269.661 58.1526 269.578 57.7516 269.578C57.3557 269.578 57.0068 269.661 56.7047 269.828C56.4078 269.995 56.1578 270.224 55.9547 270.516C55.7568 270.802 55.6083 271.133 55.5094 271.508C55.4104 271.878 55.3609 272.271 55.3609 272.688ZM64.9688 270.352V277H63.5234V268.547H64.8906L64.9688 270.352ZM64.625 272.453L64.0234 272.43C64.0286 271.852 64.1146 271.318 64.2812 270.828C64.4479 270.333 64.6823 269.904 64.9844 269.539C65.2865 269.174 65.6458 268.893 66.0625 268.695C66.4844 268.492 66.9505 268.391 67.4609 268.391C67.8776 268.391 68.2526 268.448 68.5859 268.562C68.9193 268.672 69.2031 268.849 69.4375 269.094C69.6771 269.339 69.8594 269.656 69.9844 270.047C70.1094 270.432 70.1719 270.904 70.1719 271.461V277H68.7188V271.445C68.7188 271.003 68.6536 270.648 68.5234 270.383C68.3932 270.112 68.2031 269.917 67.9531 269.797C67.7031 269.672 67.3958 269.609 67.0312 269.609C66.6719 269.609 66.3438 269.685 66.0469 269.836C65.7552 269.987 65.5026 270.195 65.2891 270.461C65.0807 270.727 64.9167 271.031 64.7969 271.375C64.6823 271.714 64.625 272.073 64.625 272.453ZM80.075 268.547V269.656H75.5047V268.547H80.075ZM77.0516 266.492H78.4969V274.906C78.4969 275.193 78.5411 275.409 78.6297 275.555C78.7182 275.701 78.8328 275.797 78.9734 275.844C79.1141 275.891 79.2651 275.914 79.4266 275.914C79.5464 275.914 79.6714 275.904 79.8016 275.883C79.937 275.857 80.0385 275.836 80.1063 275.82L80.1141 277C79.9995 277.036 79.8484 277.07 79.6609 277.102C79.4786 277.138 79.2573 277.156 78.9969 277.156C78.6427 277.156 78.3172 277.086 78.0203 276.945C77.7234 276.805 77.4865 276.57 77.3094 276.242C77.1375 275.909 77.0516 275.461 77.0516 274.898V266.492ZM81.3312 272.867V272.688C81.3312 272.078 81.4198 271.513 81.5969 270.992C81.774 270.466 82.0292 270.01 82.3625 269.625C82.6958 269.234 83.0995 268.932 83.5734 268.719C84.0474 268.5 84.5786 268.391 85.1672 268.391C85.7609 268.391 86.2948 268.5 86.7687 268.719C87.2479 268.932 87.6542 269.234 87.9875 269.625C88.326 270.01 88.5839 270.466 88.7609 270.992C88.938 271.513 89.0266 272.078 89.0266 272.688V272.867C89.0266 273.477 88.938 274.042 88.7609 274.562C88.5839 275.083 88.326 275.539 87.9875 275.93C87.6542 276.315 87.2505 276.617 86.7766 276.836C86.3078 277.049 85.7766 277.156 85.1828 277.156C84.5891 277.156 84.0552 277.049 83.5812 276.836C83.1073 276.617 82.701 276.315 82.3625 275.93C82.0292 275.539 81.774 275.083 81.5969 274.562C81.4198 274.042 81.3312 273.477 81.3312 272.867ZM82.7766 272.688V272.867C82.7766 273.289 82.826 273.688 82.925 274.062C83.024 274.432 83.1724 274.76 83.3703 275.047C83.5734 275.333 83.826 275.56 84.1281 275.727C84.4302 275.888 84.7818 275.969 85.1828 275.969C85.5786 275.969 85.925 275.888 86.2219 275.727C86.524 275.56 86.774 275.333 86.9719 275.047C87.1698 274.76 87.3182 274.432 87.4172 274.062C87.5214 273.688 87.5734 273.289 87.5734 272.867V272.688C87.5734 272.271 87.5214 271.878 87.4172 271.508C87.3182 271.133 87.1672 270.802 86.9641 270.516C86.7661 270.224 86.5161 269.995 86.2141 269.828C85.9172 269.661 85.5682 269.578 85.1672 269.578C84.7714 269.578 84.4224 269.661 84.1203 269.828C83.8234 269.995 83.5734 270.224 83.3703 270.516C83.1724 270.802 83.024 271.133 82.925 271.508C82.826 271.878 82.7766 272.271 82.7766 272.688ZM96.5781 265V277H95.125V265H96.5781ZM100.569 268.547V277H99.1156V268.547H100.569ZM99.0062 266.305C99.0062 266.07 99.0766 265.872 99.2172 265.711C99.363 265.549 99.5766 265.469 99.8578 265.469C100.134 265.469 100.345 265.549 100.491 265.711C100.642 265.872 100.717 266.07 100.717 266.305C100.717 266.529 100.642 266.721 100.491 266.883C100.345 267.039 100.134 267.117 99.8578 267.117C99.5766 267.117 99.363 267.039 99.2172 266.883C99.0766 266.721 99.0062 266.529 99.0062 266.305ZM105.145 277H103.7V267.656C103.7 267.047 103.809 266.534 104.028 266.117C104.252 265.695 104.572 265.378 104.989 265.164C105.406 264.945 105.901 264.836 106.473 264.836C106.64 264.836 106.807 264.846 106.973 264.867C107.145 264.888 107.312 264.919 107.473 264.961L107.395 266.141C107.286 266.115 107.161 266.096 107.02 266.086C106.885 266.076 106.749 266.07 106.614 266.07C106.307 266.07 106.041 266.133 105.817 266.258C105.598 266.378 105.432 266.555 105.317 266.789C105.203 267.023 105.145 267.312 105.145 267.656V277ZM106.942 268.547V269.656H102.364V268.547H106.942ZM111.972 277.156C111.383 277.156 110.849 277.057 110.37 276.859C109.896 276.656 109.488 276.372 109.144 276.008C108.805 275.643 108.545 275.211 108.363 274.711C108.18 274.211 108.089 273.664 108.089 273.07V272.742C108.089 272.055 108.191 271.443 108.394 270.906C108.597 270.365 108.873 269.906 109.222 269.531C109.571 269.156 109.967 268.872 110.409 268.68C110.852 268.487 111.31 268.391 111.784 268.391C112.389 268.391 112.909 268.495 113.347 268.703C113.79 268.911 114.152 269.203 114.433 269.578C114.714 269.948 114.922 270.385 115.058 270.891C115.193 271.391 115.261 271.938 115.261 272.531V273.18H108.948V272H113.816V271.891C113.795 271.516 113.717 271.151 113.581 270.797C113.451 270.443 113.243 270.151 112.956 269.922C112.67 269.693 112.279 269.578 111.784 269.578C111.456 269.578 111.154 269.648 110.878 269.789C110.602 269.924 110.365 270.128 110.167 270.398C109.969 270.669 109.816 271 109.706 271.391C109.597 271.781 109.542 272.232 109.542 272.742V273.07C109.542 273.471 109.597 273.849 109.706 274.203C109.821 274.552 109.985 274.859 110.198 275.125C110.417 275.391 110.68 275.599 110.988 275.75C111.3 275.901 111.654 275.977 112.05 275.977C112.56 275.977 112.993 275.872 113.347 275.664C113.701 275.456 114.011 275.177 114.277 274.828L115.152 275.523C114.969 275.799 114.738 276.062 114.456 276.312C114.175 276.562 113.829 276.766 113.417 276.922C113.011 277.078 112.529 277.156 111.972 277.156ZM122.688 268.547V277H121.234V268.547H122.688ZM121.125 266.305C121.125 266.07 121.195 265.872 121.336 265.711C121.482 265.549 121.695 265.469 121.977 265.469C122.253 265.469 122.464 265.549 122.609 265.711C122.76 265.872 122.836 266.07 122.836 266.305C122.836 266.529 122.76 266.721 122.609 266.883C122.464 267.039 122.253 267.117 121.977 267.117C121.695 267.117 121.482 267.039 121.336 266.883C121.195 266.721 121.125 266.529 121.125 266.305ZM126.553 270.352V277H125.108V268.547H126.475L126.553 270.352ZM126.209 272.453L125.608 272.43C125.613 271.852 125.699 271.318 125.866 270.828C126.032 270.333 126.267 269.904 126.569 269.539C126.871 269.174 127.23 268.893 127.647 268.695C128.069 268.492 128.535 268.391 129.045 268.391C129.462 268.391 129.837 268.448 130.17 268.562C130.504 268.672 130.787 268.849 131.022 269.094C131.261 269.339 131.444 269.656 131.569 270.047C131.694 270.432 131.756 270.904 131.756 271.461V277H130.303V271.445C130.303 271.003 130.238 270.648 130.108 270.383C129.978 270.112 129.787 269.917 129.537 269.797C129.287 269.672 128.98 269.609 128.616 269.609C128.256 269.609 127.928 269.685 127.631 269.836C127.34 269.987 127.087 270.195 126.873 270.461C126.665 270.727 126.501 271.031 126.381 271.375C126.267 271.714 126.209 272.073 126.209 272.453ZM141.503 275.969C141.847 275.969 142.165 275.898 142.456 275.758C142.748 275.617 142.988 275.424 143.175 275.18C143.363 274.93 143.469 274.646 143.495 274.328H144.87C144.844 274.828 144.675 275.294 144.363 275.727C144.055 276.154 143.652 276.5 143.152 276.766C142.652 277.026 142.102 277.156 141.503 277.156C140.868 277.156 140.313 277.044 139.839 276.82C139.37 276.596 138.98 276.289 138.667 275.898C138.36 275.508 138.128 275.06 137.972 274.555C137.821 274.044 137.745 273.505 137.745 272.938V272.609C137.745 272.042 137.821 271.505 137.972 271C138.128 270.49 138.36 270.039 138.667 269.648C138.98 269.258 139.37 268.951 139.839 268.727C140.313 268.503 140.868 268.391 141.503 268.391C142.165 268.391 142.743 268.526 143.238 268.797C143.732 269.062 144.12 269.427 144.402 269.891C144.688 270.349 144.844 270.87 144.87 271.453H143.495C143.469 271.104 143.37 270.789 143.198 270.508C143.032 270.227 142.803 270.003 142.511 269.836C142.224 269.664 141.889 269.578 141.503 269.578C141.06 269.578 140.688 269.667 140.386 269.844C140.089 270.016 139.852 270.25 139.675 270.547C139.503 270.839 139.378 271.164 139.3 271.523C139.227 271.878 139.191 272.24 139.191 272.609V272.938C139.191 273.307 139.227 273.672 139.3 274.031C139.373 274.391 139.495 274.716 139.667 275.008C139.844 275.299 140.081 275.534 140.378 275.711C140.68 275.883 141.055 275.969 141.503 275.969ZM148.166 265V277H146.713V265H148.166ZM154.094 277.156C153.505 277.156 152.971 277.057 152.492 276.859C152.018 276.656 151.609 276.372 151.266 276.008C150.927 275.643 150.667 275.211 150.484 274.711C150.302 274.211 150.211 273.664 150.211 273.07V272.742C150.211 272.055 150.312 271.443 150.516 270.906C150.719 270.365 150.995 269.906 151.344 269.531C151.693 269.156 152.089 268.872 152.531 268.68C152.974 268.487 153.432 268.391 153.906 268.391C154.51 268.391 155.031 268.495 155.469 268.703C155.911 268.911 156.273 269.203 156.555 269.578C156.836 269.948 157.044 270.385 157.18 270.891C157.315 271.391 157.383 271.938 157.383 272.531V273.18H151.07V272H155.938V271.891C155.917 271.516 155.839 271.151 155.703 270.797C155.573 270.443 155.365 270.151 155.078 269.922C154.792 269.693 154.401 269.578 153.906 269.578C153.578 269.578 153.276 269.648 153 269.789C152.724 269.924 152.487 270.128 152.289 270.398C152.091 270.669 151.938 271 151.828 271.391C151.719 271.781 151.664 272.232 151.664 272.742V273.07C151.664 273.471 151.719 273.849 151.828 274.203C151.943 274.552 152.107 274.859 152.32 275.125C152.539 275.391 152.802 275.599 153.109 275.75C153.422 275.901 153.776 275.977 154.172 275.977C154.682 275.977 155.115 275.872 155.469 275.664C155.823 275.456 156.133 275.177 156.398 274.828L157.273 275.523C157.091 275.799 156.859 276.062 156.578 276.312C156.297 276.562 155.951 276.766 155.539 276.922C155.133 277.078 154.651 277.156 154.094 277.156ZM164.155 275.555V271.203C164.155 270.87 164.087 270.581 163.952 270.336C163.821 270.086 163.623 269.893 163.358 269.758C163.092 269.622 162.764 269.555 162.373 269.555C162.009 269.555 161.689 269.617 161.413 269.742C161.142 269.867 160.928 270.031 160.772 270.234C160.621 270.438 160.545 270.656 160.545 270.891H159.1C159.1 270.589 159.178 270.289 159.334 269.992C159.491 269.695 159.715 269.427 160.006 269.188C160.303 268.943 160.657 268.75 161.069 268.609C161.485 268.464 161.949 268.391 162.459 268.391C163.074 268.391 163.616 268.495 164.084 268.703C164.558 268.911 164.928 269.227 165.194 269.648C165.465 270.065 165.6 270.589 165.6 271.219V275.156C165.6 275.438 165.623 275.737 165.67 276.055C165.722 276.372 165.798 276.646 165.897 276.875V277H164.389C164.316 276.833 164.259 276.612 164.217 276.336C164.176 276.055 164.155 275.794 164.155 275.555ZM164.405 271.875L164.42 272.891H162.959C162.548 272.891 162.181 272.924 161.858 272.992C161.535 273.055 161.264 273.151 161.045 273.281C160.827 273.411 160.66 273.576 160.545 273.773C160.431 273.966 160.373 274.193 160.373 274.453C160.373 274.719 160.433 274.961 160.553 275.18C160.673 275.398 160.853 275.573 161.092 275.703C161.337 275.828 161.636 275.891 161.991 275.891C162.433 275.891 162.824 275.797 163.163 275.609C163.501 275.422 163.769 275.193 163.967 274.922C164.17 274.651 164.28 274.388 164.295 274.133L164.913 274.828C164.876 275.047 164.777 275.289 164.616 275.555C164.454 275.82 164.238 276.076 163.967 276.32C163.702 276.56 163.384 276.76 163.014 276.922C162.649 277.078 162.238 277.156 161.78 277.156C161.207 277.156 160.704 277.044 160.272 276.82C159.845 276.596 159.511 276.297 159.272 275.922C159.038 275.542 158.92 275.117 158.92 274.648C158.92 274.195 159.009 273.797 159.186 273.453C159.363 273.104 159.618 272.815 159.952 272.586C160.285 272.352 160.686 272.174 161.155 272.055C161.623 271.935 162.147 271.875 162.725 271.875H164.405ZM169.419 270.352V277H167.973V268.547H169.341L169.419 270.352ZM169.075 272.453L168.473 272.43C168.479 271.852 168.565 271.318 168.731 270.828C168.898 270.333 169.132 269.904 169.434 269.539C169.736 269.174 170.096 268.893 170.512 268.695C170.934 268.492 171.401 268.391 171.911 268.391C172.328 268.391 172.703 268.448 173.036 268.562C173.369 268.672 173.653 268.849 173.887 269.094C174.127 269.339 174.309 269.656 174.434 270.047C174.559 270.432 174.622 270.904 174.622 271.461V277H173.169V271.445C173.169 271.003 173.104 270.648 172.973 270.383C172.843 270.112 172.653 269.917 172.403 269.797C172.153 269.672 171.846 269.609 171.481 269.609C171.122 269.609 170.794 269.685 170.497 269.836C170.205 269.987 169.953 270.195 169.739 270.461C169.531 270.727 169.367 271.031 169.247 271.375C169.132 271.714 169.075 272.073 169.075 272.453ZM178.23 275.281V276.445C178.23 276.919 178.11 277.419 177.87 277.945C177.631 278.477 177.295 278.919 176.863 279.273L176.042 278.703C176.209 278.474 176.349 278.24 176.464 278C176.579 277.766 176.665 277.521 176.722 277.266C176.784 277.016 176.816 276.75 176.816 276.469V275.281H178.23ZM35.0234 296.758C35.0234 296.549 34.9766 296.357 34.8828 296.18C34.7943 295.997 34.6094 295.833 34.3281 295.688C34.0521 295.536 33.6354 295.406 33.0781 295.297C32.6094 295.198 32.1849 295.081 31.8047 294.945C31.4297 294.81 31.1094 294.646 30.8438 294.453C30.5833 294.26 30.3828 294.034 30.2422 293.773C30.1016 293.513 30.0312 293.208 30.0312 292.859C30.0312 292.526 30.1042 292.211 30.25 291.914C30.401 291.617 30.612 291.354 30.8828 291.125C31.1589 290.896 31.4896 290.716 31.875 290.586C32.2604 290.456 32.6901 290.391 33.1641 290.391C33.8411 290.391 34.4193 290.51 34.8984 290.75C35.3776 290.99 35.7448 291.31 36 291.711C36.2552 292.107 36.3828 292.547 36.3828 293.031H34.9375C34.9375 292.797 34.8672 292.57 34.7266 292.352C34.5911 292.128 34.3906 291.943 34.125 291.797C33.8646 291.651 33.5443 291.578 33.1641 291.578C32.763 291.578 32.4375 291.641 32.1875 291.766C31.9427 291.885 31.763 292.039 31.6484 292.227C31.5391 292.414 31.4844 292.612 31.4844 292.82C31.4844 292.977 31.5104 293.117 31.5625 293.242C31.6198 293.362 31.7188 293.474 31.8594 293.578C32 293.677 32.1979 293.771 32.4531 293.859C32.7083 293.948 33.0339 294.036 33.4297 294.125C34.1224 294.281 34.6927 294.469 35.1406 294.688C35.5885 294.906 35.9219 295.174 36.1406 295.492C36.3594 295.81 36.4688 296.195 36.4688 296.648C36.4688 297.018 36.3906 297.357 36.2344 297.664C36.0833 297.971 35.862 298.237 35.5703 298.461C35.2839 298.68 34.9401 298.852 34.5391 298.977C34.1432 299.096 33.6979 299.156 33.2031 299.156C32.4583 299.156 31.8281 299.023 31.3125 298.758C30.7969 298.492 30.4062 298.148 30.1406 297.727C29.875 297.305 29.7422 296.859 29.7422 296.391H31.1953C31.2161 296.786 31.3307 297.102 31.5391 297.336C31.7474 297.565 32.0026 297.729 32.3047 297.828C32.6068 297.922 32.9062 297.969 33.2031 297.969C33.599 297.969 33.9297 297.917 34.1953 297.812C34.4661 297.708 34.6719 297.565 34.8125 297.383C34.9531 297.201 35.0234 296.992 35.0234 296.758ZM41.975 299.156C41.3865 299.156 40.8526 299.057 40.3734 298.859C39.8995 298.656 39.4906 298.372 39.1469 298.008C38.8083 297.643 38.5479 297.211 38.3656 296.711C38.1833 296.211 38.0922 295.664 38.0922 295.07V294.742C38.0922 294.055 38.1938 293.443 38.3969 292.906C38.6 292.365 38.876 291.906 39.225 291.531C39.574 291.156 39.9698 290.872 40.4125 290.68C40.8552 290.487 41.3135 290.391 41.7875 290.391C42.3917 290.391 42.9125 290.495 43.35 290.703C43.7927 290.911 44.1547 291.203 44.4359 291.578C44.7172 291.948 44.9255 292.385 45.0609 292.891C45.1964 293.391 45.2641 293.938 45.2641 294.531V295.18H38.9516V294H43.8188V293.891C43.7979 293.516 43.7198 293.151 43.5844 292.797C43.4542 292.443 43.2458 292.151 42.9594 291.922C42.6729 291.693 42.2823 291.578 41.7875 291.578C41.4594 291.578 41.1573 291.648 40.8813 291.789C40.6052 291.924 40.3682 292.128 40.1703 292.398C39.9724 292.669 39.8188 293 39.7094 293.391C39.6 293.781 39.5453 294.232 39.5453 294.742V295.07C39.5453 295.471 39.6 295.849 39.7094 296.203C39.824 296.552 39.988 296.859 40.2016 297.125C40.4203 297.391 40.6833 297.599 40.9906 297.75C41.3031 297.901 41.6573 297.977 42.0531 297.977C42.5635 297.977 42.9958 297.872 43.35 297.664C43.7042 297.456 44.0141 297.177 44.2797 296.828L45.1547 297.523C44.9724 297.799 44.7406 298.062 44.4594 298.312C44.1781 298.562 43.8318 298.766 43.4203 298.922C43.0141 299.078 42.5323 299.156 41.975 299.156ZM48.4891 292.227V299H47.0359V290.547H48.4109L48.4891 292.227ZM48.1922 294.453L47.5203 294.43C47.5255 293.852 47.601 293.318 47.7469 292.828C47.8927 292.333 48.1089 291.904 48.3953 291.539C48.6818 291.174 49.0385 290.893 49.4656 290.695C49.8927 290.492 50.3875 290.391 50.95 290.391C51.3458 290.391 51.7104 290.448 52.0438 290.562C52.3771 290.672 52.6661 290.846 52.9109 291.086C53.1557 291.326 53.3458 291.633 53.4813 292.008C53.6167 292.383 53.6844 292.836 53.6844 293.367V299H52.2391V293.438C52.2391 292.995 52.1635 292.641 52.0125 292.375C51.8667 292.109 51.6583 291.917 51.3875 291.797C51.1167 291.672 50.799 291.609 50.4344 291.609C50.0073 291.609 49.6505 291.685 49.3641 291.836C49.0776 291.987 48.8484 292.195 48.6766 292.461C48.5047 292.727 48.3797 293.031 48.3016 293.375C48.2286 293.714 48.1922 294.073 48.1922 294.453ZM53.6688 293.656L52.7 293.953C52.7052 293.49 52.7807 293.044 52.9266 292.617C53.0776 292.19 53.2938 291.81 53.575 291.477C53.8615 291.143 54.213 290.88 54.6297 290.688C55.0464 290.49 55.5229 290.391 56.0594 290.391C56.5125 290.391 56.9135 290.451 57.2625 290.57C57.6167 290.69 57.9135 290.875 58.1531 291.125C58.3979 291.37 58.5828 291.685 58.7078 292.07C58.8328 292.456 58.8953 292.914 58.8953 293.445V299H57.4422V293.43C57.4422 292.956 57.3667 292.589 57.2156 292.328C57.0698 292.062 56.8615 291.878 56.5906 291.773C56.325 291.664 56.0073 291.609 55.6375 291.609C55.3198 291.609 55.0385 291.664 54.7938 291.773C54.549 291.883 54.3432 292.034 54.1766 292.227C54.0099 292.414 53.8823 292.63 53.7938 292.875C53.7104 293.12 53.6688 293.38 53.6688 293.656ZM66.1672 297.555V293.203C66.1672 292.87 66.0995 292.581 65.9641 292.336C65.8339 292.086 65.6359 291.893 65.3703 291.758C65.1047 291.622 64.7766 291.555 64.3859 291.555C64.0214 291.555 63.701 291.617 63.425 291.742C63.1542 291.867 62.9406 292.031 62.7844 292.234C62.6333 292.438 62.5578 292.656 62.5578 292.891H61.1125C61.1125 292.589 61.1906 292.289 61.3469 291.992C61.5031 291.695 61.7271 291.427 62.0187 291.188C62.3156 290.943 62.6698 290.75 63.0812 290.609C63.4979 290.464 63.9615 290.391 64.4719 290.391C65.0865 290.391 65.6281 290.495 66.0969 290.703C66.5708 290.911 66.9406 291.227 67.2062 291.648C67.4771 292.065 67.6125 292.589 67.6125 293.219V297.156C67.6125 297.438 67.6359 297.737 67.6828 298.055C67.7349 298.372 67.8104 298.646 67.9094 298.875V299H66.4016C66.3286 298.833 66.2714 298.612 66.2297 298.336C66.188 298.055 66.1672 297.794 66.1672 297.555ZM66.4172 293.875L66.4328 294.891H64.9719C64.5604 294.891 64.1932 294.924 63.8703 294.992C63.5474 295.055 63.2766 295.151 63.0578 295.281C62.8391 295.411 62.6724 295.576 62.5578 295.773C62.4432 295.966 62.3859 296.193 62.3859 296.453C62.3859 296.719 62.4458 296.961 62.5656 297.18C62.6854 297.398 62.8651 297.573 63.1047 297.703C63.3495 297.828 63.649 297.891 64.0031 297.891C64.4458 297.891 64.8365 297.797 65.175 297.609C65.5135 297.422 65.7818 297.193 65.9797 296.922C66.1828 296.651 66.2922 296.388 66.3078 296.133L66.925 296.828C66.8885 297.047 66.7896 297.289 66.6281 297.555C66.4667 297.82 66.2505 298.076 65.9797 298.32C65.7141 298.56 65.3964 298.76 65.0266 298.922C64.662 299.078 64.2505 299.156 63.7922 299.156C63.2193 299.156 62.7167 299.044 62.2844 298.82C61.8573 298.596 61.524 298.297 61.2844 297.922C61.05 297.542 60.9328 297.117 60.9328 296.648C60.9328 296.195 61.0214 295.797 61.1984 295.453C61.3755 295.104 61.6307 294.815 61.9641 294.586C62.2974 294.352 62.6984 294.174 63.1672 294.055C63.6359 293.935 64.1594 293.875 64.7375 293.875H66.4172ZM71.4313 292.352V299H69.9859V290.547H71.3531L71.4313 292.352ZM71.0875 294.453L70.4859 294.43C70.4911 293.852 70.5771 293.318 70.7438 292.828C70.9104 292.333 71.1448 291.904 71.4469 291.539C71.749 291.174 72.1083 290.893 72.525 290.695C72.9469 290.492 73.413 290.391 73.9234 290.391C74.3401 290.391 74.7151 290.448 75.0484 290.562C75.3818 290.672 75.6656 290.849 75.9 291.094C76.1396 291.339 76.3219 291.656 76.4469 292.047C76.5719 292.432 76.6344 292.904 76.6344 293.461V299H75.1813V293.445C75.1813 293.003 75.1161 292.648 74.9859 292.383C74.8557 292.112 74.6656 291.917 74.4156 291.797C74.1656 291.672 73.8583 291.609 73.4938 291.609C73.1344 291.609 72.8063 291.685 72.5094 291.836C72.2177 291.987 71.9651 292.195 71.7516 292.461C71.5432 292.727 71.3792 293.031 71.2594 293.375C71.1448 293.714 71.0875 294.073 71.0875 294.453ZM82.4688 290.547V291.656H77.8984V290.547H82.4688ZM79.4453 288.492H80.8906V296.906C80.8906 297.193 80.9349 297.409 81.0234 297.555C81.112 297.701 81.2266 297.797 81.3672 297.844C81.5078 297.891 81.6589 297.914 81.8203 297.914C81.9401 297.914 82.0651 297.904 82.1953 297.883C82.3307 297.857 82.4323 297.836 82.5 297.82L82.5078 299C82.3932 299.036 82.2422 299.07 82.0547 299.102C81.8724 299.138 81.651 299.156 81.3906 299.156C81.0365 299.156 80.7109 299.086 80.4141 298.945C80.1172 298.805 79.8802 298.57 79.7031 298.242C79.5312 297.909 79.4453 297.461 79.4453 296.898V288.492ZM85.8344 290.547V299H84.3812V290.547H85.8344ZM84.2719 288.305C84.2719 288.07 84.3422 287.872 84.4828 287.711C84.6286 287.549 84.8422 287.469 85.1234 287.469C85.3995 287.469 85.6104 287.549 85.7562 287.711C85.9073 287.872 85.9828 288.07 85.9828 288.305C85.9828 288.529 85.9073 288.721 85.7562 288.883C85.6104 289.039 85.3995 289.117 85.1234 289.117C84.8422 289.117 84.6286 289.039 84.4828 288.883C84.3422 288.721 84.2719 288.529 84.2719 288.305ZM91.6375 297.969C91.9813 297.969 92.299 297.898 92.5906 297.758C92.8823 297.617 93.1219 297.424 93.3094 297.18C93.4969 296.93 93.6036 296.646 93.6297 296.328H95.0047C94.9786 296.828 94.8094 297.294 94.4969 297.727C94.1896 298.154 93.7859 298.5 93.2859 298.766C92.7859 299.026 92.2365 299.156 91.6375 299.156C91.0021 299.156 90.4474 299.044 89.9734 298.82C89.5047 298.596 89.1141 298.289 88.8016 297.898C88.4943 297.508 88.2625 297.06 88.1063 296.555C87.9552 296.044 87.8797 295.505 87.8797 294.938V294.609C87.8797 294.042 87.9552 293.505 88.1063 293C88.2625 292.49 88.4943 292.039 88.8016 291.648C89.1141 291.258 89.5047 290.951 89.9734 290.727C90.4474 290.503 91.0021 290.391 91.6375 290.391C92.299 290.391 92.8771 290.526 93.3719 290.797C93.8667 291.062 94.2547 291.427 94.5359 291.891C94.8224 292.349 94.9786 292.87 95.0047 293.453H93.6297C93.6036 293.104 93.5047 292.789 93.3328 292.508C93.1661 292.227 92.937 292.003 92.6453 291.836C92.3589 291.664 92.0229 291.578 91.6375 291.578C91.1948 291.578 90.8224 291.667 90.5203 291.844C90.2234 292.016 89.9865 292.25 89.8094 292.547C89.6375 292.839 89.5125 293.164 89.4344 293.523C89.3615 293.878 89.325 294.24 89.325 294.609V294.938C89.325 295.307 89.3615 295.672 89.4344 296.031C89.5073 296.391 89.6297 296.716 89.8016 297.008C89.9786 297.299 90.2156 297.534 90.5125 297.711C90.8146 297.883 91.1896 297.969 91.6375 297.969ZM108.447 292.516V293.742H102.291V292.516H108.447ZM102.525 287.625V299H101.017V287.625H102.525ZM109.759 287.625V299H108.259V287.625H109.759ZM116.508 287.625V299H115.023V287.625H116.508ZM120.164 287.625V288.859H111.375V287.625H120.164ZM122.428 287.625H123.889L127.616 296.898L131.334 287.625H132.803L128.178 299H127.037L122.428 287.625ZM121.952 287.625H123.241L123.452 294.562V299H121.952V287.625ZM131.983 287.625H133.272V299H131.772V294.562L131.983 287.625ZM142.919 297.773V299H137.231V297.773H142.919ZM137.528 287.625V299H136.02V287.625H137.528ZM146.198 293.586L145.042 293.289L145.613 287.625H151.448V288.961H146.839L146.495 292.055C146.704 291.935 146.967 291.823 147.284 291.719C147.607 291.615 147.977 291.562 148.394 291.562C148.92 291.562 149.391 291.654 149.808 291.836C150.224 292.013 150.579 292.268 150.87 292.602C151.167 292.935 151.394 293.336 151.55 293.805C151.706 294.273 151.784 294.797 151.784 295.375C151.784 295.922 151.709 296.424 151.558 296.883C151.412 297.341 151.191 297.742 150.894 298.086C150.597 298.424 150.222 298.688 149.769 298.875C149.321 299.062 148.792 299.156 148.183 299.156C147.724 299.156 147.29 299.094 146.878 298.969C146.472 298.839 146.107 298.643 145.784 298.383C145.467 298.117 145.206 297.789 145.003 297.398C144.805 297.003 144.68 296.539 144.628 296.008H146.003C146.066 296.435 146.191 296.794 146.378 297.086C146.566 297.378 146.81 297.599 147.113 297.75C147.42 297.896 147.777 297.969 148.183 297.969C148.527 297.969 148.831 297.909 149.097 297.789C149.363 297.669 149.586 297.497 149.769 297.273C149.951 297.049 150.089 296.779 150.183 296.461C150.282 296.143 150.331 295.786 150.331 295.391C150.331 295.031 150.282 294.698 150.183 294.391C150.084 294.083 149.935 293.815 149.738 293.586C149.545 293.357 149.308 293.18 149.027 293.055C148.745 292.924 148.422 292.859 148.058 292.859C147.573 292.859 147.206 292.924 146.956 293.055C146.711 293.185 146.459 293.362 146.198 293.586Z" fill="black"/>
<path d="M63.833 95.8477C63.833 93.3252 62.2939 91.2257 60.083 90.2106V83.4584C61.5518 84.2966 63.2627 84.7734 65.083 84.7734H72.583C75.3408 84.7734 77.583 86.9806 77.583 89.6953V90.2106C75.3721 91.2257 73.833 93.3252 73.833 95.8477C73.833 99.2453 76.6299 102 80.083 102C83.5361 102 86.333 99.2453 86.333 95.8477C86.333 93.3252 84.7939 91.2257 82.583 90.2106V89.6953C82.583 84.2582 78.1064 79.8516 72.583 79.8516H65.083C62.3252 79.8516 60.083 77.6444 60.083 74.9297V74.4144C62.2939 73.4685 63.833 71.2998 63.833 68.7773C63.833 65.3782 61.0361 62.625 57.583 62.625C54.1314 62.625 51.333 65.3782 51.333 68.7773C51.333 71.2998 52.876 73.4685 55.083 74.4144V90.2106C52.876 91.2257 51.333 93.3252 51.333 95.8477C51.333 99.2453 54.1314 102 57.583 102C61.0361 102 63.833 99.2453 63.833 95.8477ZM57.583 94.002C58.6182 94.002 59.458 94.8287 59.458 95.8477C59.458 96.8666 58.6182 97.6934 57.583 97.6934C56.5479 97.6934 55.708 96.8666 55.708 95.8477C55.708 94.8287 56.5479 94.002 57.583 94.002ZM80.083 97.6934C79.0439 97.6934 78.208 96.8666 78.208 95.8477C78.208 94.8287 79.0439 94.002 80.083 94.002C81.1221 94.002 81.958 94.8287 81.958 95.8477C81.958 96.8666 81.1221 97.6934 80.083 97.6934ZM57.583 66.9316C58.6182 66.9316 59.458 67.7545 59.458 68.7773C59.458 69.8002 58.6182 70.623 57.583 70.623C56.5479 70.623 55.708 69.8002 55.708 68.7773C55.708 67.7545 56.5479 66.9316 57.583 66.9316Z" fill="#DDF247"/>
</svg>
